<svg width="524" height="506" viewBox="0 0 524 506" fill="none" xmlns="http://www.w3.org/2000/svg">
<path d="M61.0317 259.19L60.6019 259.67L62.0087 261.569L63.1963 262.221L62.8498 262.46L62.5872 263.099L61.8486 263.72L61.818 264.437L61.2722 264.267L60.4482 264.563L59.8234 265.061L59.563 265.608L59.7778 266.11L60.4446 266.458L60.3464 266.978L60.5499 267.572L61.3334 267.544L61.7433 268.033L61.2124 269.869L61.1612 270.991L61.4017 271.443L60.9783 272.065L61.0288 273.518L61.3903 274.492L63.4041 273.177L63.9136 273.438L65.2564 273.635L66.1957 274.649L67.6779 275.176L68.8876 275.018L70.2247 273.914L71.9005 273.035L72.6085 272.86L73.2397 272.367L73.4745 271.691L73.7741 271.462L73.9463 270.714L74.9517 268.753L76.8737 267.003L77.1968 266.388L78.3752 265.144L80.2794 263.725L81.4471 261.874L84.2024 265.926L86.1706 267.798L87.1412 268.22L88.1225 267.91L88.5459 266.999L88.4007 265.726L88.8875 265.141L89.4888 264.778L90.8308 264.593L93.4573 265.325L95.3871 265.067L96.0404 265.214L96.1549 265.814L95.259 267.376L95.5024 267.709L97.4457 268.361L97.7866 268.635L97.9531 269.56L97.3305 271.071L97.0188 273.351L96.1386 273.973L94.4685 274.202L94.1482 274.824L94.7495 275.773L97.0729 277.424L99.4482 278.082L100.853 277.92L101.475 277.061L101.566 275.113L101.732 274.788L104.747 277.224L112.257 277.297L111.55 279.209L111.512 280.63L111.832 283.016L110.722 288.114L111.179 293.443L110.965 295.282L109.765 298.121L107.771 299.449L107.217 300.531L100.77 300.723L95.6632 300.438L91.721 300.619L76.3372 300.525L69.1231 300.73L66.2825 301.509L63.9314 300.98L62.5509 301.267L60.0198 301.131L58.0843 300.764L56.3459 300.95L54.8608 300.212L54.4986 300.403L52.1738 300.331L51.0581 300.814L49.6406 299.677L48.6878 300.111L47.1429 300.042L45.3497 300.57L38.3441 300.546L37.6759 300.677L36.5388 300.403L33.5003 300.449L33.1175 300.597L32.4984 301.256L29.4564 300.307L27.7173 300.57L26.0372 301.261L25.49 301.084L24.8602 300.509L23.9743 300.45L23.1773 300.618L19.7987 302.482L17.9401 303.164L15.9569 303.305L14.4753 304.168L12.3256 304.378L10.1752 305.382L7.73945 306.051L7.61065 305.447L7.26909 305.344L7.26126 304.884L7.6939 304.661L8.13509 304.691L8.91641 303.794L8.85664 303.312L6.84427 303.371L6.3056 303.557L6.16897 303.653L6.39668 304.588L6.12343 303.854L4.74864 302.326L4.65044 301.859L4.52094 301.933L3.38951 301.027L1.52942 298.877L1 297.747L2.61388 297.054L9.97739 296.802L10.0414 280.882L8.85308 280.453L8.21977 279.594L8.45246 279.073L9.81372 279.037L10.4477 278.571L11.0626 278.584L11.6845 278.302L12.1613 277.806L12.5441 277.813L12.8579 277.01L12.6451 276.2L12.833 275.918L13.7125 276.135L14.967 275.881L15.3036 274.64L15.9782 273.934L16.6364 273.743L17.2249 273.124L17.0563 272.603L18.298 270.703L19.4017 270.09H20.5936L22.3049 269.312L23.6406 269.061L24.2974 268.662L25.352 268.946L25.6821 268.394L25.4544 267.653L25.4829 266.591L26.1411 266.211L28.4175 268.406L29.0508 268.694L29.9168 269.952L29.6478 270.252L30.4633 271.135L31.2475 271.54L32.1127 271.503L32.5077 271.828L32.8713 271.859L33.2719 273.157L33.0905 273.262L33.0478 273.679L34.5642 275.085L34.6631 274.712L34.2027 273.885L34.303 273.731L34.9484 273.587L36.0272 273.768L36.257 273.014L36.6448 272.687L37.7343 272.261L38.3939 272.479L38.9326 272.263L40.0477 270.284L40.4426 270.315L41.0844 270.9L41.5491 271.053L41.7782 270.334L41.4061 269.545L42.6151 269.474L42.6442 268.744L42.2052 268.579L42.0771 267.929L42.3696 267.425L42.2308 267.07L42.7858 266.382L43.1893 265.443L43.1872 264.756L42.5873 263.575L42.6471 262.777L42.8655 262.531L43.5231 262.431L44.0482 261.908L45.0757 261.837L45.9937 262.52L46.8334 263.933L48.9162 264.385L50.0462 263.205L50.7243 261.897L51.0196 261.938L52.1141 261.426L52.7289 261.528L54.2061 261.068L54.8964 261.225L57.0347 260.114L57.9526 259.239L58.46 259.292L58.803 258.955L59.812 258.951L60.0411 258.294L61.1491 258.02L61.3569 258.276L61.0317 259.19ZM8.5471 303.443L8.58339 303.788L8.05041 304.327L8.1109 304.038L7.35163 304.542L6.99441 304.298L7.02501 304.446L6.65285 304.549L6.56177 304.06L6.96382 303.689L8.5471 303.443Z" fill="#DEDEDE" fill-opacity="0.03" stroke="#F8AB5D" stroke-width="0.5"/>
<path d="M402.922 9.16216L404.73 12.0212L406.289 15.135V16.152L405.12 16.5969L405.769 18.2488L405.64 19.7107L404.989 21.4266L404.47 23.9049L405.9 24.5404L409.342 25.3027L411.94 24.8579L413.37 25.1127L411.032 32.484L410.706 35.2163L411.291 37.4412L412.525 38.839L412.59 41.3179L414.539 42.7158L415.708 49.3249L415.189 51.3583L413.63 53.0109L412.525 55.5399L412.46 56.6203L413.564 57.9548L415.318 58.1456L416.942 56.6203L418.502 56.3662L419.606 56.557L420.775 55.9214L422.399 55.7307L423.634 56.3022L424.088 57.4466L423.503 61.5134L423.893 63.0387L421.035 64.1831L420.71 65.4536L422.919 66.2799L423.373 67.1062L423.568 68.6314L420.19 68.8855L417.528 70.6648L415.318 71.173L412.07 68.7581L410.511 67.2969L408.952 67.1062L408.432 67.8684L408.172 68.9488L407.458 70.2833L406.094 71.4911L404.535 72.5082L402.522 75.9394L403.3 76.6383L405.12 76.3842L406.484 75.9394L408.693 76.0028L409.862 76.7024L409.992 78.1002L409.667 79.9429L410.316 81.1507V82.8026L409.602 84.6459L408.822 85.9804L407.783 87.1242L407.004 88.5227L406.406 92.6111L404.782 92.2296L403.678 89.8147L403.223 87.908L402.443 87.1458L399.455 86.891L398.481 86.1921L397.051 86.5735L396.077 87.4632L394.972 87.5265V88.2895L394.388 89.1158L392.634 89.8781L391.608 89.624L391.283 88.6069L390.634 88.1621L389.334 89.3699L387.84 89.2425L386.736 87.9714L387.19 83.5231L386.801 81.1715L385.372 80.9815L383.682 82.1886L382.189 82.3793L379.915 83.4597L378.031 83.8405L377.382 84.7302L376.147 85.4298L374.913 84.6668L373.614 84.3494L371.73 84.4768L369.976 85.2391L368.936 86.1287L367.053 86.4461L364.649 86.3194L362.18 85.3657L361.141 84.6035L357.569 82.9516L356.204 82.8242L354.255 84.5401L353.151 84.7942L351.137 84.0953L349.123 84.286L337.223 83.6505L333.455 84.1587L332.351 83.8405L326.115 85.3657L325.4 85.8746L325.335 86.7002L324.75 87.3998L323.581 87.7813L322.477 88.6703L320.723 88.5436L316.37 87.2725L314.486 86.0013L312.992 85.8746L312.172 85.5934L311.717 84.2589V80.5729L311.002 78.9202L309.574 77.6491L308.079 77.395L307.17 76.6961L306.455 75.8064L305.676 76.1246L305.026 77.7765L303.337 78.0306L300.479 76.5694L298.53 76.1879L296.386 75.0435L294.308 73.6457L293.203 71.8663L292.944 69.9603L293.982 69.4515L295.022 68.371L295.283 67.2906L297.166 64.4435L297.231 63.3631L295.997 62.3467L294.503 62.0926L293.463 62.2193L292.359 63.3631L291.449 63.8086L290.215 63.2364L289.825 62.0286L288.916 60.6308L284.044 59.7411L285.813 57.061L285.969 55.8915L285.865 54.722L286.177 53.7564L287.112 52.6378L288.879 51.4174L293.036 49.384L295.063 48.9267L297.454 48.0621L299.689 45.9778L300.884 44.5034L302.494 43.4356L303.222 43.5887L304.678 44.3002L306.028 45.3673L307.276 45.5713L309.77 44.4018L310.394 43.4864L310.186 42.3176L308.991 41.911L307.535 41.8094L306.288 42.5717L303.534 41.6563L299.948 40.894L298.441 40.9956L296.467 41.5546L293.816 41.7078H292.413L290.49 41.3513L290.126 39.6228L291.01 37.5386L289.45 36.674L287.891 34.7423L283.111 34.1826L281.864 33.8317L283.709 32.2028L283.751 31.5957L283.461 31.1614L283.479 30.7931L284.223 29.3514L285.594 28.6065L285.611 27.8826L284.789 27.5714L284.669 27.2895L285.007 26.6323L285.041 25.3758L285.805 25.0305L286.777 25.1391L287.254 25.641L287.768 25.3765L287.992 24.8544L287.972 24.2042L288.717 23.1294L288.877 21.2951L289.502 20.6073L290.076 19.1767L290.777 18.6233L291.311 18.7263L291.776 19.247L292.327 19.0862L292.576 18.2759L293.334 17.7719L292.925 17.0424L293.131 16.4416L293.445 16.1527L294.392 16.2182L295.1 15.6216L295.552 16.0079L296.345 17.8715L296.934 17.9808L298.184 18.8809L299.093 19.0814L300.685 18.2752L301.338 18.759L301.69 19.5004L302.507 20.1374L303.184 20.2592L303.661 21.277L304.056 21.2275L305.048 21.9007L305.843 21.7475L306.453 22.255L307.501 22.2536L307.725 21.9341L307.612 21.1001L307.774 20.6219L308.702 20.0009L309.679 20.0065L311.064 19.2011L311.904 18.4152L312.938 18.2119L315.378 17.0988L317.059 17.1712L318.776 15.845L319.259 16.3414L320.381 15.758L320.789 15.8617L321.034 16.175L321.956 16.3769L322.106 16.0267L321.98 14.8489L322.231 14.5725L322.419 14.585L322.677 15.1308L324.389 14.5718L325.794 13.6877L326.358 13.6627L327.066 14.1409L327.712 14.0977L328.55 13.144L329.786 12.3755L330.256 12.5823L330.226 13.032L330.867 12.977L331.079 12.631L330.777 12.0476L330.841 11.7963L331.48 11.2185L333.585 11.0744L334.554 10.4639L334.511 10.1082L334.211 9.86943L333.538 10.0922L333.238 9.98847L333.11 9.69679L333.215 9.46637L333.589 9.3703L333.767 8.7222L334.151 8.29199L334.45 8.33237L335.193 9.71906L335.556 9.58193L335.329 8.7048L335.733 8.52589L337.931 9.15032L338.312 9.98986L338.778 10.331L340.095 10.4848L340.622 11.9613L341.746 12.1103L341.729 12.6254L341.312 13.4434L343.029 13.3264L343.408 13.7963L344.963 13.7782L345.818 12.9157L347.336 12.9589L347.673 12.3191L348.845 12.333L349.382 11.662L350.658 11.2972H354.386L354.871 10.5433L355.128 10.5788L355.575 11.1663L355.883 11.1963L356.17 10.8329L356.98 10.9164L357.424 10.6387L359.348 10.3317L359.692 9.91329L359.663 9.11552L360.257 8.25371L360.366 7.32089L359.738 7.12667L359.458 6.09639L359.839 5.68428L360.061 4.35118L360.422 3.66271L360.899 3.64252L361.161 3.29794L361.084 3.08353L360.759 3.16428L360.707 2.88165L361.454 2.70135L362.388 2.74729L363.239 1.9899L363.679 2.0254L363.965 1.53881L364.254 1.58754L364.632 2.12634L365.623 1.84093L365.332 1.08702L365.582 1L365.827 1.25687L366.55 1.29168L366.979 2.08249L367.675 2.03097L367.709 2.72502L368.074 2.84614L368.286 2.57535L368.661 2.54959L369.089 2.97214L370.032 3.37381L370.342 4.17715L370.882 4.23075L371.135 4.98536L372.069 4.58996L371.703 4.26556L372.318 4.0247L372.545 4.54541L373.073 4.74102L373.088 5.50746L373.504 6.31637L373.809 5.64669L374.216 5.43715L374.812 5.46569L375.216 6.10892L375.394 6.89416L375.731 6.63589L375.517 5.95507L375.981 6.04L376.413 5.78661L377.003 6.1841L377.077 5.34944L377.584 4.906L378.243 5.20534L378.289 5.74554L379.845 6.12145L380.088 5.61188L380.71 5.74554L380.746 5.29096L381.179 5.16705L381.648 4.61363L381.716 4.25721L382.388 4.4027L382.364 5.10858L382.609 5.18794L383.097 4.85588L383.675 4.97701L384.091 5.77965L384.48 5.73579L384.925 6.01773L385.109 6.34212L384.946 6.72291L385.794 6.78278L387.338 7.38075L388.674 7.36544L390.043 8.25858L390.534 8.76049L390.662 9.73577L391.327 10.0602L392.387 10.1193L392.58 9.50535L393.69 9.60768L393.709 9.14058L394.104 9.09742L394.292 9.32993L395.434 9.12526L396.292 9.23456L398.486 8.53703L399.101 8.58506L400.076 9.98847L400.433 10.0247L400.715 9.71767L401.826 10.3971L402.177 10.0838L402.345 9.3348L402.922 9.16216Z" fill="#DEDEDE" fill-opacity="0.03" stroke="#F8AB5D" stroke-width="0.5"/>
<path d="M211.433 90.6841L209.874 93.2097L192.091 102.456L192.335 108.033L198.473 105.555L201.299 103.505L205.333 101.265L209.524 100.121L211.667 99.3586L214.054 98.2142L216.929 97.4046L219.413 97.1185L221.703 97.7861L225.114 99.1679L227.063 99.6447L231.301 99.0725L232.568 98.5957L233.007 99.0245L232.958 100.884L231.643 104.973V106.975L232.129 108.309L233.007 109.597L233.25 111.503L232.909 112.361L229.255 111.027L228.67 111.455L226.186 115.268L225.991 117.508L225.406 119.987L225.163 122.322L226.04 124.801L225.65 126.373L223.993 128.566L223.896 129.805L223.262 131.283L222.629 132.093L222.239 133.285L222.337 134.076L223.506 135.553L225.796 137.126L227.647 138.937L229.255 139.795L229.645 140.891L229.011 141.654L227.452 142.13L226.721 142.75L226.965 143.846H229.401L229.791 144.371L229.401 145.372L228.525 146.039L225.601 146.563L224.286 147.469L223.409 148.899V150.329L222.677 151.044L221.07 151.377L220.096 150.52L219.901 149.042L220.193 148.184L219.706 147.516L218.488 147.136L216.734 147.421L216.344 148.232L215.321 148.47L214.346 147.421L213.714 147.183L212.593 147.469L212.057 146.992L211.277 146.85L210.059 147.183L209.426 148.279L210.059 149.042L211.521 149.137L212.446 150.043L212.934 150.853L215.078 152.521L215.954 153.475L217.806 157.897L221.118 161.472L221.07 163.283L220.534 164.713L219.754 166.286L218.585 168.002L218.001 169.432L218.196 170.862L217.368 172.101L215.906 173.007L208.695 175.294L206.99 175.39L205.966 174.913L205.382 174.055L205.479 171.243L205.041 170.433L203.872 169.908L203.141 170.719L202.946 175.247L202.312 176.295L201.192 177.106L199.925 179.536L198.473 181.626L197.499 180.052L196.671 178.146L196.086 175.668L195.258 173.904L194.478 172.856L193.406 172.427L192.432 171.712L192.384 170.091L191.847 167.612L190.97 165.992L189.363 164.181L188.729 164.276L188.047 165.182L186.488 166.087L184.881 165.896L181.665 166.087L180.252 167.088L179.619 169.281L180.934 171.521L182.542 172.951L183.224 174.476L183.195 175.668L181.489 175.096L180.564 174.381H179.638L179.346 175.381L180.272 176.335L180.174 177.288L176.617 177.383L175.35 177.717L173.548 177.574L170.332 175.572L168.871 174.381L166.727 173.142L165.217 172.856L163.998 173.427L163.219 174.333L162.781 175.715L159.663 178.861L157.08 180.291L151.282 182.34L148.759 182.865L144.472 184.819L138.528 189.347L137.553 190.434L136.481 191.148L134.484 192.006H132.778L130.927 191.577L127.566 191.387L126.445 191.911L126.494 192.673L129.953 193.913L130.44 195.057L130.294 196.725L129.758 197.535L125.276 198.203L122.986 198.154L121.28 197.344L120.599 196.248L119.239 192.95L120.776 190.619L126.427 179.609L127.794 177.823L129.183 176.494L131.374 174.842L133.134 174.091L135.053 172.794L136.497 172.192L138.499 172.073L141.334 170.568L145.469 166.544L150.693 160.072L151.404 158.62L152.284 154.38L152.164 152.721L151.558 150.444L151.514 147.664L153.091 144.261L152.726 143.78L153.195 141.404L154.452 138.535L155.373 137.355L157.242 135.873L158.083 134.558L158.247 133.936L158.112 131.249L157.818 130.659L156.23 129.061L155.958 128.474L155.907 126.741L156.373 126.068L156.193 124.64L156.478 123.676L156.146 121.998L155.546 121.125L155.101 119.848L155.243 117.37L155.613 116.311L156.145 115.468L157.021 114.648L157.748 113.333L158.691 108.716L159.987 105.662L161.197 103.85L161.482 100.321L161.746 99.6907L160.929 95.8884L161.186 94.3096L161.869 92.1397L161.641 91.0043L173.923 91.06L175.326 91.3649L176.3 92.1655L177.859 93.0426L179.146 92.9277L179.582 92.3862L184.22 90.5943L188.196 88.0778L189.56 87.5063L191.821 87.4297L194.588 88.0019L200.123 90.0987L203.202 90.5184L211.433 90.6841Z" fill="#DEDEDE" fill-opacity="0.03" stroke="#F8AB5D" stroke-width="0.5"/>
<path d="M475.827 367.546L457.302 370.17L458.568 372.698L458.996 374.519L458.427 376.731L457.155 378.777L453.082 383.857L451.663 385.213L450.34 386.216L445.848 388.891L444.067 390.265L443.419 390.886L442.59 392.58L442.528 394.418L443.167 395.208L444.045 395.592L445.329 395.14L446.499 393.811L447.059 394.008L447.244 394.598L446.744 396.234L448.226 397.506L448.655 399.896L449.462 400.491L449.394 401.359L449.85 402.239L449.706 403.944L450.222 404.544L450.915 404.652L451.063 405.238L451.702 405.997L451 406.398L450.525 408.445L449.731 410.069L450.045 411.819L449.718 413.188L449.645 415.461L448.564 416.942L448.426 417.447L449.426 418.91L450.044 419.484L449.642 421.364L450.221 423.028L449.982 425.219L450.05 425.497L450.997 426.359L450.851 427.94L451.43 428.441L451.696 429.115L451.475 429.591L450.902 429.978L450.747 430.641L449.881 430.541L449.325 430.823L449.146 431.958L447.78 433.708L447.349 436.701L446.541 437.566L446.527 439.078L445.66 441.095L446.213 442.314L446.226 443.174L445.815 444.208L445.958 444.853L445.49 445.97L445.105 446.193L444.901 447.05L445.181 448.293L444.313 448.667L444.383 449.426L444.108 450.322L443.419 451.098L443.546 451.889L443.074 454.097L444.431 455.737L444.069 456.604L444.53 457.203L443.979 457.909L444.542 458.383L444.871 459.09L444.587 460.117L444.641 460.754L445.82 460.656L446.363 461.515L446.423 462.077L448.409 462.928L449.451 462.982L450.145 464.053L452.359 465.1L453.115 464.919L453.407 465.09L453.925 466.856L455.403 468.097L456.033 469.106L458.535 471.109L459.95 473.164L460.113 474.119L461.262 475.807L461.795 475.929L462.916 475.661L463.518 476.096L465.203 475.423L466.349 475.535L467.278 475.249L468.071 475.937L468.061 476.47L469.083 476.727L469.989 476.573L472.962 478.167L473.633 478.124L474.381 477.414L474.671 476.834L474.584 476.278L473.53 476.06L472.45 474.414L472.765 472.777L473.355 471.833L475.703 470.591L476.279 470.599L477.296 470.967L478.216 470.982L479.748 470.522L480.813 469.707L482.038 469.603L482.093 504.985L481.216 504.489L479.453 505L478.559 504.319L477.652 504.499L476.673 503.72L476.6 503.313L476.768 502.995L476.508 502.48L477.811 502.123L478.11 501.031L477.848 500.439L478.631 499.784L478.303 498.742L477.34 499.068L476.082 498.394L475.3 498.772L474.415 498.776L472.058 501.128L469.966 501.473L469.514 502.064L468.62 501.621L468.16 502.804L466.763 503.286L464.976 504.655L464.365 503.515L463.887 502.964L463.304 502.654L462.37 502.864L460.533 503.962L460.083 503.913L459.326 502.826L459.118 501.919L458.497 500.868L458.386 499.984L457.347 496.981L456.578 497.001L455.8 496.522L455.771 494.773L455.465 494.107L455.258 492.861L454.27 491.591L453.31 490.885L452.501 489.198L450.489 487.624L449.772 487.666L449.178 488.271L448.736 489.418L448.3 489.65L448.159 489.224L447.521 488.646L447.099 487.136L445.373 485.318L445.115 484.351L445.698 483.954L446.561 483.822L446.952 482.595L446.761 482.16L446.04 481.482L444.824 480.667L444.938 479.763L444.72 479.384L443.684 478.967L441.258 476.741L439.734 476.574L439.079 476.84L438.484 476.397L437.817 476.257L437.412 475.755L436.673 476.402L436.636 476.986L436.051 477.187L435.018 475.105L434.721 474.939L432.993 474.855L432.362 474.557L431.428 474.968L431.244 474.596L431.376 473.887L430.403 471.886L428.978 471.984L427.688 471.6L427.555 471.707L427.661 472.406L426.514 472.795L426.04 473.214L424.77 472.997L423.257 473.152L422.575 472.835L422.08 471.44L420.752 471.054L419.393 469.625L418.911 467.167L418.096 466.289L418.227 464.257L417.98 463.391L416.169 461.994L413.264 460.188L412.056 459.943L411.662 459.561L411.505 456.01L410.944 453.639L409.613 454.494L408.585 454.367L407.758 454.649L406.533 454.573L406.095 454.803L405.997 455.902L406.547 456.677L406.648 457.167L405.544 459.036L405.285 460.375L405.525 461.194L404.532 462.094L404.05 463.16L402.814 464.127L402.138 464.932L401.39 464.827L400.613 465.17L399.802 464.454L399.162 464.358L398.616 464.637L397.62 465.591L397.331 465.596L396.89 465.139L395.368 464.963L394.432 464.578L393.271 464.786L391.287 463.426L390.135 463.048L389.158 463.18L387.01 464.431L383.784 463.384L383.231 463.694L377.707 463.739L377.399 463.528L377.74 462.901L377.635 462.583L376.886 462.026L376.177 462.104L375.774 461.944L375.209 461.203L374.986 460.275L374.723 459.932L374.238 459.979L373.17 460.684L370.301 460.348L369.737 459.689L369.173 459.422L368.561 458.108L368.484 457.377L367.744 456.652V456.118L369.342 454.784L370.394 452.115L371.875 450.628L371.408 448.684L371.447 447.272L373.045 445.366L372.421 442.583L372.578 441.896L375.11 438.846L375.383 437.838L376.241 436.962H377.411L379.826 437.496L380.918 437.458L382.36 435.628L383.491 435.323L384.465 435.742L384.933 437.153L386.725 440.546L387.544 439.746L388.051 438.144L389.493 436.123L391.208 435.894L392.806 435.437L393.468 434.293L394.56 431.586L394.404 430.861L393.702 430.061L392.533 429.374L393.157 427.773L391.247 426.095L390.663 425.256L390.818 424.531L393.858 423.77L400.523 423.921L401.848 424.494L403.174 426.819L403.875 426.972L405.746 426.705L407.773 426.095L409.448 424.874L409.916 424.15L410.033 422.282L409.293 421.367L406.253 418.774L405.239 417.554V416.372L407.578 413.131L408.045 412.216L407.656 410.996L406.681 410.157L405.512 409.737L402.861 410.538L399.237 410.5L394.442 409.699L392.922 409.09L388.441 408.029L387.232 408.296H385.946L385.361 407.495V406.466L386.881 403.911L387.232 402.958L387.154 401.89L387.232 400.861L388.284 399.297L389.922 398.039L390.818 396.934L391.598 392.243L390.935 390.336L391.52 389.277L393.742 387.333L395.963 384.892L397.561 380.545L397.873 379.248L397.911 377.342L398.575 376.085L399.549 375.703L400.095 376.046L400.329 377.419L400.679 378.181L401.926 378.258L403.018 377.571L405.512 375.016L407.033 373.796L407.266 373.148L406.487 372.347L406.097 371.203L406.214 370.243L409.799 366.048L410.696 364.676L412.239 363.608L416.02 362.464L417.619 361.549L420.658 360.405L421.905 360.252L423.309 360.366L424.751 361.93L425.569 362.121L426.583 362.884L427.986 363.303L428.804 364.599L429.895 365.019L431.338 364.828L432.273 366.238L432.741 367.649L434.081 368.373L434.784 367.497L436.109 367.039L437.317 366.01L438.604 365.285H440.162L441.683 364.866L444.138 362.96L444.839 361.396L444.722 360.137L446.827 357.011L446.866 355.105L445.697 353.923L443.008 352.245L443.203 350.91L444.878 350.3L445.191 348.791L446.515 348.257H447.802L449.087 348.714L449.595 349.439L449.828 351.307L450.257 352.527L450.919 353.556L451.098 354.93L452.658 356.188L454.1 357.027L455.114 357.331L456.088 356.988L457.413 353.824L458.388 354.014L459.4 354.51L461.115 354.738L462.519 354.662L463.104 353.709L463.065 352.489L463.962 351.612L466.417 351.993L467.157 351.155L468.405 351.04L469.573 351.459L471.445 351.116L472.497 352.146L473.081 353.328L473.978 354.091L475.03 353.556L475.935 353.709L476.48 354.358L476.559 355.272L477.923 356.874L478.234 358.247L477.883 359.696L477.26 360.344L476.09 360.992L475.545 361.716L475.623 363.204L474.999 365.11L474.532 365.812L475.827 367.546Z" fill="#DEDEDE" fill-opacity="0.03" stroke="#F8AB5D" stroke-width="0.5"/>
<path d="M381.201 312.625L381.02 313.44L379.824 314.864L376.706 317.09L376.135 318.921L376.29 320.802L378.681 321.921L378.993 323.395L379.721 324.31L380.24 326.292L379.356 327.005L379.876 328.326L381.539 330.004L384.034 330.512L384.865 331.682L386.164 332.088L389.75 332.495L391.153 333.105L391.205 334.224L390.634 335.139L388.68 336.786L388.056 338.362L388.108 339.989L389.096 341.26L390.498 342.48L394.344 344.056L396.111 345.48L399.437 346.14L401.1 348.072L403.647 348.276L409.363 348.021L410.922 347.666L411.442 346.954L411.598 344.971L412.377 344.412L413.729 345.531L414.768 345.581L416.899 344.564L418.302 345.073L419.185 344.463L420.588 344.361L422.459 346.903L423.187 348.479V349.598L422.667 350.513L422.823 352.241L423.603 353.97L424.746 354.478L425.993 354.631L427.344 354.021L428.02 354.326L428.488 355.698L427.864 358.138L426.981 359.359L425.889 360.122L424.751 361.93L423.309 360.367L421.906 360.252L420.658 360.405L417.619 361.549L416.02 362.464L412.239 363.608L410.696 364.676L409.799 366.049L406.214 370.243L406.097 371.203L406.487 372.347L407.266 373.148L407.033 373.796L405.512 375.016L403.018 377.571L401.926 378.258L400.679 378.181L400.329 377.419L400.095 376.046L399.549 375.703L398.575 376.085L397.912 377.342L397.873 379.249L397.561 380.545L395.963 384.892L393.742 387.333L391.52 389.277L390.935 390.337L391.598 392.243L390.818 396.934L389.922 398.039L388.285 399.297L387.232 400.861L387.155 401.89L385.546 402.989L383.678 403.784L379.862 404.181L379.05 403.068L376.696 402.989L372.798 401.718L370.686 400.447L368.25 397.984L366.383 397.666L364.759 397.905L364.028 399.017L364.434 401.559L365.571 405.213L365.083 406.166L360.78 407.358L354.121 410.376L352.578 410.774L351.929 411.409L352.335 412.919L350.955 414.19L349.656 414.666L348.357 414.348L347.057 412.839L345.189 413.237L342.754 411.647L339.586 413.872L338.207 413.633L337.638 412.363L336.176 411.171L335.283 412.363L334.633 413.633L333.578 412.68V411.568L332.116 411.489L330.817 411.727L328.624 411.489L327 411.727L325.944 410.774L326.351 409.9L325.62 408.63L324.24 407.675L324.077 406.246L326.189 403.545L327 402.115L326.838 400.05L327.082 398.699L327.731 397.269L327.487 394.807L327.975 393.615L329.68 393.297L330.898 392.662L332.522 392.185L336.014 392.9L337.232 392.98L338.45 392.662L338.937 392.027L337.476 390.835L335.851 390.438L333.172 388.373L331.954 387.102L331.385 385.195L330.087 383.685L325.863 382.891L324.24 380.111L322.941 379.317L321.723 378.84L318.962 378.522H316.769L315.308 377.807V375.504L314.496 372.723L314.414 371.579L314.577 369.355L315.064 367.766L315.795 362.523L314.982 358.869L314.171 357.201L315.535 355.819L315.73 354.389L316.51 353.436L318.069 354.198L318.946 355.437L321.577 354.103L322.356 352.578L321.089 349.337L321.187 346.573L321.577 343.713L322.551 341.711L323.818 339.71L328.494 333.704L330.931 332.56L335.608 332.846L337.557 331.893L340.479 331.225L342.818 329.891L344.962 328.08L346.424 325.887L348.471 323.98L350.419 323.218L353.147 322.551L356.363 322.646L357.824 324.076L360.066 325.696L362.112 324.553L362.989 323.314L363.476 321.502L362.989 320.072L359.188 317.403L358.604 316.355L359.188 313.495L359.87 312.732L361.04 312.351L364.255 312.827L368.153 311.969L371.369 310.445L373.22 308.634L375.169 308.729L376.241 311.016L377.118 311.303L377.703 310.253L378.774 310.35L379.067 311.493L381.201 312.625Z" fill="#DEDEDE" fill-opacity="0.03" stroke="#F8AB5D" stroke-width="0.5"/>
<path d="M502.582 48.692L498.168 49.3478L497.388 51.432L498.168 53.008L497.232 55.347L496.764 57.8893L495.621 59.7194L492.087 62.7191L491.464 64.2951L491.515 66.8367L492.607 67.4973L493.178 68.2095L492.607 68.8193L492.191 70.2429V71.9714L493.283 73.5989L492.919 75.3268L491.151 78.3271L490.424 81.1227L489.177 81.3768L488.501 82.9021L487.462 84.2038L485.903 84.4071L483.876 87.1527L484.759 88.4231L484.24 90.1015L482.888 89.6434L481.849 88.6264L480.862 86.8986L479.562 86.2881L477.848 85.9832L476.652 85.3218L476.913 84.1022L477.796 83.136L477.848 79.9839L477.38 78.6626L476.392 78.0013L474.47 78.2554L472.547 79.1701L470.728 79.7806L468.909 79.8822L467.87 79.0685L467.35 77.4423L466.674 76.6285L465.687 76.9334L465.427 77.8488L464.596 79.3741L461.166 79.5773L459.711 80.1363L459.763 81.9672L459.243 82.8311L457.476 83.4917L455.085 83.2376L453.526 82.3737L452.227 81.9156L451.5 82.6278L453.318 83.7465L453.89 84.7628L453.682 85.7799L452.539 85.9323L451.344 85.2202L450.356 85.0169L449.774 83.5425L448.631 82.4753L447.228 82.6786L446.188 83.4409L444.577 84.2038L443.227 83.3901L442.81 82.3737L441.72 82.6278L441.459 85.8307L441.823 88.8811L441.304 92.6431L440.212 94.728L439.121 95.5411L438.394 97.4728L437.666 98.7948L436.731 99.3538L435.587 98.6932L433.612 98.1843L431.118 97.981L430.026 97.0155L426.805 95.1345L424.933 95.1853L422.075 95.9984L421.14 95.6427L420.36 96.3033L420.672 97.9302L421.764 98.9472L422.282 100.117L422.439 102.15L423.686 102.201L425.401 101.49L426.596 101.845L427.272 102.761L427.116 104.336L426.752 105.607L425.921 105.913L424.673 105.455L423.53 105.302L421.659 105.658L420.464 103.167L419.477 102.658L417.97 102.709L417.417 103.213L417.124 102.791L416.41 102.156L411.473 102.092L411.343 101.139L411.798 100.504H412.837L413.552 99.5501L414.071 97.7708L414.916 97.1986L415.37 96.5003V95.6608L414.656 95.0252L414.72 94.4537L416.215 93.31L415.89 92.0388L415.306 90.8951L414.266 90.3862L412.966 90.0688L411.863 90.1955L411.538 90.831V92.547L411.148 93.4366L410.109 93.6907L408.224 93.564L406.406 92.611L407.004 88.5226L407.783 87.1241L408.822 85.9804L409.602 84.6459L410.316 82.8025V81.1506L409.667 79.9428L409.992 78.1001L409.862 76.7023L408.693 76.0027L406.484 75.9393L405.12 76.3842L403.3 76.6383L402.522 75.9393L404.535 72.5081L406.094 71.4911L407.458 70.2833L408.172 68.9488L408.432 67.8684L408.952 67.1061L410.511 67.2969L412.071 68.758L415.318 71.1729L417.528 70.6647L420.19 68.8854L423.568 68.6313L423.373 67.1061L422.919 66.2798L420.71 65.4535L421.035 64.1831L423.894 63.0386L423.504 61.5134L424.088 57.4466L423.634 56.3021L422.399 55.7306L420.775 55.9213L419.606 56.5569L418.502 56.3662L416.942 56.6203L415.318 58.1455L413.564 57.9548L412.46 56.6203L412.525 55.5399L413.63 53.0108L415.189 51.3582L415.708 49.3248L414.539 42.7157L412.59 41.3179L412.525 38.8389L411.291 37.4411L410.706 35.2163L411.032 32.4839L413.37 25.1126L411.94 24.8578L409.342 25.3026L405.9 24.5404L404.47 23.9048L404.989 21.4266L405.64 19.7106L405.769 18.2487L405.12 16.5968L406.29 16.152V15.1349L404.73 12.0211L402.922 9.1621L403.246 8.30864L403.572 8.06221L403.547 7.71901L406.116 6.30934L407.145 5.94039L408.387 5.78516L409.622 5.97381L411.656 7.2359L414.015 7.92646L414.63 8.34275L417.116 9.22405L417.518 9.88677L417.376 10.7117L417.986 10.8662L419.021 11.8046L419.51 11.9724L419.881 13.2686L420.582 13.6821L421.007 14.248L423.289 14.1958L424.015 14.8056L424.71 16.3051L424.552 16.7096L424.826 17.0054L426.057 16.8752L426.481 17.3918L426.841 18.3267L426.869 19.1481L426.454 19.4906L426.446 19.7113L426.803 21.1968L426.743 22.0371L428.066 22.3615L429.051 23.3465L430.743 23.4516L430.991 22.8091L433.195 23.4133L433.797 23.3486L433.525 25.2177L433.762 25.8519L434.266 26.0531L434.708 27.0012L435.608 26.1951L436.266 26.3273L436.552 26.7332L436.261 27.4495L437.442 27.9452L438.147 28.6845L439.575 28.8446L439.997 28.5209L442.247 28.6295L442.657 29.2998L442.689 30.4039L443.001 30.626L443.911 30.7032L445.165 30.3419L445.872 29.6646L445.924 29.0826L446.594 28.1108L447.717 27.8588L448.426 27.9667L449.108 26.903L449.772 26.9922L450.75 26.7645L451.687 25.0639L451.471 24.5237L452.055 24.3608L452.251 24.0858L452.128 23.7663L453.358 23.5762L453.918 23.0764L454.15 23.0715L454.666 23.7795L454.692 24.8773L455.335 25.3221L459.31 25.2818L460.24 24.8209L460.922 25.0945L461.282 25.7892L462.178 25.8867L462.099 26.5237L463.639 26.6427L463.625 27.1272L465.166 28.3747L465.575 28.9288L466.692 28.7575L466.89 28.1944L466.718 27.6479L467.183 27.4725L468.064 27.8456L468.767 27.6966L469.228 27.2511L469.771 25.6486L471.154 25.0673L471.951 23.9869L471.995 23.0486L472.878 22.1645L472.651 20.1881L473.224 20.0566L473.609 19.5742L474.318 20.5049L475.104 20.1972L476.255 20.6768L476.784 20.3364L479.334 21.524L480.184 22.7374L480.983 22.4172L481.413 22.9358L482.402 23.0583L482.417 23.6284L481.728 26.2981L481.803 28.1324L482.932 28.9733L484.394 28.7193L485.724 29.556L486.318 30.5529L485.785 31.5059L485.891 31.6904L486.967 31.9062L488.356 32.9121L488.662 34.0412L489.47 34.9371L490.765 34.919L491.568 35.3569L491.648 36.4742L492.81 37.7439L492.834 38.9023L493.398 39.6047L494.793 39.1007L495.493 39.7752L497.889 40.3746L499.466 41.0213L500.236 41.6813L500.788 41.7516L501.536 41.4216L502.253 41.4487L502.447 41.7035L502.416 42.6941L502.881 43.9966L503.301 46.4512L503.026 47.4905L502.518 48.417L502.582 48.692Z" fill="#DEDEDE" fill-opacity="0.03" stroke="#F8AB5D" stroke-width="0.5"/>
<path d="M417.418 103.213L417.97 102.709L419.477 102.659L420.465 103.168L421.659 105.658L423.53 105.303L424.674 105.455L425.921 105.913L426.752 105.607L427.116 104.336L427.273 102.761L426.596 101.846L425.401 101.49L423.687 102.201L422.439 102.15L422.283 100.117L421.764 98.9476L420.673 97.9305L420.36 96.3037L421.14 95.643L422.075 95.9988L424.934 95.1857L426.805 95.1349L430.026 97.0158L431.118 97.9813L433.612 98.1846L435.587 98.6935L436.731 99.3541L437.666 98.7951L438.394 97.4732L439.121 95.5414L440.213 94.7283L441.304 92.6434L441.823 88.8815L441.459 85.831L441.72 82.6281L442.811 82.3741L443.227 83.3904L444.578 84.2042L446.189 83.4412L447.228 82.679L448.632 82.4757L449.774 83.5429L450.356 85.0173L451.344 85.2205L452.54 85.9327L453.682 85.7802L453.89 84.7632L453.319 83.7468L451.5 82.6281L452.227 81.916L453.527 82.3741L455.086 83.238L457.477 83.492L459.243 82.8314L459.763 81.9675L459.711 80.1367L461.166 79.5777L464.596 79.3744L465.428 77.8492L465.688 76.9338L466.675 76.6289L467.351 77.4426L467.87 79.0688L468.91 79.8826L470.728 79.781L472.547 79.1704L474.47 78.2557L476.393 78.0016L477.38 78.663L477.848 79.9842L477.796 83.1363L476.913 84.1025L476.652 85.3222L477.848 85.9835L479.563 86.2884L480.862 86.8989L481.85 88.6267L482.889 89.6438L484.241 90.1018L484.76 88.4234L483.876 87.153L485.903 84.4075L487.462 84.2042L488.502 82.9024L489.177 81.3772L490.424 81.1231L491.152 78.3274L492.919 75.3271L493.283 73.5993L492.191 71.9717V70.2432L492.607 68.8196L493.178 68.2098L492.607 67.4977L491.515 66.8371L491.464 64.2955L492.087 62.7194L495.621 59.7198L496.765 57.8897L497.232 55.3474L498.168 53.0084L497.388 51.4323L498.168 49.3481L502.582 48.6924L503.491 48.739L505.556 47.6182L506.964 48.0373L507.391 47.9398L507.953 46.8177L508.4 46.5984L508.74 47.0801L508.79 48.0359L509.161 48.8413L510.875 49.5681L510.439 51.0258L510.644 51.6098L510.886 51.763L511.32 51.669L511.713 51.1873L512.92 51.0056L513.088 52.079L512.868 52.7285L512.945 53.7853L511.571 55.4657L511.709 56.173L511.111 57.0801L510.225 57.5381L510.302 58.1806L509.237 60.9401L509.026 62.7034L508.305 63.1608L508.653 63.9384L510.765 65.561L511.211 67.4413L511.564 67.7191L511.643 68.3108L511.48 69.4838L510.799 70.5628L510.2 70.7375L509.802 71.1969L509.906 71.7434L508.815 73.971L508.931 74.2502L508.578 75.0807L507.816 75.5436L508.137 77.5693L508.048 77.8965L507.714 78.0678L507.564 79.1614L507.859 79.9724L508.577 79.4677L510.068 80.0385L510.505 80.9184L511.167 81.3208L511.419 82.0698L512.217 82.3072L512.783 82.2272L513.055 81.9926L513.262 81.5046L513.056 81.1767L513.398 80.4861L514.367 80.3316L514.855 80.4736L516.639 81.9264L516.541 82.2689L516.968 82.8634L516.54 83.0145L518.058 84.0483L518.275 84.0733L518.502 83.5965L519.127 83.7385L520.193 83.3069L520.197 85.2581L521.434 85.8213L523 86.9581L522.997 88.0364L520.101 92.0057L515.413 97.7857L507.814 103.688L502.339 110.629L501.52 110.631L500.311 112.052L499.69 112.338L497.974 112.64L497.154 112.251L496.642 112.927L496.488 113.612L495.852 113.562L495.746 113.177L495.31 113.032L494.802 113.201L494.449 113.754L493.752 114.115L493.871 115.034L493.548 115.362L493.314 117.21L491.561 120.675L489.899 120.733L487.938 121.231L486.962 121.8L486.481 122.593L485.722 122.921L484.89 122.667L484.162 121.752L483.356 119.719L482.603 119.566L481.772 119.896L480.083 121.294L478.483 120.727L477.476 120.926L475.98 120.852L475.676 121.457L474.937 121.32L474.47 121.726L473.872 121.752L472.989 121.548L471.742 122.108L471.144 122.743L469.198 126.096L468.371 126.732L467.321 128.152L464.359 126.779L463.346 126.957L461.59 128.406L460.29 129.092L458.783 129.041L455.795 129.346L452.729 129.092L451.066 129.245L449.974 129.6L448.883 130.338L447.766 130.541L445.412 128.66L444.659 127.694L442.995 126.372L440.683 125.66L437.331 125.966L433.251 127.313L432.261 126.369L431.546 125.034L431.026 123.445V122.047L431.936 120.967L432.066 119.632L430.702 119.696L429.922 119.06L430.376 116.328L426.739 116.01L425.634 115.502L426.479 110.863L426.219 109.719L425.375 108.893L424.335 108.574L423.231 108.448L420.892 108.574L418.879 105.842L418.229 104.38L417.418 103.213Z" fill="#DEDEDE" fill-opacity="0.03" stroke="#F8AB5D" stroke-width="0.5"/>
<path d="M205.773 313.878L206.184 319.605L212.225 326.66L213.2 328.948L213.388 330.605L201.533 330.627L201.63 331.451L202.053 332.178L201.244 333L200.215 335.401L200.474 336.238L199.986 339.034L200.184 340.493L200.91 342.01L201.56 342.879L200.659 343.741L199.951 344.098L200.169 344.914L199.616 345.82L197.085 345.87L197.053 346.097L196.746 346.251L196.993 347.161L197.545 348.075L197.857 349.412L197.629 349.762L197.24 351.605L196.554 352.388L196.418 355.091L196.865 357.306L181.21 357.433L180.606 356.46L180.75 356.293L180.645 355.33L173.889 355.297L173.983 356.361L173.752 357.433H170.028L170.23 357.787L169.607 358.166L167.655 357.804L167.749 357.268L167.373 357.116L166.482 357.269L165.27 357.15L163.527 357.662L163.034 358.365L162.024 358.511L161.731 359.257L162.168 359.776L162.083 360.09L159.34 360.051L158.847 360.457L157.697 359.643L156.194 359.552L154.564 359.887L153.786 360.408L151.718 360.031L150.737 360.156L148.716 360.88L147.323 360.852L146.477 360.166L146.446 359.914L145.824 359.655L145.803 359.279L146.145 358.681L146.565 358.611L145.881 357.787L145.23 357.433L145.342 356.119L144.529 355.931L144.099 355.485L144.444 354.307L143.618 353.935L143.803 353.208L143.022 353.188L142.578 352.629L142.624 351.866L141.413 351.485L140.794 350.959L141.058 349.843L140.685 349.414L139.96 349.11L140.24 347.477L138.499 346.599L138.036 346.122L137.419 344.913L137.618 344.357L137.472 344.014L136.279 343.362L136.377 342.801L137.15 342.546L137.072 342.213L136.404 342.026L135.974 341.498L135.643 342.017L135.02 341.958L135.198 340.401L135.005 339.91L134.098 339.818L133.245 339.241L132.844 338.615L132.159 338.674L132.116 337.69L131.697 336.819L130.744 336.085L130.773 335.691L131.199 335.197L130.743 334.725L130.664 334.019L130.047 332.625L130.341 332.267L130.714 332.726L131.134 332.633L131.213 331.82L131.537 331.266L131.268 330.27L130.644 330.126L130.334 329.733L130.562 328.78L130.283 328.37L130.309 327.163L129.697 326.705L129.151 326.843L128.627 326.544L128.502 325.432L127.547 324.523L127.384 323.029L126.57 322.592L126.373 322.151L125.902 319.782L125.211 319.385L125.152 319.03L125.529 318.029L124.554 317.291L124.752 316.572L124.113 315.832L124.695 315.276L124.171 314.799L123.63 314.869L123.468 313.554L123.536 313.406L124.241 313.564L124.416 313.422L124.489 312.96L124.068 311.679L124.315 310.842L124.093 310.203L124.653 309.09L124.398 308.341L123.528 307.638L122.32 307.312L122.386 306.574L121.26 306.198L121.049 305.48L121.286 304.994L120.781 303.019L121.093 302.366L121.068 301.734L118.662 300.662L116.795 301.136L115.732 300.927L115.182 300.373L107.214 300.533L107.769 299.451L109.763 298.123L110.963 295.283L111.177 293.445L110.72 288.115L111.83 283.017L111.51 280.632L111.549 279.21L112.256 277.299L112.224 274.878L111.732 271.753L113.44 269.599L116.413 264.417L116.733 264.122L118.138 264.085L119.792 264.734L120.832 265.396L121.663 265.091L121.767 262.396L122.703 261.532L125.302 260.921L127.068 261.023L129.407 260.82L130.55 261.278L131.85 263.718L132.941 264.582L134.188 264.836L136.683 264.887L137.981 262.447L141.973 260.464L143.428 259.396L144.623 258.125L145.975 257.414H147.742L148.936 257.77L149.456 259.244L150.184 260.006L152.938 258.939L154.03 258.736L154.341 259.651L153.873 260.668L152.575 261.583L151.067 262.243L150.444 263.311L150.808 264.328L150.704 265.446L150.028 266.107L148.989 267.785L146.754 271.954L146.234 273.632L146.39 275.716L146.13 278.055L146.702 280.444L146.546 282.172L145.871 283.606L145.039 284.776V288.538L145.299 290.419L146.338 292.504L146.806 296.113L148.469 296.824L152.003 296.774L153.198 296.621L154.238 295.655L155.225 295.097L156.316 294.74L157.096 294.944L158.135 296.164L159.434 296.672L160.422 296.469L161.617 297.079L162.708 299.468L162.864 300.943L163.8 300.994L164.527 299.621L165.982 299.825L167.334 300.435L168.373 300.231L170.348 298.909L171.179 299.214L173.413 300.994L174.609 301.553L174.349 303.688L175.181 304.095L176.324 303.891L177.571 303.993L178.767 304.451L178.57 306.79L178.985 307.501L180.96 307.653L181.843 307.298L182.779 307.806L183.09 310.246L184.182 310.958L184.857 311.924L186.416 312.077L187.82 311.466L189.846 309.738L190.938 309.331L191.925 308.467L192.445 307.4L193.899 307.349L195.823 307.552L196.602 307.908L196.655 308.975L195.147 310.856L194.731 311.721L194.887 312.941L196.083 315.076L197.538 314.467L198.214 313.144L199.408 312.331L200.708 312.586L203.514 313.958L204.709 313.704L205.773 313.878Z" fill="#DEDEDE" fill-opacity="0.03" stroke="#F8AB5D" stroke-width="0.5"/>
<path d="M102.006 249.246L103.584 250.199L107.858 249.91L109.225 250.073L110.327 250.472L113.401 252.329L115.457 253.223L117.357 256.204L118.531 256.826L119.17 257.573L119.526 258.335V258.808L119.261 259.119L119.693 259.993V260.318L119.3 260.865L119.489 261.227L119.057 261.539L118.736 262.908L118.138 263.61V264.085L116.733 264.121L116.413 264.417L113.44 269.599L111.732 271.752L112.224 274.878L112.256 277.298L104.746 277.225L101.731 274.789L101.564 275.115L101.474 277.062L100.851 277.921L99.446 278.084L97.0707 277.425L94.7481 275.774L94.1461 274.826L94.4663 274.203L96.1364 273.974L97.0166 273.352L97.3283 271.072L97.951 269.562L97.7844 268.636L97.4429 268.362L95.4995 267.711L95.2562 267.378L96.1528 265.816L96.0382 265.216L95.385 265.069L93.4551 265.327L90.8287 264.595L89.4866 264.78L88.8853 265.142L88.3986 265.727L88.5438 267L88.1204 267.911L87.1391 268.222L86.1685 267.8L84.2002 265.927L81.4457 261.875L82.2249 261.092L82.6568 259.84L83.6004 259.296L84.6201 259.003L85.6049 258.084L87.5112 258.289L88.2022 258.567L89.0597 258.341L90.0217 257.761L91.1197 255.935L91.0108 254.556L91.4051 253.42L92.1629 252.264L92.6923 251.833L96.8565 250.426L100.756 249.864L102.006 249.246Z" fill="#DEDEDE" fill-opacity="0.03" stroke="#F8AB5D" stroke-width="0.5"/>
<path d="M323.59 299.626L323.372 301.433L323.616 303.022V305.008L327.189 306.12L327.839 307.55L327.351 308.9L326.296 310.012L324.428 310.092L323.535 310.728L323.616 311.998L325.646 313.984V315.255H323.859L322.398 315.573L319.475 314.62L318.582 314.779L317.688 315.732L317.201 318.751L316.633 320.419L316.551 323.517L315.415 324.391L314.522 324.231L312.004 324.947L310.786 324.629L307.701 321.054L307.782 320.181L308.187 319.227L307.376 318.671H306.077L304.534 319.227L303.397 320.021L302.179 320.577L301.042 320.895L300.392 320.021L300.555 318.989L300.23 317.798L299.148 317.896L299.717 316.228L299.798 314.639L297.849 313.051L298.012 309.714L296.307 308.443L295.088 305.027L295.007 303.2L295.413 301.055L294.683 300.023L295.251 299.07L297.768 297.798L299.961 297.083L301.828 297.322L305.807 297.242L309.542 297.56H312.465L315.389 298.434L316.445 297.798L318.068 298.195L319.449 298.99L321.641 298.91L323.59 299.626Z" fill="#DEDEDE" fill-opacity="0.03" stroke="#F8AB5D" stroke-width="0.5"/>
<path d="M241.984 210.338L242.861 211.053L244.371 211.196L247.1 211.148L250.657 210.386L252.069 210.29L252.654 210.004L252.605 206.048L253.239 205.953L261.278 210.576L263.188 211.529L264.299 211.527L265.323 212.67L268.294 214.625L268.782 215.759L271.802 220.191L273.313 221.478L274.092 222.528L273.654 223.575L272.485 224.672L271.607 226.054L271.413 228.58L270.633 230.344L269.659 231.487L268.343 234.729L266.784 237.493L266.882 239.256L267.808 240.114L269.367 239.924L270.438 239.495L271.657 239.638L272.582 240.639L272.923 242.45L272.338 246.005L271.462 247.054L268.246 249.295L268.489 250.057L269.61 250.534L270.731 250.724L271.851 251.344L273.411 251.629L274.726 251.105L276.139 251.058L277.308 251.535L278.38 252.535L279.062 253.774L283.301 256.491L283.447 259.828L282.959 262.211L281.205 264.832L280.426 266.405L279.452 267.74L278.331 267.93L277.065 267.883L276.139 268.216L275.261 269.36L274.628 270.933L272.972 273.411L271.364 274.126L270.727 274.989L272.027 276.006L272.234 277.023L272.182 278.192L271.507 279.565L270.831 280.378L269.792 280.734L268.804 279.971L265.947 279.615L265.271 278.65L264.439 278.751L263.4 279.87L262.464 279.819L261.737 279.31L260.593 279.412L259.866 280.277L259.086 284.089L258.567 285.106L259.918 288.461L260.697 289.478L262.36 290.088L263.348 289.885L264.439 289.224L265.271 289.478L265.53 290.495L267.505 292.834L267.713 294.715L267.557 296.596L266.934 297.969L265.115 300.51L264.179 301.019L263.14 300.714L261.945 298.833L261.061 298.528L257.892 303.358L257.423 305.392L257.164 308.238L257.995 311.686L258.359 314.787L257.943 316.668L257.008 317.481L256.488 318.447V319.819L257.787 319.871L258.619 320.125L260.022 320.888L260.801 322.056L260.438 323.175L259.451 323.48L258.307 322.92L257.319 323.683L257.164 324.344L256.488 324.954L254.773 325.513L253.734 326.073L253.058 327.293L253.317 327.903L255.708 329.632L259.762 333.648L262.668 338.241L228.807 338.175L228.657 336.512L228.86 334.498L229.078 333.657L229.724 332.504L230.114 330.803L230.905 329.988L231.143 328.324L222.666 328.313L222.248 330.589L213.387 330.605L213.2 328.948L212.225 326.66L206.183 319.605L205.403 308.738L210.861 304.163L213.638 303.972L214.905 302.447L215.684 300.255L217.243 300.159L217.34 298.253L218.939 297.271L218.676 296.179L219.04 295.315V294.348L218.571 293.637L218 290.689L218.156 288.553L218.936 284.485L219.092 282.401L218.571 278.945L216.597 274.572L215.558 269.844V268.014L215.921 266.742L217.325 264.486L217.169 263.265L216.545 261.994L215.454 260.469L215.193 258.537L216.796 258.791L218.063 259.221L220.791 260.984L221.034 261.556L223.763 261.651L224.932 259.458L225.809 258.934L228.245 258.553L230.438 256.932L231.509 255.741L232.045 254.358L232.143 250.784L231.558 245.97L231.461 234.264L231.802 230.785L233.848 223.969L235.358 220.871L237.356 217.964L239.402 212.959L241.107 210.671L241.984 210.338Z" fill="#DEDEDE" fill-opacity="0.03" stroke="#F8AB5D" stroke-width="0.5"/>
<path d="M215.193 258.537L215.454 260.469L216.545 261.994L217.169 263.265L217.325 264.486L215.921 266.742L215.558 268.014V269.844L216.597 274.572L218.571 278.945L219.091 282.401L218.936 284.485L218.156 288.553L218 290.689L218.571 293.637L219.039 294.348V295.315L218.676 296.179L218.938 297.271L217.34 298.253L217.243 300.159L215.684 300.255L214.904 302.447L213.638 303.972L210.861 304.163L205.403 308.738L205.773 313.878L204.709 313.704L203.514 313.958L200.708 312.586L199.408 312.331L198.213 313.144L197.537 314.467L196.082 315.076L194.887 312.941L194.731 311.721L195.147 310.856L196.654 308.975L196.602 307.908L195.823 307.552L193.899 307.349L192.445 307.4L191.925 308.467L190.937 309.331L189.846 309.738L187.819 311.466L186.416 312.077L184.857 311.924L184.182 310.958L183.09 310.246L182.778 307.806L181.843 307.298L180.96 307.653L178.985 307.501L178.569 306.79L178.766 304.451L177.571 303.993L176.324 303.891L175.181 304.095L174.349 303.688L174.609 301.553L173.413 300.994L171.179 299.214L170.348 298.909L168.372 300.231L167.333 300.435L165.982 299.825L164.527 299.621L163.8 300.994L162.864 300.943L162.708 299.468L161.617 297.079L160.422 296.469L159.434 296.672L158.135 296.164L157.096 294.943L156.316 294.74L155.224 295.097L154.237 295.655L153.198 296.621L152.003 296.774L148.469 296.824L146.806 296.113L146.338 292.504L145.298 290.419L145.039 288.538V284.776L145.871 283.606L146.546 282.172L146.702 280.444L146.13 278.055L146.39 275.716L146.234 273.632L146.754 271.954L148.989 267.785L150.028 266.107L150.704 265.446L150.808 264.328L150.444 263.311L151.067 262.243L152.574 261.583L153.873 260.668L154.341 259.651L154.03 258.736L152.938 258.939L150.183 260.006L149.456 259.244L148.936 257.77L147.741 257.414H145.974L144.623 258.125L143.428 259.396L141.972 260.464L137.981 262.447L136.682 264.887L134.188 264.836L132.94 264.582L131.849 263.718L130.55 261.278L129.407 260.82L127.068 261.023L125.301 260.921L122.703 261.532L121.767 262.396L121.663 265.091L120.832 265.396L119.792 264.734L118.138 264.085V263.611L118.736 262.908L119.056 261.54L119.488 261.228L119.3 260.866L119.693 260.318V259.993L119.261 259.119L119.526 258.809V258.335L123.116 255.182L125.454 254.115L126.494 253.352L128.209 252.945L130.391 250.861L131.639 250.708L132.938 251.419L135.588 251.572L136.732 250.607L137.906 248.807L138.27 246.824L139.933 243.672L140.712 242.706L140.92 241.384L139.569 237.723L140.608 236.656L141.284 235.639L141.596 234.571L141.856 232.995L141.596 229.589L144.038 229.843L145.806 230.809L146.897 231.979L148.923 232.589L150.43 232.792L151.418 233.199L153.652 234.367L155.263 235.487L157.186 235.384L158.434 234.775L160.2 234.521L161.604 234.724L163.578 235.639L165.346 234.978L166.956 235.283L168.256 236.859L169.763 237.876L173.921 239.808L180.521 241.333L185.041 242.807L188.949 244.505L192.588 245.675L197.888 248.623L201.682 251.013L203.864 251.979L210.621 254.012L212.128 254.877L214.154 256.91L215.193 258.537Z" fill="#DEDEDE" fill-opacity="0.03" stroke="#F8AB5D" stroke-width="0.5"/>
<path d="M301.003 351.96L300.529 353.309L301.422 355.851L302.559 356.645L307.35 356.883L308.974 357.281L310.436 357.043L311.572 356.328L312.546 356.407L314.171 357.201L314.982 358.869L315.795 362.523L315.063 367.766L314.577 369.355L314.414 371.579L314.495 372.723L315.307 375.504V377.807L316.769 378.522H318.961L321.722 378.84L322.941 379.317L324.239 380.111L325.863 382.892L330.086 383.685L331.385 385.195L331.954 387.102L333.172 388.373L335.851 390.438L337.475 390.835L338.936 392.027L338.45 392.662L337.231 392.98L336.014 392.901L332.522 392.185L330.898 392.662L329.679 393.297L327.974 393.615L327.487 394.807L327.731 397.269L327.081 398.699L326.837 400.05L327 402.115L326.188 403.545L324.077 406.246L324.239 407.675L325.62 408.63L326.351 409.9L325.944 410.774L327 411.727L328.624 411.489L330.816 411.727L332.116 411.489L333.577 411.568V412.68L334.633 413.633L335.283 412.363L336.175 411.171L337.638 412.363L338.206 413.633L339.586 413.872L342.753 411.647L345.189 413.237L347.056 412.839L348.356 414.348L349.656 414.666L350.954 414.19L352.335 412.919L351.929 411.409L352.578 410.774L354.121 410.376L360.78 407.358L365.083 406.166L365.57 405.213L364.433 401.559L364.028 399.017L364.758 397.905L366.383 397.666L368.25 397.984L370.686 400.447L372.797 401.718L376.695 402.989L379.05 403.068L379.862 404.181L383.678 403.784L385.546 402.989L387.154 401.89L387.232 402.958L386.881 403.911L385.361 406.466V407.496L385.946 408.296H387.232L388.441 408.029L392.922 409.09L394.442 409.7L399.237 410.5L402.861 410.538L405.512 409.737L406.681 410.157L407.656 410.996L408.045 412.216L407.578 413.131L405.239 416.373V417.554L406.253 418.774L409.292 421.367L410.033 422.282L409.916 424.151L409.448 424.875L407.773 426.095L405.746 426.705L403.875 426.972L403.173 426.82L401.848 424.494L400.523 423.922L393.858 423.77L390.818 424.531L390.662 425.256L391.247 426.095L393.157 427.773L392.533 429.374L393.702 430.061L394.404 430.861L394.56 431.586L393.468 434.293L392.806 435.437L391.207 435.894L389.493 436.123L388.051 438.144L387.544 439.746L386.725 440.547L384.933 437.153L384.465 435.742L383.491 435.323L382.36 435.628L380.918 437.458L379.826 437.496L377.41 436.962H376.241L375.383 437.839L375.11 438.846L372.577 441.896L372.421 442.583L373.045 445.366L371.447 447.273L371.408 448.684L371.875 450.628L370.394 452.115L369.342 454.784L367.744 456.118V456.652L368.484 457.377L368.561 458.109L366.884 458.196L366.44 458.879L364.253 459.518L363.882 459.17L364.198 458.394L364.169 457.546L363.707 456.874L362.34 456.56L359.861 455.227L359.57 454.086L358.995 453.57L359.138 452.684L358.568 452.237L359.587 451.76L358.973 450.964L358.923 449.505L358.262 448.266L358.313 448.011L359.166 447.678L359.189 447.104L358.736 446.613L358.811 446.407L359.441 446.262L359.822 445.905L359.399 445.172L360.273 443.544L358.961 443.423L356.831 444.4L354.41 444.681L352.584 445.14L350.265 445.021L349.558 445.265L348.756 445.179L348.088 445.548L347.201 445.337L346.642 446.174L345.139 446.481L344.464 446.352L343.502 446.526L343.35 447.144L342.432 447.275L341.528 447.937L340.663 449.179L339.688 449.578L339.504 450.389L339.274 450.601L338.375 450.333L337.618 450.758L336.215 450.72L335.501 451.125L335.271 450.907L335.233 450.327L333.786 449.324L332.046 449.279L331.218 448.781L331.409 448.381L332.881 448.164L334.073 445.983L334.283 443.509L333.895 442.998L334.022 441.311L333.794 440.744L332.081 439.666L331.063 439.392L330.268 439.466L328.435 439.029L327.816 439.459L327.194 439.228L326.907 438.884L327.316 437.622L326.649 436.749L326.892 436.127L326.739 435.816L326.536 435.661L325.912 435.684L324.927 435.248L323.597 435.134L322.771 435.45L322.246 436.575L321.813 437.023L320.31 437.923L319.837 438.712L319.282 438.991L318.284 438.995L316.37 438.032L315.344 438.453L314.365 438.462L313.189 437.986L311.991 438.058L310.766 437.145L309.814 436.788L307.899 436.569L303.893 439.081L301.548 441.007L300.155 440.765L298.292 441.596L296.385 440.952L294.865 440.901L293.364 440.445L292.368 439.916L291.436 440.434L290.824 440.492L290.349 441.255L288.433 441.219L286.527 440.478L284.665 439.216L284.03 439.068L282.608 439.388L282.262 439.635L282.029 440.094L282.272 440.893L282.191 441.503L280.608 442.973L278.265 443.019L277.806 443.851L276.855 444.847L276.593 445.037L276.096 444.904L275.744 444.389L276.043 443.525L275.872 442.734L274.701 441.068L274.678 439.2L274.317 438.188L274.297 436.756L273.638 435.737L273.428 434.852L273.606 434.237L274.995 433.172L276.907 432.62L277.623 432.085L277.792 431.688L277.249 429.483L277.315 425.903L276.253 425.162L277.487 422.568L277.627 421.619L277.05 420.068L276.375 419.367L276.322 418.261L275.119 416.875L274.75 415.506L274.814 413.137L274.082 411.196L273.894 409.253L272.222 408.371L270.662 407.921L269.884 406.814L269.002 406.255L267.019 403.474L266.867 402.779L265.273 401.873L265.061 399.517L264.015 397.675L264.15 396.804L263.004 395.604L263.26 395.174L263.614 393.37L264.852 390.777L264.864 388.923L264.369 386.475L265.009 382.323L265.068 380.748L266.053 378.014L266.549 373.538L267.089 371.674L267.564 370.772L266.458 367L266.919 366.14L265.825 365.243L265.326 362.725L263.579 358.939L262.869 358.267L261.708 355.502L262.397 354.581L262.219 352.902L262.324 351.464L263.31 349.495L264.758 349.292L267.356 350.166L269.468 349.609L270.848 351.754L271.579 353.423L272.797 354.615L274.664 354.853L278.237 353.899L279.374 353.343L282.216 353.502L283.272 352.707L283.759 351.596L285.465 351.357L286.601 352.47L286.763 354.853L288.875 353.502L290.417 353.185L292.122 353.899L293.178 354.615L295.209 354.932L297.076 354.615L300.081 352.072L301.003 351.96Z" fill="#DEDEDE" fill-opacity="0.03" stroke="#F8AB5D" stroke-width="0.5"/>
<path d="M312.466 297.56H309.542L305.807 297.242L301.828 297.321L299.961 297.083L297.768 297.798L295.251 299.069L294.683 300.022L295.413 301.055L295.008 303.199L295.089 305.027L296.307 308.443L298.012 309.714L297.85 313.05L299.798 314.639L299.717 316.228L299.148 317.895L298.174 319.882L297.85 321.947L297.037 324.727L298.012 327.11L298.987 327.666L300.448 327.349L301.26 328.54L303.777 329.716L302.965 330.828L302.316 333.211L302.072 335.038L302.397 337.501L302.965 339.487L302.883 342.108L302.072 346.238L301.909 348.701L301.422 350.766L301.003 351.959L300.081 352.072L297.076 354.614L295.209 354.932L293.179 354.614L292.123 353.899L290.418 353.185L288.875 353.502L286.764 354.852L286.601 352.47L285.465 351.357L283.759 351.596L283.272 352.707L282.217 353.502L279.375 353.343L278.238 353.899L274.665 354.852L272.797 354.614L271.579 353.423L270.848 351.754L269.468 349.609L267.357 350.165L264.759 349.292L263.31 349.494L263.908 347.966L263.969 347.302L264.522 346.706L264.655 345.47L264.192 344.565L264.754 343.36L264.72 342.488L263.738 339.41L262.847 338.749L262.668 338.241L259.763 333.648L255.709 329.632L253.318 327.903L253.059 327.293L253.734 326.073L254.773 325.513L256.489 324.954L257.164 324.344L257.32 323.683L258.307 322.92L259.451 323.48L260.438 323.175L260.802 322.056L260.022 320.887L258.619 320.124L257.787 319.87L256.489 319.819V318.447L257.008 317.481L257.943 316.667L258.359 314.787L257.996 311.685L257.164 308.238L257.424 305.391L257.892 303.357L261.061 298.528L261.945 298.833L263.14 300.713L264.179 301.018L265.115 300.51L266.934 297.969L267.557 296.596L267.713 294.715L267.505 292.834L265.531 290.495L265.271 289.478L264.439 289.224L263.348 289.884L262.361 290.088L260.698 289.478L259.918 288.461L258.567 285.106L259.087 284.089L259.866 280.276L260.594 279.412L261.737 279.31L262.464 279.818L263.4 279.87L264.439 278.75L265.271 278.65L265.947 279.615L268.805 279.971L269.792 280.734L270.831 280.378L271.507 279.564L272.183 278.191L272.235 277.023L272.027 276.006L270.727 274.989L271.364 274.126L272.972 273.411L274.628 270.933L275.262 269.36L276.139 268.216L277.065 267.882L278.331 267.93L279.452 267.74L280.426 266.405L281.206 264.832L282.96 262.21L283.447 259.828L283.301 256.491L286.999 258.661L288.428 259.932L289.858 261.902L292.846 265.016L294.405 265.08L296.288 264.825L297.978 265.016L298.822 265.588L300.706 270.1L300.835 272.07L299.081 273.087L294.794 274.93L294.6 275.502L294.99 276.074L294.664 276.9L293.626 277.599L293.82 278.425L294.86 279.632L296.743 280.904L299.017 283.573L299.732 284.907L300.576 285.733L302.135 285.797L303.434 285.098L305.513 284.717L307.007 284.78L309.606 286.56L313.438 286.687L314.737 287.068L315.647 288.402L316.362 291.009L315.582 292.978L312.466 297.56Z" fill="#DEDEDE" fill-opacity="0.03" stroke="#F8AB5D" stroke-width="0.5"/>
<path d="M381.2 312.625L379.066 311.493L378.774 310.35L377.702 310.254L377.118 311.303L376.241 311.017L375.168 308.729L373.22 308.634L371.368 310.445L368.153 311.97L364.255 312.827L361.04 312.351L359.87 312.733L359.188 313.495L358.604 316.355L359.188 317.404L362.989 320.073L363.476 321.502L362.989 323.314L362.112 324.553L360.065 325.697L357.824 324.076L356.362 322.646L353.147 322.551L350.418 323.218L348.47 323.981L346.424 325.887L344.962 328.08L342.818 329.891L340.479 331.225L337.557 331.893L335.607 332.846L330.93 332.56L328.494 333.704L323.817 339.71L322.551 341.711L321.576 343.713L321.186 346.573L321.088 349.337L322.356 352.579L321.576 354.103L318.946 355.438L318.068 354.199L316.509 353.436L315.729 354.389L315.535 355.819L314.171 357.202L312.546 356.407L311.572 356.328L310.436 357.043L308.973 357.281L307.35 356.883L302.559 356.645L301.422 355.851L300.529 353.31L301.422 350.767L301.909 348.702L302.072 346.239L302.883 342.109L302.965 339.487L302.396 337.501L302.072 335.039L302.315 333.211L302.965 330.829L303.777 329.716L301.259 328.54L300.447 327.349L298.986 327.667L298.011 327.111L297.037 324.728L297.849 321.947L298.174 319.882L299.148 317.896L300.23 317.798L300.555 318.989L300.392 320.021L301.041 320.896L302.179 320.577L303.397 320.021L304.534 319.228L306.077 318.671H307.376L308.187 319.228L307.782 320.181L307.7 321.054L310.786 324.63L312.004 324.947L314.522 324.231L315.415 324.391L316.551 323.517L316.633 320.419L317.201 318.751L317.688 315.732L318.581 314.779L319.474 314.621L322.398 315.574L323.859 315.255H325.646V313.984L323.616 311.998L323.535 310.728L324.428 310.092L326.296 310.012L327.351 308.9L327.838 307.55L327.189 306.12L323.616 305.008V303.022L323.372 301.433L323.59 299.626L325.376 299.228L327.325 299.07L328.055 298.195L328.218 296.765L327.974 295.416L325.701 294.145L324.808 291.84L324.32 289.934L324.97 288.583L327 287.948H329.03L330.898 288.822L333.415 288.504L334.39 287.869L335.039 287.074L336.175 288.186L337.231 288.266L338.125 287.551L338.693 285.803L338.45 284.055L337.881 282.864L338.206 281.593L338.855 280.878L339.099 279.448L343.646 276.668L346.407 275.873V274.285L346.895 273.808L350.305 273.57L351.166 275.159L351.41 276.509L351.978 277.382L352.871 277.621H354.332L357.58 278.098L363.346 277.621L385.021 277.833L384.813 278.849L383.929 279.917L383.254 281.137L382.474 284.289L381.746 286.119L381.435 288.356L381.538 290.106L382.266 292.241L382.318 293.41L381.383 294.58L381.123 295.952L381.643 297.426L382.942 298.341L383.046 300.323L383.825 304.29L383.878 306.221L383.098 309.679L381.903 310.949L381.279 312.272L381.2 312.625Z" fill="#DEDEDE" fill-opacity="0.03" stroke="#F8AB5D" stroke-width="0.5"/>
<path d="M241.984 210.338L241.107 210.671L239.403 212.959L237.356 217.964L235.359 220.871L233.848 223.969L231.802 230.785L231.461 234.264L231.558 245.97L232.143 250.784L232.045 254.358L231.51 255.741L230.438 256.932L228.246 258.553L225.809 258.934L224.932 259.458L223.763 261.651L221.034 261.556L220.791 260.984L218.063 259.221L216.796 258.791L215.194 258.537L214.155 256.91L212.128 254.877L210.621 254.012L203.864 251.979L201.682 251.013L197.888 248.623L192.588 245.675L188.95 244.505L185.042 242.807L180.521 241.333L173.921 239.808L169.763 237.876L168.256 236.859L166.956 235.283L165.346 234.978L163.579 235.639L161.604 234.724L160.201 234.521L158.434 234.775L157.186 235.384L155.264 235.487L153.653 234.367L151.418 233.199L150.431 232.792L148.923 232.589L146.897 231.979L145.806 230.809L144.038 229.843L141.596 229.589L141.856 232.995L141.596 234.571L141.285 235.639L140.609 236.656L139.569 237.723L140.92 241.384L140.712 242.706L139.933 243.672L138.27 246.824L137.907 248.807L136.732 250.607L135.588 251.572L132.938 251.419L131.639 250.708L130.392 250.861L128.209 252.945L126.494 253.352L125.455 254.115L123.116 255.182L119.526 258.335L119.171 257.573L118.532 256.826L117.357 256.204L115.457 253.224L113.401 252.329L110.327 250.472L109.225 250.073L107.858 249.911L103.584 250.199L102.006 249.247L102.49 248.647L103.138 246.352L104.705 243.623L106.267 240.172L107.763 238.24L108.297 236.657L109.791 234.493L110.755 231.854L109.851 231.085L109.709 230.636L109.943 229.264L109.55 226.69L110.017 224.398L109.575 222.051L109.603 220.649L110.264 218.468L110.327 216.7L111.042 215.165L111.165 213.996L109.714 207.566L109.911 203.371L111.292 200.647L114.495 198.408L116.617 196.231L119.239 192.95L120.599 196.249L121.28 197.344L122.986 198.155L125.276 198.203L129.758 197.535L130.294 196.725L130.44 195.057L129.953 193.913L126.493 192.673L126.445 191.911L127.566 191.387L130.927 191.577L132.778 192.006H134.484L136.481 191.148L137.553 190.434L138.528 189.347L144.472 184.819L148.759 182.865L151.282 182.34L157.08 180.291L159.663 178.861L162.781 175.715L163.219 174.333L163.998 173.427L165.217 172.856L166.727 173.142L168.871 174.381L170.332 175.572L173.548 177.574L175.35 177.717L176.617 177.383L180.174 177.288L180.272 176.335L179.346 175.381L179.638 174.381H180.563L181.489 175.096L183.195 175.668L183.224 174.476L182.542 172.951L180.934 171.521L179.618 169.281L180.252 167.088L181.665 166.087L184.881 165.896L186.488 166.087L188.047 165.182L188.729 164.277L189.363 164.181L190.97 165.992L191.847 167.612L192.384 170.091L192.432 171.712L193.406 172.427L194.478 172.856L195.258 173.904L196.086 175.668L196.671 178.146L197.499 180.052L198.473 181.626L199.808 185.067L200.734 189.833L200.783 191.93L202.05 192.55L203.122 191.93L205.167 189.833L205.85 187.784L206.483 186.687L207.311 186.354L209.845 189.118L211.452 193.741L213.109 194.695L217.153 195.266L220.612 197.84L225.192 200.557L226.897 199.985L229.04 198.507L230.308 198.174L231.672 197.22H233.084L236.397 201.463L238.736 203.703L242.097 208.755L241.984 210.338Z" fill="#DEDEDE" fill-opacity="0.03" stroke="#F8AB5D" stroke-width="0.5"/>
<path d="M350.305 273.571L349.905 272.588L347.566 269.919L346.738 267.535L348.102 266.296L349.954 263.865L350.539 262.292L350.587 260.481L351.22 256.811L350.051 253.303L348.931 251.635L343.717 245.01L344.156 243.532L345.033 242.15L344.692 238.766L345.471 236.336L347.322 235.191L348.492 233.38L350.1 231.522L351.269 228.852L351.172 227.232L351.464 225.754L351.435 224.618L351.98 222.407L353.15 220.5L353.695 218.86L353.734 217.221L353.15 214.438L350.85 212.111L351.532 211.33L351.385 208.898L349.779 207.707L347.537 207.564L344.906 207.803L343.201 207.326L341.983 205.944L342.178 203.656L341.934 202.236L340.813 199.709L340.034 198.708L339.778 197.443H339.83L349.249 197.125L352.526 197.255L354.201 196.91L355.565 197.292L356.345 198.245L356.247 199.198L359.122 199.826L361.509 199.77L364.335 196.529L366.089 195.957L369.054 194.105L369.797 194.201L371.277 193.567L372.873 193.669L373.564 192.437L373.676 189.691L374.184 187.609V186.207L373.882 184.481L374.072 183.573L374.108 181.187L375.043 182.097L375.362 182.717L376.204 183.189L376.167 183.698L377.95 183.882L378.415 183.551L378.552 182.879L378.997 182.407L378.582 181.514L378.62 181.189L379.894 180.584L380.085 179.389L379.431 177.504L380.885 174.301L380.262 173.234L379.898 172.065V170.895L380.781 169.98L382.409 169.56L384.783 168.048L384.886 166.676L384.316 164.997L384.368 162.405L384.419 161.337L385.303 158.592L385.094 157.474L383.12 156.05L381.873 155.491L381.353 154.423L382.184 153L382.288 151.728L379.431 148.729L378.651 145.526L379.378 144.51L380.73 144.459L382.548 145.476L386.47 149.374L387.123 150.901L387.555 150.813L387.82 151.307L388.511 151.905L389.506 152.214L389.929 153.432L390.72 154.125L393.516 153.978L394.691 153.307L395.404 152.539L397.522 152.251L399.354 150.989L400.628 151.16L400.948 150.739L400.613 149.957L400.969 149.573L402.185 150.393L402.838 150.252L403.886 151.086L405.236 151.211L405.777 151.779L406.755 152.266L407.113 152.686L407.012 153.247L407.294 153.705L408.416 154.413L408.926 155.217L410.218 155.763L413.156 156.073L414.019 156.324L414.596 156.693L415.121 157.438L415.517 157.6L416.534 157.615L417.636 157.054L418.286 156.98L418.714 158.334L419.285 158.741L420.377 158.843L423.443 159.91L425.262 160.317L426.527 160.039L428.061 160.405L427.177 164.737L426.348 167.263L425.618 168.264L424.303 169.122L421.526 169.217L419.82 168.741L417.969 168.693L414.266 169.789L413.243 170.695L412.805 172.363L413.291 174.222L414.12 175.27L413.779 176.223L412.756 176.128L412.171 176.605L412.415 177.654L415.241 179.513L415.338 181.514L415.825 182.61L418.846 184.86L419.869 186.576L421.038 188.006L422.549 189.054L423.962 190.722L425.374 191.819L425.813 193.153L425.764 197.538L421.428 197.729L418.31 197.062L416.361 197.014L415.727 197.586L416.166 198.3L417.579 198.587L418.018 199.35V200.445L416.361 201.732L415.241 202.305L413.243 204.115L412.366 204.64L407.688 203.21L406.909 202.733L406.032 201.637L405.253 201.304L403.986 201.256L402.719 201.542L401.989 202.161L401.501 205.64L400.917 206.737L400.381 207.214L400.333 208.834L400.965 209.749L401.697 211.608L402.184 214.134L403.304 215.755L403.45 217.232L403.226 218.471L404.103 220.092L404.737 221.999L405.76 222.761L406.734 223.047L408.049 226.527L408.488 228.623L408.439 230.006L409.17 231.674L407.778 232.985L408.103 234.971L408.834 236.559L407.697 243.789L408.347 246.33L410.133 247.919L414.68 249.19L416.224 250.064L418.009 250.699L419.634 250.779L421.744 251.415L425.724 251.176L427.51 251.573L427.835 252.765L428.729 253.877L432.788 254.353L433.194 255.862L436.767 257.054L437.986 254.353L439.203 254.512L439.934 256.26L442.614 258.325L443.588 259.755L446.106 261.979L447.242 263.25L447.648 265.395L448.867 267.699L452.683 273.815L453.657 276.516L454.569 278.078L385.021 277.833L363.346 277.621L357.58 278.098L354.332 277.621H352.871L351.978 277.383L351.41 276.51L351.166 275.159L350.305 273.571Z" fill="#DEDEDE" fill-opacity="0.03" stroke="#F8AB5D" stroke-width="0.5"/>
<path d="M278.234 97.1737L270.18 97.0784L267.338 97.7132L265.795 98.5075L264.821 100.494L264.902 103.433L265.552 109.152L266.201 109.947L266.526 111.138L266.607 112.409L267.176 113.601L268.313 114.554L269.774 115.19L270.83 116.223L271.886 118.526L270.911 119.321L269.125 118.685L266.526 119.4L265.714 120.432L264.333 121.147L262.953 121.227L261.979 120.432L260.842 120.035L260.03 120.274L259.624 120.988L259.218 124.182L257.756 124.817L255.076 124.102L251.179 122.117L248.824 121.402L246.145 119.893L243.627 119.654L242.328 119.178L241.272 117.747L242.084 114.57L242.003 113.538L241.272 112.425L239.974 112.267L238.106 113.061L236.157 112.584L232.909 112.361L233.25 111.503L233.007 109.597L232.129 108.31L231.642 106.975V104.973L232.957 100.884L233.007 99.0248L232.567 98.5959L231.301 99.0728L227.063 99.645L225.114 99.1682L221.703 97.7863L219.413 97.1187L216.928 97.4048L214.054 98.2145L211.667 99.3589L209.523 100.121L205.333 101.266L201.299 103.506L198.473 105.555L192.334 108.033L192.091 102.457L209.874 93.21L211.433 90.6844L212.846 89.3499L213.089 87.7293L213.723 86.5375L214.756 85.4989L215.973 83.6395L217.289 82.2097L217.435 81.4474L218.896 80.5417L220.505 79.8268L224.499 79.0645H225.961L227.715 79.8741L234.682 79.2553L236.144 78.5877L238.141 76.4429L238.677 75.013L238.19 72.6295L236.241 70.0559L235.364 68.3399L233.951 66.7193L234.049 58.9505L235.463 57.2415L238.467 60.4186L240.335 61.2929L242.04 61.7691L243.177 63.1997L244.558 65.8206L245.694 66.3768L245.613 64.5502L246.1 59.4656L253.49 64.3914L255.682 65.3444L259.174 65.98L261.691 66.0594L265.67 66.6949L268.365 66.5362L271.126 65.5825L273.644 65.185L276.648 64.1527L279.165 63.8352L280.789 64.1527L281.52 64.7882H282.332L282.819 63.9139V62.4847L283.55 61.3723L284.044 59.7413L288.916 60.6309L289.825 62.0288L290.215 63.2366L291.449 63.8088L292.359 63.3632L293.463 62.2195L294.503 62.0928L295.997 62.3469L297.231 63.3632L297.166 64.4436L295.283 67.2908L295.022 68.3712L293.982 69.4516L292.944 69.9605L293.203 71.8665L294.308 73.6458L296.386 75.0437L298.53 76.1881L300.479 76.5696L303.337 78.0308L305.026 77.7767L305.676 76.1248L306.455 75.8066L307.17 76.6963L308.079 77.3952L309.574 77.6493L311.002 78.9204L311.717 80.573V84.2591L312.172 85.5936L310.873 85.9743L308.988 85.6569L306.066 83.4961L305.026 83.7502L304.312 84.5765L304.117 85.7836L304.961 86.6099L304.701 88.1992L303.856 88.7074H302.233L300.089 87.7544L299.18 86.4199L297.621 85.6569L296.192 85.7203L295.087 86.7373L294.438 87.7544L292.359 89.4696L289.761 89.9778L288.721 88.8981L287.747 88.6433L285.473 87.1821L283.005 85.911L280.926 85.7836L279.042 86.1651V87.7544L279.627 89.0248L280.731 90.2326L281.77 91.8845L281.641 93.2823L281.056 94.6175L280.276 95.5072L279.497 95.8887L278.234 97.1737Z" fill="#DEDEDE" fill-opacity="0.03" stroke="#F8AB5D" stroke-width="0.5"/>
<path d="M467.842 187.23L466.608 187.116L463.296 187.545L461.639 188.403L461.005 189.214L459.641 190.215L457.499 190.548L456.036 190.262L455.159 191.024L453.6 191.74L450.921 194.17L449.849 194.838L447.997 195.123L446.779 194.694H444.587L443.223 195.743L442.151 197.649L438.205 197.793L437.279 198.793L436.256 199.223L435.574 198.698L434.843 197.602L432.894 197.459L430.555 197.84L429.045 198.317L427.632 198.412L426.414 198.221L425.765 197.538L425.813 193.153L425.375 191.818L423.962 190.722L422.549 189.054L421.038 188.006L419.87 186.576L418.847 184.86L415.826 182.61L415.338 181.514L415.241 179.512L412.415 177.654L412.171 176.604L412.757 176.128L413.779 176.223L414.121 175.27L413.292 174.222L412.805 172.363L413.243 170.694L414.267 169.789L417.97 168.693L419.821 168.74L421.526 169.217L424.303 169.122L425.619 168.263L426.349 167.262L427.177 164.737L428.062 160.405H429.569L430.712 159.998L431.492 159.439L432.064 158.371L432.115 157.354L431.544 156.185L431.388 154.508L432.219 153.694L435.286 152.321L436.325 151.253L436.637 150.033L435.688 147.714L435.073 143.745L435.505 141.362L436.325 140.89L436.568 140.056L436.325 139.562L435.893 139.237L435.97 138.381L435.052 138.012L434.526 137.415L434.065 135.865L434.155 134.449L433.873 132.937L433.182 131.993L430.033 131.409L429.303 131.498L427.886 130.944L428.21 129.625L429.354 129.041L430.237 128.914L433.25 127.313L437.331 125.966L440.683 125.66L442.995 126.372L444.659 127.694L445.411 128.66L447.766 130.541L448.883 130.337L449.974 129.6L451.066 129.244L452.729 129.092L455.795 129.346L458.783 129.041L460.29 129.092L461.589 128.406L463.346 126.957L464.359 126.779L467.321 128.152L468.371 126.732L469.198 126.096L471.144 122.743L471.742 122.108L472.989 121.548L473.872 121.751L474.47 121.726L474.937 121.32L475.676 121.457L475.98 120.852L477.476 120.926L478.483 120.727L480.083 121.294L481.772 119.896L482.603 119.565L483.356 119.719L484.162 121.751L484.89 122.667L485.722 122.921L486.481 122.593L486.264 123.496L486.635 124.453L486.067 127.157L486.546 128.293L486.466 129.161L486.733 130.459L483.812 133.959L482.475 139.62L482.246 139.858L481.539 139.687L480.991 139.848L480.067 140.886L480.055 141.829L479.565 142.236L479.922 146.674L477.767 156.492L478.303 156.793L478.194 158.634L478.637 159.151L477.069 162.928L477.219 163.888L477.062 165.241L477.458 166.229L477.076 167.084L477.384 168.091L475.853 168.227L475.992 169.218L475.882 171.282L476.082 172.156L475.698 174.169L475.961 174.883L475.603 175.698L476.565 176.642L476.149 177.936L476.534 179.173L476.08 181.068L474.178 181.977L472.401 184.147L470.46 184.167L469.865 184.491L468.522 186.611L467.842 187.23Z" fill="#F8AB5D" stroke="#F8AB5D" stroke-width="0.5"/>
<path d="M281.864 33.8317L283.111 34.1825L287.891 34.7422L289.451 36.674L291.01 37.5386L290.127 39.6228L290.49 41.3513L292.413 41.7077H293.816L296.467 41.5546L298.441 40.9956L299.949 40.8939L303.534 41.6562L306.288 42.5716L307.536 41.8094L308.991 41.911L310.186 42.3175L310.394 43.4863L309.771 44.4018L307.276 45.5713L306.028 45.3673L304.678 44.3001L303.223 43.5887L302.495 43.4355L300.884 44.5034L299.689 45.9778L297.454 48.062L295.064 48.9266L293.036 49.384L288.879 51.4174L287.112 52.6377L286.177 53.7564L285.865 54.7219L285.969 55.8914L285.813 57.0609L284.045 59.7411L283.55 61.3721L282.819 62.4845V63.9137L282.333 64.788H281.521L280.789 64.1524L279.165 63.835L276.648 64.1524L273.644 65.1848L271.126 65.5823L268.365 66.536L265.67 66.6947L261.691 66.0592L259.174 65.9798L255.682 65.3442L253.49 64.3912L246.101 59.4654L245.613 64.5499L245.694 66.3766L244.558 65.8204L243.177 63.1994L242.04 61.7689L240.335 61.2927L238.467 60.4184L235.463 57.2412L234.049 58.9502L230.902 61.7431L228.407 64.8959L225.809 67.6916L224.562 68.4037L222.327 67.844L219.728 65.0992L219 62.4553L219.625 60.8792L220.663 59.5065L221.599 57.5239L221.495 55.7954L220.56 54.4226L219.988 51.0672L218.689 49.7453L217.702 48.3725L217.649 46.5424L218.065 45.0171L218.637 44.0509L219.469 43.6952L219.625 42.9837L218.585 41.8142L216.143 41.3666L213.908 40.4011L212.504 39.5365L211.621 38.4686V36.5877L211.258 35.4182L209.543 34.8084L204.917 35.6221L202.527 35.5205L199.825 36.5368L199.149 38.1129L197.382 38.1637L194.367 36.3844L194.419 35.2149L198.941 26.5216L199.668 24.0809L200.708 22.4541L200.76 21.082L199.513 19.9633L198.577 19.6584L197.122 19.9125L195.979 19.8109L191.998 18.4381L191.114 17.8791L190.387 17.1161L189.087 16.6588L187.498 16.5648L188.294 15.4586L188.762 14.0991L189.565 13.1927L190.391 12.8802L192.204 12.8384L193.265 11.1134L196.479 9.35146L197.695 8.0671L198.421 7.82972L199.658 8.0309L200.543 7.9585L201.092 7.5805L201.838 7.41064L203.126 7.79004L205.705 7.75105L207.868 8.58015L209.225 8.8057L209.854 9.31735L210.553 10.8419L211.682 11.8422L212.391 12.0406L213.231 11.8582L214.657 12.207L216.522 13.7928L218.289 14.6059L219.368 15.9007L221.677 17.2888L222.41 17.3403L223.38 17.9306L224.51 19.4405L226.393 21.2289L226.609 21.9821L226.309 23.4245L226.628 24.5453L227.063 25.0096L227.905 25.2574L228.567 26.1554L229.175 26.2814L230.572 27.1947L233.904 26.7262L234.701 26.9309L235.716 26.9149L237.656 26.0663L238.183 26.2849L240.505 26.539L241.999 27.2323L243.392 27.4899L244.096 28.076L244.583 28.988L246.128 29.8888L246.572 29.8324L247.107 30.296L247.808 30.0726L248.181 29.1704L249.045 28.9399L250.472 30.1115L253.026 30.9977L254.142 30.7791L254.869 31.0715L256.769 31.3527L259.114 29.7078L259.384 29.7064L259.83 30.067L261.409 29.8477L262.427 30.7457L263.323 30.7485L264.817 31.5477L266.899 31.7433L267.558 31.9807L268.177 31.6298L268.847 31.5783L269.52 32.0363L271.269 32.3009L272.123 32.832L273.14 33.8345L274.652 34.5731L275.944 34.894L277.962 34.9135L279.854 34.596L280.831 34.6246L281.864 33.8317Z" fill="#DEDEDE" fill-opacity="0.03" stroke="#F8AB5D" stroke-width="0.5"/>
<path d="M467.842 187.229L467.237 187.779L466.666 189.528L465.502 190.769L463.804 193.358L463.439 194.269L463.528 195.395L464.801 199.935L464.591 201.323L462.382 204.835L461.609 205.147L460.239 205.114L458.866 207.347L457.681 207.282L457.047 207.524L456.444 208.528L456.342 209.13L456.519 209.756L457 210.229L456.07 211.475L457.113 212.582L457.329 214.331L457.133 215.03L459.006 216.105L459.932 216.241L460.43 216.631L460.901 217.561L460.025 218.216L460.146 219.097L460.82 219.37L461.353 219.188L462.522 220.679L462.411 221.35L462.626 221.862L463.495 222.114L464.567 222.902L464.569 223.879L465.532 224.584L466.432 224.649L467.066 225.781L467.105 227.03L466.721 227.256L466.227 228.194L466.055 229.235L466.156 230.176L466.534 231.125L465.665 231.694L465.474 232.184L465.561 233.604L466.343 236.961L466.578 238.894L466.691 241.059L466.319 245.007L466.667 247.265L467.203 249.056L467.752 249.872L468.921 250.903L469.489 251.684L470.034 253.247L470.336 255.266L470.76 264.043L470.544 264.985L469.156 267.934L468.925 269.2L469.197 273.322L470.433 278.133L454.57 278.078L453.657 276.515L452.683 273.814L448.867 267.698L447.649 265.395L447.242 263.25L446.106 261.979L443.588 259.755L442.614 258.325L439.934 256.259L439.203 254.512L437.986 254.353L436.768 257.054L433.194 255.862L432.789 254.353L428.729 253.877L427.835 252.764L427.511 251.572L425.724 251.176L421.745 251.414L419.634 250.779L418.01 250.699L416.224 250.063L414.681 249.189L410.134 247.918L408.347 246.33L407.697 243.788L408.834 236.559L408.103 234.97L407.778 232.984L409.17 231.673L408.439 230.005L408.488 228.623L408.05 226.526L406.734 223.047L405.76 222.761L404.737 221.999L404.103 220.092L403.226 218.471L403.451 217.232L403.304 215.754L402.184 214.134L401.697 211.608L400.966 209.749L400.333 208.834L400.381 207.213L400.917 206.736L401.501 205.64L401.989 202.161L402.72 201.541L403.986 201.255L405.254 201.303L406.032 201.637L406.91 202.733L407.689 203.21L412.367 204.64L413.243 204.115L415.241 202.304L416.362 201.732L418.018 200.445V199.349L417.58 198.586L416.167 198.3L415.728 197.585L416.362 197.014L418.31 197.062L421.428 197.729L425.764 197.538L426.414 198.221L427.632 198.412L429.045 198.317L430.555 197.84L432.894 197.458L434.843 197.602L435.574 198.698L436.255 199.222L437.279 198.793L438.204 197.793L442.151 197.649L443.223 195.743L444.587 194.694H446.779L447.997 195.123L449.849 194.837L450.92 194.17L453.6 191.74L455.159 191.024L456.036 190.262L457.498 190.548L459.641 190.214L461.005 189.213L461.639 188.403L463.296 187.545L466.608 187.116L467.842 187.229Z" fill="#9E6B38" stroke="#F8AB5D" stroke-width="0.5"/>
<path d="M334.577 189.803L336.063 190.887L336.985 193.629L338.958 195.96L339.778 197.443L340.034 198.708L340.814 199.709L341.934 202.236L342.178 203.656L341.983 205.944L343.201 207.326L344.907 207.803L347.537 207.564L349.779 207.707L351.386 208.898L351.532 211.33L350.85 212.111L353.15 214.437L353.735 217.221L353.695 218.86L353.15 220.5L351.981 222.407L351.435 224.618L351.465 225.754L351.172 227.232L351.269 228.852L350.101 231.522L348.492 233.38L347.322 235.191L345.472 236.336L344.692 238.766L345.033 242.15L344.156 243.532L343.718 245.009L348.931 251.635L350.051 253.303L351.221 256.811L350.587 260.481L350.539 262.292L349.954 263.865L348.102 266.296L346.738 267.535L347.567 269.919L349.905 272.587L350.305 273.57L346.895 273.809L346.407 274.285V275.873L343.646 276.668L339.099 279.449L338.855 280.878L338.206 281.593L337.881 282.864L338.45 284.056L338.693 285.804L338.125 287.551L337.231 288.266L336.175 288.186L335.039 287.074L334.39 287.869L333.415 288.505L330.898 288.822L329.03 287.948H327L324.97 288.583L324.32 289.934L324.808 291.84L325.702 294.145L327.974 295.416L328.218 296.766L328.056 298.195L327.325 299.07L325.376 299.228L323.59 299.626L321.641 298.91L319.449 298.99L318.068 298.195L316.445 297.799L315.389 298.434L312.465 297.561L315.581 292.979L316.361 291.009L315.647 288.403L314.737 287.068L313.437 286.688L309.606 286.56L307.007 284.78L305.513 284.718L303.434 285.098L302.135 285.797L300.575 285.734L299.732 284.908L299.017 283.573L296.743 280.904L294.859 279.633L293.82 278.425L293.625 277.6L294.664 276.901L294.989 276.074L294.6 275.502L294.794 274.931L299.081 273.087L300.835 272.071L300.706 270.1L298.821 265.589L297.977 265.017L296.288 264.826L294.405 265.08L292.845 265.017L289.858 261.903L288.428 259.932L286.999 258.662L283.301 256.492L279.062 253.774L278.38 252.535L277.308 251.535L276.139 251.058L274.726 251.106L273.411 251.63L271.852 251.344L270.731 250.724L269.61 250.534L268.489 250.057L268.246 249.295L271.462 247.055L272.338 246.006L272.923 242.451L272.582 240.639L271.657 239.638L270.438 239.495L269.367 239.924L267.808 240.114L266.882 239.257L266.784 237.493L268.343 234.729L269.659 231.488L270.633 230.344L271.413 228.581L271.607 226.054L272.485 224.673L273.654 223.576L274.092 222.528L273.313 221.479L271.802 220.192L268.782 215.759L268.294 214.625L265.323 212.671L264.299 211.527L265.933 210.58L268.635 207.072L269.57 206.259L270.61 205.801L271.285 206.665L271.857 208.343L272.481 209.207L273.156 209.716L274.299 209.563L274.819 208.495L274.56 205.394L272.792 198.836L272.636 195.379L273.156 193.701L273.884 192.735L275.703 192.939L277.625 193.549L278.977 194.566L281.003 195.125L282.303 194.82L283.29 193.955L284.173 191.363L284.849 191.109L285.525 192.125L288.227 193.04L289.37 193.955L293.632 194.464L298.257 195.43L299.971 196.192L302.519 198.887L303.817 199.446L306.208 198.023L309.327 198.277L310.74 197.921L311.831 196.65L311.935 193.853L311.727 192.786L312.351 192.176L314.118 192.786L315.677 192.277L316.664 191.414L318.016 190.905L321.185 190.6L322.536 189.837L324.096 189.736L327.422 190.244H333.606L334.577 189.803Z" fill="#DEDEDE" fill-opacity="0.03" stroke="#F8AB5D" stroke-width="0.5"/>
<path d="M211.433 90.6841L203.202 90.5184L200.123 90.0986L194.588 88.0019L191.821 87.4296L189.56 87.5062L188.196 88.0777L184.22 90.5943L179.582 92.3861L179.146 92.9277L177.859 93.0426L176.3 92.1654L175.325 91.3649L173.923 91.06L161.641 91.0043L161.124 90.4147L161.768 88.753L161.925 84.801L162.237 84.0464L163.542 83.0398L164.404 81.9629L164.543 81.3016L165.007 80.7718L165.541 79.4283L165.947 77.6573L168.599 75.2146L168.726 74.5895L170.117 72.2546L170.299 71.6413L170.834 71.1353L171.173 70.4537L171.515 69.2703L171.353 67.6741L172.127 65.6609L173.467 64.1753L173.901 62.6793L175.323 61.9526L175.777 61.5029L176.438 60.3229L176.88 58.9905L176.688 57.6205L177.101 55.7563L176.627 54.277L176.828 52.616L176.243 50.3599L176.036 47.7208L175.503 45.8253L175.387 44.5576L175.678 43.1834L175.785 40.7129L176.723 39.5608L177.167 38.5277L177.074 35.9047L176.242 33.5009L174.395 30.2402L174.346 29.5169L175.143 28.7763L175.924 28.4143L176.759 28.7094L178.94 28.4553L180.492 27.3478L181.052 26.6753L181.509 25.6666L182.074 23.0687L183.512 21.5803L184.101 20.4665L184.814 20.1985L185.235 19.398L186.936 17.872L187.498 16.5647L189.088 16.6587L190.387 17.116L191.114 17.879L191.998 18.438L195.979 19.8108L197.122 19.9124L198.577 19.6583L199.513 19.9632L200.76 21.0819L200.708 22.454L199.668 24.0808L198.941 26.5215L194.419 35.2148L194.368 36.3843L197.382 38.1636L199.149 38.1128L199.825 36.5368L202.527 35.5204L204.917 35.622L209.543 34.8083L211.258 35.4181L211.621 36.5876V38.4685L212.504 39.5364L213.908 40.401L216.143 41.3665L218.585 41.8141L219.625 42.9836L219.469 43.6951L218.637 44.0508L218.066 45.017L217.649 46.5423L217.702 48.3724L218.689 49.7452L219.988 51.0671L220.56 54.4225L221.495 55.7953L221.599 57.5238L220.664 59.5064L219.625 60.8791L219.001 62.4552L219.728 65.0991L222.327 67.8439L224.562 68.4036L225.809 67.6915L228.407 64.8958L230.902 61.743L234.049 58.9501L233.952 66.719L235.364 68.3396L236.242 70.0556L238.191 72.6292L238.677 75.0127L238.142 76.4426L236.144 78.5874L234.682 79.255L227.715 79.8738L225.961 79.0642H224.5L220.505 79.8265L218.897 80.5414L217.435 81.4471L217.289 82.2093L215.973 83.6392L214.756 85.4986L213.723 86.5372L213.089 87.729L212.846 89.3496L211.433 90.6841Z" fill="#DEDEDE" fill-opacity="0.03" stroke="#F8AB5D" stroke-width="0.5"/>
<path d="M470.433 278.133L471.971 282.629L474.461 288.295L475.714 292.05L476.346 294.947L476.582 297.723L476.386 300.05L475.785 302.917L475.816 307.83L476.242 310.648L477.886 314.955L480.389 318.699L481.619 320.182L484.752 322.841L489.639 326.256L492.336 329.044L493.834 331.225L497.122 337.276L498.871 341.838L502.078 348.353L505.123 356.915L505.893 357.434L507.502 360.379L507.986 362.389L508.475 363.452L490.684 365.807L487.314 365.918L475.827 367.546L474.532 365.812L474.999 365.11L475.623 363.204L475.545 361.717L476.09 360.993L477.26 360.344L477.883 359.696L478.234 358.247L477.923 356.874L476.559 355.272L476.48 354.358L475.935 353.71L475.03 353.556L473.978 354.091L473.081 353.328L472.497 352.146L471.445 351.117L469.573 351.46L468.405 351.041L467.157 351.155L466.417 351.994L463.962 351.612L463.065 352.489L463.104 353.71L462.519 354.663L461.115 354.739L459.4 354.51L458.388 354.015L457.413 353.824L456.088 356.988L455.114 357.332L454.1 357.027L452.658 356.188L451.098 354.93L450.919 353.556L450.257 352.528L449.828 351.307L449.595 349.439L449.087 348.714L447.802 348.257H446.515L445.191 348.791L444.878 350.3L443.203 350.91L443.008 352.245L445.697 353.923L446.866 355.105L446.827 357.011L444.722 360.138L444.839 361.396L444.138 362.96L441.683 364.866L440.162 365.286H438.604L437.317 366.01L436.109 367.039L434.784 367.497L434.081 368.374L432.741 367.65L432.273 366.239L431.338 364.828L429.895 365.019L428.804 364.599L427.986 363.303L426.583 362.884L425.569 362.121L424.751 361.93L425.889 360.122L426.981 359.359L427.864 358.138L428.488 355.698L428.02 354.326L427.344 354.021L425.993 354.631L424.745 354.478L423.603 353.97L422.823 352.241L422.667 350.513L423.187 349.598V348.479L422.459 346.904L420.588 344.361L419.185 344.463L418.302 345.073L416.899 344.565L414.768 345.582L413.729 345.531L412.377 344.412L411.598 344.971L411.442 346.954L410.922 347.666L409.363 348.022L403.647 348.276L401.1 348.072L399.437 346.141L396.111 345.48L394.344 344.056L390.498 342.48L389.096 341.26L388.108 339.989L388.056 338.362L388.68 336.786L390.634 335.139L391.205 334.224L391.153 333.105L389.75 332.495L386.164 332.088L384.865 331.682L384.033 330.512L381.539 330.004L379.876 328.327L379.356 327.005L380.24 326.292L379.72 324.311L378.992 323.395L378.681 321.921L376.29 320.802L376.135 318.921L376.705 317.09L379.824 314.864L381.02 313.44L381.279 312.272L381.903 310.949L383.098 309.679L383.878 306.221L383.826 304.29L383.046 300.323L382.942 298.341L381.643 297.426L381.123 295.951L381.383 294.579L382.318 293.41L382.267 292.24L381.539 290.105L381.435 288.356L381.746 286.119L382.474 284.288L383.254 281.137L383.929 279.917L384.813 278.849L385.021 277.833L470.433 278.133Z" fill="#DEDEDE" fill-opacity="0.03" stroke="#F8AB5D" stroke-width="0.5"/>
<path d="M433.25 127.313L430.237 128.914L429.354 129.041L428.21 129.625L427.886 130.945L429.303 131.498L430.033 131.41L433.182 131.993L433.873 132.937L434.155 134.45L434.065 135.866L434.526 137.415L435.051 138.012L435.97 138.381L435.893 139.238L436.325 139.562L436.568 140.056L436.325 140.89L435.505 141.362L435.073 143.745L435.688 147.714L436.637 150.033L436.325 151.254L435.286 152.321L432.219 153.694L431.387 154.508L431.544 156.185L432.115 157.354L432.063 158.371L431.492 159.439L430.712 159.998L429.569 160.405H428.062L426.527 160.039L425.263 160.316L423.443 159.91L420.377 158.843L419.286 158.741L418.715 158.334L418.286 156.98L417.636 157.054L416.534 157.615L415.518 157.6L415.121 157.438L414.596 156.692L414.02 156.324L413.157 156.073L410.218 155.762L408.926 155.217L408.417 154.413L407.294 153.705L407.012 153.247L407.113 152.686L406.755 152.266L405.777 151.779L405.236 151.211L403.886 151.086L402.839 150.252L402.185 150.392L400.969 149.573L400.613 149.957L400.948 150.739L400.628 151.16L399.355 150.989L397.522 152.251L395.405 152.539L394.692 153.306L393.516 153.978L390.72 154.125L389.93 153.432L389.506 152.214L388.511 151.904L387.821 151.307L387.555 150.813L387.123 150.901L386.47 149.374L382.548 145.476L380.73 144.459L379.378 144.509L378.651 145.526L379.431 148.729L382.289 151.728L382.185 152.999L381.354 154.423L381.873 155.491L383.12 156.05L385.094 157.473L385.303 158.592L384.419 161.337L384.368 162.405L384.316 164.997L384.887 166.676L384.783 168.048L382.409 169.56L380.782 169.98L379.898 170.895V172.064L380.262 173.234L380.885 174.301L379.431 177.504L380.086 179.388L379.894 180.584L378.62 181.189L378.582 181.514L378.998 182.407L378.552 182.879L378.415 183.551L377.951 183.882L376.167 183.698L376.205 183.189L375.363 182.717L375.043 182.096L374.108 181.187L374.073 183.573L373.882 184.481L374.184 186.207V187.609L373.676 189.691L373.564 192.437L372.873 193.669L371.278 193.567L369.797 194.201L369.055 194.105L366.089 195.956L364.335 196.529L361.509 199.77L359.122 199.826L356.247 199.198L356.345 198.245L355.565 197.292L354.201 196.91L352.526 197.255L349.25 197.125L339.83 197.443L339.01 195.96L337.037 193.629L336.063 190.886L334.577 189.803L334.35 188.015L334.557 182.897L333.485 180.705L332.511 179.847L325.398 179.18L323.859 180.008L322.759 180.958L321.46 180.703L320.161 179.56L317.562 176.509L315.873 175.111L314.508 174.984L313.924 174.348L313.989 173.713L314.444 173.268L314.193 171.979L310.361 170.153L309.572 170.281L308.468 169.709L306.194 168.248L304.44 166.532L303.92 164.816L304.635 163.672L306.194 161.893L307.818 161.702L310.351 160.685L310.416 159.668L309.766 158.969L308.598 158.271L308.201 155.885L303.353 157.415L302.64 157.165L302.229 155.836L301.192 154.457L299.698 153.758H295.086L296.515 152.614L297.748 151.916L299.844 151.609L303.855 151.661L304.96 150.835L305.414 149.501L305.024 148.357L304.05 147.022L300.737 144.353L298.204 142.637L297.424 140.476L294.956 136.981L294.371 135.646L294.501 134.757L295.215 134.337L295.449 133.591L294.509 131.557L294.211 130.081L294.228 129.1L293.651 128.119L292.502 126.88L291.965 125.766L292.117 122.962L290.956 120.454L291.213 120.018L290.84 119.346L291.03 118.432L290.931 117.797L289.885 116.447L289.808 115.65L289.693 115.392L289.308 115.229L288.57 113.23L287.75 112.013L287.075 111.392L286.908 110.514L286.46 110.042L286.421 109.245L285.725 108.094L284.995 107.916L284.585 107.223L284.099 106.987L283.5 106.278L282.019 105.348L280.985 105.149L280.524 104.692L278.966 104.507L278.624 104.293L278.086 104.471L277.525 104.293L276.492 104.331L276.806 101.876L276.74 100.16L277.196 99.0805L278.17 98.5082L278.235 97.1737L279.497 95.8887L280.276 95.5072L281.056 94.6175L281.641 93.2824L281.77 91.8845L280.731 90.2326L279.627 89.0248L279.042 87.7544V86.1651L280.926 85.7836L283.005 85.911L285.473 87.1821L287.747 88.6433L288.721 88.8981L289.761 89.9778L292.359 89.4696L294.438 87.7544L295.087 86.7373L296.192 85.7203L297.621 85.6569L299.18 86.4199L300.09 87.7544L302.233 88.7074H303.857L304.701 88.1992L304.961 86.6099L304.117 85.7836L304.312 84.5765L305.027 83.7502L306.066 83.4961L308.989 85.6569L310.873 85.9744L312.172 85.5936L312.992 85.8748L314.486 86.0015L316.37 87.2726L320.724 88.5438L322.477 88.6705L323.581 87.7815L324.75 87.4L325.335 86.7004L325.4 85.8748L326.115 85.3659L332.351 83.8407L333.455 84.1588L337.223 83.6507L349.124 84.2862L351.137 84.0955L353.151 84.7944L354.256 84.5403L356.205 82.8244L357.569 82.9517L361.141 84.6037L362.181 85.3659L364.649 86.3196L367.053 86.4463L368.936 86.1289L369.976 85.2392L371.73 84.477L373.614 84.3496L374.913 84.667L376.147 85.43L377.382 84.7304L378.031 83.8407L379.915 83.4599L382.189 82.3795L383.683 82.1888L385.372 80.9817L386.801 81.1717L387.191 83.5233L386.736 87.9716L387.84 89.2427L389.334 89.3701L390.634 88.1623L391.283 88.6071L391.608 89.6242L392.634 89.8783L394.388 89.116L394.973 88.2897V87.5267L396.077 87.4634L397.051 86.5737L398.481 86.1922L399.455 86.8912L402.443 87.1459L403.223 87.9082L403.678 89.8149L404.782 92.2298L406.406 92.6113L408.225 93.5643L410.109 93.691L411.149 93.4369L411.538 92.5472V90.8313L411.863 90.1957L412.967 90.069L414.267 90.3865L415.306 90.8953L415.891 92.0391L416.215 93.3102L414.721 94.4539L414.656 95.0255L415.37 95.661V96.5006L414.916 97.1988L414.071 97.771L413.552 99.5503L412.837 100.504H411.798L411.343 101.14L411.473 102.093L416.41 102.156L417.124 102.792L418.229 104.38L418.878 105.842L420.892 108.574L423.231 108.448L424.335 108.574L425.375 108.892L426.218 109.719L426.479 110.862L425.634 115.502L426.739 116.01L430.376 116.328L429.922 119.06L430.701 119.696L432.066 119.632L431.936 120.967L431.026 122.047V123.445L431.546 125.034L432.261 126.369L433.25 127.313Z" fill="#DEDEDE" fill-opacity="0.03" stroke="#F8AB5D" stroke-width="0.5"/>
<path d="M278.234 97.1737L278.17 98.5082L277.196 99.0805L276.74 100.16L276.806 101.876L276.492 104.331L277.525 104.293L278.086 104.471L278.624 104.293L278.966 104.507L280.524 104.692L280.985 105.149L282.019 105.348L283.499 106.278L284.099 106.987L284.585 107.223L284.995 107.916L285.725 108.094L286.421 109.245L286.46 110.042L286.908 110.514L287.074 111.392L287.75 112.013L288.57 113.23L289.307 115.229L289.692 115.392L289.808 115.65L289.885 116.447L290.931 117.797L291.029 118.432L290.84 119.346L291.213 120.018L290.955 120.454L292.117 122.962L291.964 125.766L292.502 126.88L293.651 128.119L294.227 129.1L294.211 130.081L294.509 131.557L295.448 133.591L295.215 134.337L294.501 134.757L294.37 135.646L294.956 136.981L297.424 140.476L298.204 142.637L300.737 144.353L304.05 147.022L305.024 148.357L305.414 149.501L304.96 150.835L303.854 151.661L299.844 151.609L297.748 151.916L296.514 152.614L295.086 153.758H299.698L301.192 154.457L302.229 155.836L302.64 157.165L303.353 157.415L308.201 155.885L308.598 158.271L309.766 158.969L310.416 159.668L310.351 160.685L307.818 161.702L306.194 161.893L304.634 163.672L303.92 164.816L304.44 166.532L306.194 168.248L308.468 169.709L309.572 170.281L310.36 170.153L314.192 171.979L314.444 173.268L313.989 173.713L313.924 174.348L314.508 174.984L315.872 175.111L317.562 176.509L320.16 179.56L321.46 180.703L322.758 180.958L323.859 180.008L325.398 179.18L332.511 179.847L333.485 180.705L334.557 182.897L334.35 188.015L334.577 189.803L333.606 190.244H327.422L324.096 189.736L322.536 189.837L321.185 190.6L318.016 190.905L316.664 191.413L315.677 192.277L314.118 192.786L312.351 192.176L311.727 192.786L311.935 193.853L311.831 196.65L310.74 197.921L309.327 198.277L306.208 198.023L303.817 199.446L302.519 198.887L299.971 196.192L298.257 195.429L293.632 194.464L289.37 193.955L288.227 193.04L285.525 192.125L284.849 191.109L284.173 191.363L283.29 193.955L282.303 194.82L281.003 195.125L278.977 194.566L277.625 193.548L275.703 192.939L273.884 192.735L273.156 193.701L272.636 195.379L272.792 198.836L274.56 205.394L274.819 208.495L274.299 209.563L273.156 209.715L272.481 209.207L271.857 208.343L271.285 206.665L270.61 205.801L269.57 206.258L268.635 207.072L265.932 210.58L264.299 211.527L263.188 211.53L261.278 210.577L253.239 205.953L252.605 206.048L252.654 210.004L252.069 210.29L250.657 210.386L247.1 211.148L244.371 211.196L242.861 211.053L241.984 210.338L242.097 208.755L238.736 203.703L236.397 201.463L233.084 197.221H231.672L230.308 198.174L229.04 198.508L226.897 199.985L225.192 200.557L220.612 197.84L217.152 195.267L213.109 194.695L211.452 193.741L209.844 189.118L207.311 186.354L206.483 186.687L205.85 187.784L205.167 189.833L203.121 191.93L202.05 192.55L200.782 191.93L200.734 189.833L199.808 185.067L198.473 181.626L199.925 179.537L201.192 177.106L202.312 176.296L202.946 175.247L203.141 170.719L203.871 169.909L205.041 170.433L205.479 171.243L205.382 174.055L205.966 174.913L206.99 175.39L208.695 175.294L215.906 173.007L217.367 172.101L218.196 170.862L218.001 169.432L218.585 168.002L219.754 166.287L220.534 164.713L221.07 163.283L221.118 161.473L217.806 157.897L215.954 153.475L215.077 152.521L212.933 150.853L212.446 150.043L211.521 149.137L210.059 149.042L209.425 148.28L210.059 147.183L211.277 146.85L212.057 146.992L212.593 147.469L213.713 147.183L214.346 147.421L215.321 148.47L216.344 148.232L216.733 147.421L218.487 147.136L219.706 147.517L220.193 148.184L219.901 149.042L220.096 150.52L221.07 151.377L222.677 151.044L223.409 150.329V148.899L224.285 147.469L225.601 146.564L228.524 146.039L229.401 145.372L229.791 144.372L229.401 143.847H226.965L226.721 142.75L227.452 142.131L229.011 141.655L229.644 140.892L229.255 139.795L227.647 138.938L225.795 137.126L223.505 135.554L222.336 134.076L222.239 133.285L222.629 132.093L223.262 131.283L223.895 129.806L223.993 128.567L225.65 126.374L226.039 124.801L225.163 122.322L225.406 119.987L225.99 117.508L226.185 115.268L228.67 111.456L229.255 111.027L232.909 112.361L236.157 112.584L238.106 113.061L239.974 112.267L241.272 112.425L242.003 113.538L242.084 114.57L241.272 117.747L242.328 119.178L243.627 119.654L246.145 119.893L248.824 121.402L251.179 122.117L255.077 124.102L257.756 124.817L259.218 124.182L259.624 120.988L260.03 120.274L260.842 120.035L261.979 120.432L262.953 121.227L264.334 121.147L265.714 120.432L266.526 119.4L269.125 118.685L270.911 119.321L271.886 118.526L270.83 116.223L269.774 115.19L268.313 114.554L267.176 113.601L266.607 112.409L266.526 111.138L266.201 109.947L265.552 109.152L264.902 103.433L264.821 100.494L265.795 98.5075L267.338 97.7132L270.18 97.0784L278.234 97.1737Z" fill="#DEDEDE" fill-opacity="0.03" stroke="#F8AB5D" stroke-width="0.5"/>
</svg>
