<svg width="543" height="410" viewBox="0 0 543 410" fill="none" xmlns="http://www.w3.org/2000/svg">
<path d="M475.884 354.297L57.9541 342.656C48.5572 342.403 39.5779 338.827 32.6982 332.6C25.8186 326.373 21.5107 317.921 20.5815 308.828L0.408344 115.078C-0.128736 109.892 0.448164 104.654 2.10248 99.6956C3.7568 94.7374 6.45248 90.1673 10.0187 86.2747C13.585 82.3821 17.9441 79.252 22.8199 77.0825C27.6957 74.9131 32.9818 73.7517 38.3435 73.6719L503.531 67.4219C509.063 67.3492 514.547 68.4289 519.614 70.5883C524.681 72.7477 529.213 75.9368 532.906 79.941C536.599 83.9453 539.367 88.6718 541.024 93.8028C542.681 98.9337 543.188 104.35 542.511 109.687L515.426 321.328C514.219 330.613 509.503 339.131 502.195 345.224C494.887 351.317 485.508 354.551 475.884 354.297Z" fill="#EAF9F3"/>
<mask id="mask0_134_908" style="mask-type:luminance" maskUnits="userSpaceOnUse" x="0" y="67" width="543" height="288">
<path d="M475.884 354.297L57.9541 342.656C48.5572 342.403 39.5779 338.827 32.6982 332.6C25.8186 326.373 21.5107 317.921 20.5815 308.828L0.408344 115.078C-0.128736 109.892 0.448164 104.654 2.10248 99.6956C3.7568 94.7374 6.45248 90.1673 10.0187 86.2747C13.585 82.3821 17.9441 79.252 22.8199 77.0825C27.6957 74.9131 32.9818 73.7517 38.3435 73.6719L503.531 67.4219C509.063 67.3492 514.547 68.4289 519.614 70.5883C524.681 72.7477 529.213 75.9368 532.906 79.941C536.599 83.9453 539.367 88.6718 541.024 93.8028C542.681 98.9337 543.188 104.35 542.511 109.688L515.426 321.328C514.219 330.613 509.503 339.131 502.195 345.224C494.887 351.317 485.508 354.551 475.884 354.297Z" fill="white"/>
</mask>
<g mask="url(#mask0_134_908)">
<path d="M134.789 389.453H-199.153C-202.35 389.453 -205.417 388.218 -207.678 386.021C-209.939 383.823 -211.209 380.842 -211.209 377.734V193.594C-211.209 190.486 -209.939 187.505 -207.678 185.307C-205.417 183.11 -202.35 181.875 -199.153 181.875H134.789C137.986 181.875 141.053 183.11 143.313 185.307C145.574 187.505 146.844 190.486 146.844 193.594V377.656C146.855 379.202 146.551 380.734 145.95 382.165C145.349 383.596 144.463 384.897 143.342 385.993C142.221 387.09 140.889 387.96 139.421 388.554C137.953 389.147 136.379 389.453 134.789 389.453Z" stroke="#B8D8C7" stroke-width="1.8" stroke-linecap="round" stroke-linejoin="round"/>
<path d="M576.106 377.109H239.271C236.074 377.109 233.007 375.875 230.747 373.677C228.486 371.479 227.216 368.499 227.216 365.391V96.4062C227.216 93.2982 228.486 90.3175 230.747 88.1198C233.007 85.9222 236.074 84.6875 239.271 84.6875H576.106C579.304 84.6875 582.37 85.9222 584.631 88.1198C586.892 90.3175 588.162 93.2982 588.162 96.4062V365.391C588.162 368.499 586.892 371.479 584.631 373.677C582.37 375.875 579.304 377.109 576.106 377.109Z" stroke="#B8D8C7" stroke-width="1.8" stroke-linecap="round" stroke-linejoin="round"/>
<path d="M42.5229 181.875H26.2075C25.3575 181.877 24.5362 181.576 23.8992 181.029C23.2622 180.482 22.8539 179.727 22.7516 178.906L21.4656 167.656C21.4126 167.184 21.4624 166.706 21.6119 166.254C21.7613 165.802 22.0071 165.386 22.3331 165.032C22.6591 164.678 23.058 164.395 23.504 164.201C23.95 164.007 24.433 163.907 24.9216 163.906H43.8088C44.297 163.908 44.7794 164.009 45.2248 164.204C45.6702 164.398 46.0686 164.681 46.3944 165.034C46.7201 165.388 46.9659 165.804 47.1158 166.256C47.2658 166.707 47.3165 167.184 47.2648 167.656L45.9788 178.906C45.8765 179.727 45.4682 180.482 44.8312 181.029C44.1942 181.576 43.3729 181.877 42.5229 181.875Z" stroke="#B8D8C7" stroke-width="1.8" stroke-linecap="round" stroke-linejoin="round"/>
<path d="M32.396 163.984C32.396 163.984 25.9664 163.359 24.6804 154.922C24.6804 154.922 30.4671 156.563 32.3157 160.547C32.3157 160.547 33.1194 151.641 37.4594 150.781C37.4594 150.781 39.3883 157.422 36.3342 160.703C36.3342 160.703 38.665 156.953 44.6125 157.031C44.0505 158.677 43.0829 160.163 41.7941 161.362C40.5052 162.56 38.9343 163.434 37.2183 163.906" fill="#B8D8C7"/>
<path d="M132.217 220.781H59.7223C58.829 220.775 57.974 220.427 57.3423 219.813C56.7107 219.199 56.353 218.368 56.3467 217.5V196.094C56.353 195.225 56.7107 194.394 57.3423 193.78C57.974 193.166 58.829 192.819 59.7223 192.812H132.217C133.11 192.819 133.965 193.166 134.597 193.78C135.229 194.394 135.586 195.225 135.593 196.094V217.5C135.604 217.934 135.524 218.365 135.358 218.768C135.192 219.171 134.944 219.537 134.628 219.844C134.313 220.151 133.936 220.392 133.522 220.553C133.107 220.714 132.663 220.792 132.217 220.781Z" stroke="#B8D8C7" stroke-width="1.8" stroke-linecap="round" stroke-linejoin="round"/>
<path d="M104.328 200.312H87.6111C87.2939 200.305 86.992 200.179 86.7676 199.96C86.5433 199.742 86.4137 199.449 86.4055 199.141C86.4137 198.832 86.5433 198.539 86.7676 198.321C86.992 198.103 87.2939 197.977 87.6111 197.969H104.328C104.645 197.977 104.947 198.103 105.172 198.321C105.396 198.539 105.526 198.832 105.534 199.141C105.526 199.449 105.396 199.742 105.172 199.96C104.947 200.179 104.645 200.305 104.328 200.312Z" fill="#B8D8C7"/>
<path d="M104.328 236.094H87.6111C87.2939 236.086 86.992 235.96 86.7676 235.742C86.5433 235.524 86.4137 235.23 86.4055 234.922C86.4137 234.614 86.5433 234.32 86.7676 234.102C86.992 233.884 87.2939 233.758 87.6111 233.75H104.328C104.645 233.758 104.947 233.884 105.172 234.102C105.396 234.32 105.526 234.614 105.534 234.922C105.537 235.077 105.508 235.23 105.449 235.374C105.389 235.518 105.301 235.648 105.188 235.758C105.075 235.867 104.941 235.953 104.793 236.011C104.646 236.069 104.487 236.097 104.328 236.094Z" fill="#B8D8C7"/>
<path d="M504.496 281.797H432.001C431.108 281.791 430.253 281.443 429.621 280.829C428.989 280.215 428.632 279.384 428.625 278.516V257.109C428.632 256.241 428.989 255.41 429.621 254.796C430.253 254.182 431.108 253.834 432.001 253.828H504.496C505.389 253.834 506.244 254.182 506.876 254.796C507.507 255.41 507.865 256.241 507.871 257.109V278.516C507.882 278.949 507.803 279.381 507.637 279.784C507.471 280.187 507.223 280.553 506.907 280.86C506.592 281.167 506.215 281.408 505.801 281.569C505.386 281.73 504.942 281.808 504.496 281.797Z" stroke="#B8D8C7" stroke-width="1.8" stroke-linecap="round" stroke-linejoin="round"/>
<path d="M476.607 261.406H459.89C459.573 261.398 459.271 261.272 459.046 261.054C458.822 260.836 458.692 260.543 458.684 260.234C458.692 259.926 458.822 259.633 459.046 259.414C459.271 259.196 459.573 259.07 459.89 259.063H476.607C476.924 259.07 477.226 259.196 477.451 259.414C477.675 259.633 477.805 259.926 477.813 260.234C477.805 260.543 477.675 260.836 477.451 261.054C477.226 261.272 476.924 261.398 476.607 261.406Z" fill="#B8D8C7"/>
<path d="M411.426 281.797H338.931C338.038 281.791 337.183 281.443 336.551 280.829C335.92 280.215 335.562 279.384 335.556 278.516V257.109C335.562 256.241 335.92 255.41 336.551 254.796C337.183 254.182 338.038 253.834 338.931 253.828H411.426C412.319 253.834 413.174 254.182 413.806 254.796C414.438 255.41 414.795 256.241 414.802 257.109V278.516C414.795 279.384 414.438 280.215 413.806 280.829C413.174 281.443 412.319 281.791 411.426 281.797Z" stroke="#B8D8C7" stroke-width="1.8" stroke-linecap="round" stroke-linejoin="round"/>
<path d="M383.537 261.406H366.82C366.503 261.398 366.201 261.272 365.977 261.054C365.752 260.836 365.623 260.543 365.615 260.234C365.623 259.926 365.752 259.633 365.977 259.414C366.201 259.196 366.503 259.07 366.82 259.063H383.537C383.854 259.07 384.156 259.196 384.381 259.414C384.605 259.633 384.735 259.926 384.743 260.234C384.735 260.543 384.605 260.836 384.381 261.054C384.156 261.272 383.854 261.398 383.537 261.406Z" fill="#B8D8C7"/>
<path d="M39.7902 220.781H-32.7045C-33.5978 220.775 -34.4527 220.427 -35.0844 219.813C-35.7161 219.199 -36.0738 218.368 -36.0801 217.5V196.094C-36.0738 195.225 -35.7161 194.394 -35.0844 193.78C-34.4527 193.166 -33.5978 192.819 -32.7045 192.812H39.7902C40.6835 192.819 41.5385 193.166 42.1702 193.78C42.8018 194.394 43.1595 195.225 43.1658 196.094V217.5C43.1768 217.934 43.0971 218.365 42.9313 218.768C42.7656 219.171 42.5174 219.537 42.2017 219.844C41.886 220.151 41.5095 220.392 41.0949 220.553C40.6804 220.714 40.2365 220.792 39.7902 220.781Z" stroke="#B8D8C7" stroke-width="1.8" stroke-linecap="round" stroke-linejoin="round"/>
<path d="M11.9015 200.312H-4.81567C-5.13285 200.305 -5.43478 200.179 -5.65913 199.96C-5.88348 199.742 -6.0131 199.449 -6.02124 199.141C-6.0131 198.832 -5.88348 198.539 -5.65913 198.321C-5.43478 198.103 -5.13285 197.977 -4.81567 197.969H11.9015C12.2187 197.977 12.5206 198.103 12.745 198.321C12.9693 198.539 13.0989 198.832 13.1071 199.141C13.1104 199.295 13.0814 199.449 13.022 199.593C12.9626 199.736 12.8739 199.867 12.7613 199.976C12.6487 200.086 12.5145 200.172 12.3667 200.23C12.219 200.288 12.0607 200.316 11.9015 200.312Z" fill="#B8D8C7"/>
<path d="M39.7902 256.563H-32.7045C-33.5978 256.556 -34.4527 256.209 -35.0844 255.595C-35.7161 254.981 -36.0738 254.15 -36.0801 253.281V231.875C-36.0738 231.007 -35.7161 230.176 -35.0844 229.562C-34.4527 228.948 -33.5978 228.6 -32.7045 228.594H39.7902C40.6835 228.6 41.5385 228.948 42.1702 229.562C42.8018 230.176 43.1595 231.007 43.1658 231.875V253.281C43.1768 253.715 43.0971 254.147 42.9313 254.55C42.7656 254.952 42.5174 255.318 42.2017 255.625C41.886 255.932 41.5095 256.173 41.0949 256.335C40.6804 256.496 40.2365 256.573 39.7902 256.563Z" stroke="#B8D8C7" stroke-width="1.8" stroke-linecap="round" stroke-linejoin="round"/>
<path d="M11.9015 236.094H-4.81567C-5.13285 236.086 -5.43478 235.96 -5.65913 235.742C-5.88348 235.524 -6.0131 235.23 -6.02124 234.922C-6.0131 234.614 -5.88348 234.32 -5.65913 234.102C-5.43478 233.884 -5.13285 233.758 -4.81567 233.75H11.9015C12.2187 233.758 12.5206 233.884 12.745 234.102C12.9693 234.32 13.0989 234.614 13.1071 234.922C13.1164 235.078 13.0916 235.235 13.0344 235.381C12.9771 235.527 12.8886 235.66 12.7747 235.771C12.6609 235.881 12.5242 235.967 12.3737 236.023C12.2232 236.079 12.0623 236.103 11.9015 236.094Z" fill="#B8D8C7"/>
<path d="M610.023 166.562H244.335C243.357 166.552 242.423 166.17 241.732 165.499C241.041 164.827 240.648 163.919 240.638 162.969V100.703C240.648 99.7532 241.041 98.845 241.732 98.1732C242.423 97.5014 243.357 97.1195 244.335 97.1094H610.023C611.001 97.1195 611.935 97.5014 612.626 98.1732C613.317 98.845 613.71 99.7532 613.72 100.703V162.969C613.721 163.441 613.626 163.909 613.441 164.345C613.256 164.782 612.983 165.178 612.64 165.512C612.296 165.846 611.888 166.111 611.439 166.291C610.99 166.471 610.509 166.564 610.023 166.562Z" stroke="#B8D8C7" stroke-width="1.8" stroke-linecap="round" stroke-linejoin="round"/>
<path d="M610.023 243.828H244.335C243.357 243.818 242.423 243.436 241.732 242.764C241.041 242.093 240.648 241.184 240.638 240.234V177.969C240.648 177.019 241.041 176.111 241.732 175.439C242.423 174.767 243.357 174.385 244.335 174.375H610.023C611.001 174.385 611.935 174.767 612.626 175.439C613.317 176.111 613.71 177.019 613.72 177.969V240.234C613.728 240.708 613.637 241.179 613.454 241.618C613.271 242.058 612.999 242.457 612.654 242.792C612.31 243.127 611.899 243.392 611.447 243.57C610.995 243.748 610.511 243.836 610.023 243.828Z" stroke="#B8D8C7" stroke-width="1.8" stroke-linecap="round" stroke-linejoin="round"/>
<path d="M273.268 127.266H265.312V166.562H273.268V127.266Z" stroke="#B8D8C7" stroke-width="1.8" stroke-linecap="round" stroke-linejoin="round"/>
<path d="M281.466 137.969H273.188V166.562H281.466V137.969Z" stroke="#B8D8C7" stroke-width="1.8" stroke-linecap="round" stroke-linejoin="round"/>
<path d="M513.015 204.453H505.058V243.75H513.015V204.453Z" stroke="#B8D8C7" stroke-width="1.8" stroke-linecap="round" stroke-linejoin="round"/>
<path d="M521.293 215.156H513.015V243.75H521.293V215.156Z" stroke="#B8D8C7" stroke-width="1.8" stroke-linecap="round" stroke-linejoin="round"/>
<path d="M496.861 204.453H488.904V243.75H496.861V204.453Z" stroke="#B8D8C7" stroke-width="1.8" stroke-linecap="round" stroke-linejoin="round"/>
<path d="M481.401 203.559L469.231 241.033L476.819 243.362L488.989 205.888L481.401 203.559Z" stroke="#B8D8C7" stroke-width="1.8" stroke-linecap="round" stroke-linejoin="round"/>
<path d="M505.139 215.156H496.861V243.75H505.139V215.156Z" stroke="#B8D8C7" stroke-width="1.8" stroke-linecap="round" stroke-linejoin="round"/>
<path d="M405.72 127.266H397.763V166.562H405.72V127.266Z" stroke="#B8D8C7" stroke-width="1.8" stroke-linecap="round" stroke-linejoin="round"/>
<path d="M413.998 137.969H405.72V166.562H413.998V137.969Z" stroke="#B8D8C7" stroke-width="1.8" stroke-linecap="round" stroke-linejoin="round"/>
<path d="M327.117 127.266H319.16V166.562H327.117V127.266Z" stroke="#B8D8C7" stroke-width="1.8" stroke-linecap="round" stroke-linejoin="round"/>
<path d="M311.659 126.367L299.489 163.841L307.076 166.169L319.246 128.695L311.659 126.367Z" stroke="#B8D8C7" stroke-width="1.8" stroke-linecap="round" stroke-linejoin="round"/>
<path d="M335.395 137.969H327.117V166.562H335.395V137.969Z" stroke="#B8D8C7" stroke-width="1.8" stroke-linecap="round" stroke-linejoin="round"/>
<path d="M512.935 132.422L513.819 120.781C513.836 120.599 513.813 120.415 513.752 120.242C513.69 120.069 513.592 119.911 513.462 119.778C513.333 119.645 513.176 119.54 513.002 119.471C512.828 119.401 512.641 119.369 512.453 119.375H505.541C505.355 119.376 505.171 119.413 505 119.485C504.829 119.557 504.675 119.662 504.548 119.794C504.42 119.925 504.321 120.08 504.257 120.25C504.193 120.42 504.165 120.601 504.174 120.781L505.058 132.422C505.058 132.422 497.825 136.953 497.905 140.703C497.986 143.594 499.754 157.422 500.558 163.516C500.66 164.336 501.068 165.091 501.705 165.638C502.342 166.186 503.164 166.487 504.014 166.484H513.98C514.83 166.487 515.651 166.186 516.288 165.638C516.925 165.091 517.333 164.336 517.436 163.516C518.239 157.422 520.007 143.594 520.088 140.703C520.168 136.875 512.935 132.422 512.935 132.422Z" fill="#B8D8C7"/>
<path d="M480.867 132.422L481.751 120.781C481.768 120.599 481.745 120.415 481.684 120.242C481.622 120.069 481.524 119.911 481.394 119.778C481.265 119.645 481.108 119.54 480.934 119.471C480.76 119.401 480.573 119.369 480.385 119.375H473.473C473.287 119.376 473.103 119.413 472.932 119.485C472.761 119.557 472.607 119.662 472.48 119.794C472.352 119.925 472.253 120.08 472.189 120.25C472.125 120.42 472.096 120.601 472.106 120.781L472.99 132.422C472.99 132.422 465.757 136.953 465.837 140.703C465.918 143.594 467.686 157.422 468.49 163.516C468.592 164.336 469 165.091 469.637 165.638C470.274 166.186 471.096 166.487 471.946 166.484H481.912C482.762 166.487 483.583 166.186 484.22 165.638C484.857 165.091 485.265 164.336 485.368 163.516C486.171 157.422 487.939 143.594 488.02 140.703C488.1 136.875 480.867 132.422 480.867 132.422Z" fill="#B8D8C7"/>
<path d="M-0.797119 317.578H767.39" stroke="#B8D8C7" stroke-width="1.8" stroke-linecap="round" stroke-linejoin="round"/>
</g>
<path d="M494.369 71.0156C494.449 70.3125 494.128 69.7656 493.565 69.7656C493.275 69.8495 493.021 70.0261 492.846 70.2671C492.671 70.508 492.585 70.7992 492.601 71.0938C492.521 71.7969 492.842 72.3438 493.324 72.3438C493.807 72.3438 494.289 71.7969 494.369 71.0156Z" fill="#63737A"/>
<path d="M499.272 70.625C499.352 69.9219 498.95 69.375 498.468 69.375C498.165 69.4743 497.901 69.6633 497.714 69.9154C497.526 70.1675 497.425 70.4702 497.423 70.7813C497.343 71.4844 497.745 72.0313 498.227 72.0313C498.709 72.0313 499.191 71.3281 499.272 70.625Z" fill="#63737A"/>
<path d="M393.584 101.406L367.302 102.969C366.98 102.988 366.658 102.941 366.356 102.83C366.055 102.719 365.781 102.547 365.553 102.325C365.325 102.104 365.148 101.838 365.034 101.544C364.92 101.251 364.871 100.938 364.891 100.625L368.347 50.2344C368.396 49.5841 368.668 48.9687 369.12 48.4869C369.572 48.0051 370.177 47.6851 370.839 47.5781L397.682 42.8906C398.017 42.8312 398.36 42.8461 398.688 42.9342C399.015 43.0223 399.318 43.1813 399.573 43.3992C399.828 43.6172 400.029 43.8885 400.161 44.1928C400.293 44.4971 400.352 44.8265 400.335 45.1562L396.397 98.5937C396.377 99.3205 396.077 100.014 395.556 100.535C395.035 101.056 394.33 101.367 393.584 101.406Z" fill="#22272E"/>
<path d="M391.574 100.859L365.293 102.422C364.971 102.441 364.649 102.394 364.347 102.283C364.046 102.172 363.772 102 363.544 101.779C363.316 101.557 363.139 101.291 363.025 100.998C362.91 100.704 362.862 100.391 362.882 100.078L366.338 49.6875C366.386 49.0373 366.658 48.4218 367.11 47.94C367.562 47.4583 368.168 47.1382 368.829 47.0312L395.673 42.3437C396.007 42.2843 396.351 42.2992 396.678 42.3873C397.006 42.4754 397.308 42.6344 397.564 42.8524C397.819 43.0704 398.02 43.3416 398.152 43.6459C398.284 43.9502 398.343 44.2796 398.325 44.6094L394.387 98.0469C394.368 98.7736 394.068 99.4667 393.547 99.9879C393.025 100.509 392.321 100.82 391.574 100.859Z" fill="#6DAFA7"/>
<path d="M382.01 49.2188L378.796 49.7656C378.474 49.8438 378.233 49.6094 378.233 49.2188C378.254 49.052 378.327 48.8954 378.442 48.7698C378.557 48.6443 378.708 48.5556 378.876 48.5156L382.091 47.9688C382.412 47.8906 382.653 48.125 382.653 48.5156C382.658 48.6903 382.594 48.8602 382.475 48.9908C382.356 49.1214 382.189 49.2029 382.01 49.2188Z" fill="#020202"/>
<path d="M384.582 48.8281L384.261 48.9063C383.939 48.9844 383.698 48.75 383.698 48.3594C383.712 48.1902 383.782 48.0301 383.898 47.9032C384.014 47.7764 384.17 47.6897 384.341 47.6563L384.662 47.5781C384.984 47.5 385.225 47.7344 385.225 48.125C385.211 48.2942 385.141 48.4543 385.025 48.5812C384.909 48.7081 384.753 48.7947 384.582 48.8281Z" fill="#020202"/>
<path d="M380.081 55.3125L371.964 56.5625C371.812 56.5801 371.657 56.5639 371.513 56.5151C371.368 56.4664 371.236 56.3864 371.128 56.2811C371.02 56.1758 370.937 56.048 370.887 55.9073C370.837 55.7665 370.821 55.6166 370.839 55.4688C370.867 55.1304 371.007 54.8101 371.239 54.5564C371.471 54.3027 371.782 54.1293 372.125 54.0625L380.242 52.8125C380.396 52.7825 380.556 52.7901 380.707 52.8344C380.857 52.8788 380.994 52.9586 381.106 53.0668C381.217 53.175 381.299 53.3082 381.345 53.4547C381.39 53.6011 381.398 53.7562 381.367 53.9063C381.339 54.2446 381.198 54.5649 380.966 54.8186C380.734 55.0723 380.424 55.2457 380.081 55.3125Z" fill="#22272E"/>
<path d="M390.369 69.5313L370.839 71.9531C370.693 71.9717 370.545 71.959 370.406 71.9156C370.266 71.8723 370.138 71.7996 370.03 71.7026C369.923 71.6056 369.839 71.4867 369.784 71.3545C369.729 71.2222 369.705 71.0798 369.714 70.9375L370.437 60.7812C370.449 60.5701 370.536 60.3695 370.682 60.2131C370.828 60.0566 371.026 59.9538 371.241 59.9219L390.851 57.0313C390.997 57.0126 391.144 57.0254 391.284 57.0687C391.424 57.112 391.552 57.1848 391.659 57.2818C391.767 57.3788 391.851 57.4977 391.906 57.6299C391.961 57.7622 391.985 57.9045 391.976 58.0469L391.173 68.6719C391.163 68.8839 391.078 69.0861 390.931 69.2432C390.784 69.4002 390.585 69.5022 390.369 69.5313Z" fill="#FFDCCD"/>
<path d="M378.313 79.1406L370.196 80C370.044 80.0176 369.889 80.0014 369.745 79.9526C369.6 79.9039 369.468 79.8239 369.36 79.7186C369.252 79.6133 369.169 79.4855 369.119 79.3447C369.069 79.204 369.052 79.0541 369.071 78.9062C369.091 78.5735 369.231 78.2581 369.466 78.0154C369.701 77.7726 370.016 77.6178 370.356 77.5781L378.474 76.7187C378.627 76.6945 378.784 76.706 378.932 76.7524C379.08 76.7988 379.215 76.8787 379.325 76.9855C379.435 77.0924 379.517 77.2231 379.565 77.3669C379.612 77.5106 379.624 77.6634 379.599 77.8125C379.581 78.1458 379.441 78.4619 379.206 78.705C378.971 78.9481 378.654 79.1024 378.313 79.1406Z" fill="#22272E"/>
<path d="M377.108 96.5625L369.071 97.1094C368.428 97.1875 367.945 96.6406 367.945 95.9375C367.978 95.609 368.123 95.3005 368.355 95.0602C368.588 94.8199 368.896 94.6614 369.231 94.6094L377.268 93.9844C377.427 93.9705 377.586 93.992 377.735 94.0473C377.883 94.1025 378.017 94.1899 378.126 94.3029C378.234 94.416 378.315 94.5516 378.361 94.6995C378.408 94.8473 378.419 95.0036 378.394 95.1562C378.391 95.5022 378.259 95.8354 378.022 96.094C377.786 96.3526 377.461 96.519 377.108 96.5625Z" fill="#F4C2C9"/>
<path d="M376.465 90.8594L369.472 91.4063C369.331 91.4242 369.187 91.4102 369.052 91.3655C368.916 91.3208 368.794 91.2465 368.693 91.1484C368.592 91.0503 368.515 90.9309 368.469 90.7995C368.423 90.6681 368.409 90.5283 368.427 90.3906L368.829 84.1406C368.831 83.9133 368.925 83.6959 369.091 83.5352C369.256 83.3745 369.48 83.2833 369.713 83.2813L376.786 82.5781C376.928 82.5602 377.072 82.5742 377.207 82.6189C377.342 82.6636 377.465 82.7379 377.566 82.836C377.667 82.9341 377.743 83.0535 377.789 83.1849C377.835 83.3162 377.849 83.4561 377.831 83.5938L377.349 90C377.32 90.2183 377.218 90.4211 377.058 90.5767C376.898 90.7322 376.689 90.8317 376.465 90.8594Z" fill="#FFDCCD"/>
<path d="M388.842 89.8438L381.367 90.4688C381.227 90.4793 381.087 90.4603 380.955 90.413C380.823 90.3657 380.704 90.2912 380.604 90.1947C380.505 90.0982 380.429 89.982 380.38 89.8539C380.331 89.7259 380.312 89.5892 380.322 89.4531L380.805 82.9688C380.807 82.7415 380.901 82.5241 381.066 82.3633C381.231 82.2026 381.455 82.1114 381.689 82.1094L389.163 81.4063C389.305 81.3884 389.449 81.4023 389.584 81.447C389.719 81.4917 389.842 81.566 389.943 81.6641C390.044 81.7622 390.12 81.8816 390.166 82.013C390.212 82.1444 390.227 82.2843 390.208 82.4219L389.726 88.9844C389.711 89.2075 389.613 89.4176 389.45 89.5757C389.288 89.7338 389.071 89.8291 388.842 89.8438Z" fill="white"/>
<path d="M153.354 37.3437C161.522 37.3437 168.143 30.9078 168.143 22.9687C168.143 15.0297 161.522 8.59375 153.354 8.59375C145.187 8.59375 138.566 15.0297 138.566 22.9687C138.566 30.9078 145.187 37.3437 153.354 37.3437Z" stroke="#6DAFA7" stroke-width="1.8" stroke-linecap="round" stroke-linejoin="round"/>
<path d="M147.809 22.5781C147.339 21.9696 147.085 21.2294 147.085 20.4687C147.085 19.7081 147.339 18.9679 147.809 18.3594C148.061 18.1118 148.362 17.9153 148.693 17.7812C149.024 17.6472 149.379 17.5781 149.738 17.5781C150.096 17.5781 150.451 17.6472 150.782 17.7812C151.114 17.9153 151.414 18.1118 151.667 18.3594C152.166 18.9525 152.423 19.7032 152.39 20.4687C152.436 21.2361 152.177 21.9914 151.667 22.5781C151.414 22.8257 151.114 23.0222 150.782 23.1562C150.451 23.2903 150.096 23.3594 149.738 23.3594C149.379 23.3594 149.024 23.2903 148.693 23.1562C148.362 23.0222 148.061 22.8257 147.809 22.5781ZM150.782 21.7969C151.039 21.3725 151.151 20.8806 151.104 20.3906C151.141 19.9014 151.029 19.4125 150.782 18.9844C150.67 18.8388 150.525 18.7207 150.357 18.6393C150.19 18.558 150.005 18.5156 149.818 18.5156C149.631 18.5156 149.446 18.558 149.279 18.6393C149.112 18.7207 148.966 18.8388 148.854 18.9844C148.569 19.3996 148.428 19.8922 148.452 20.3906C148.45 20.8864 148.589 21.373 148.854 21.7969C148.963 21.9457 149.108 22.0663 149.276 22.148C149.444 22.2297 149.63 22.2701 149.818 22.2656C150.005 22.2622 150.188 22.2183 150.355 22.1372C150.522 22.0561 150.668 21.9398 150.782 21.7969ZM156.569 17.5781H157.293C157.534 17.5781 157.694 17.8906 157.534 18.0469L150.461 28.125C150.381 28.2031 150.3 28.2812 150.22 28.2812H149.497C149.255 28.2812 149.095 27.9687 149.255 27.8125L156.328 17.7344C156.328 17.6562 156.408 17.5781 156.569 17.5781ZM155.123 27.6562C154.653 27.0477 154.399 26.3075 154.399 25.5469C154.399 24.7862 154.653 24.046 155.123 23.4375C155.375 23.19 155.676 22.9935 156.007 22.8594C156.338 22.7253 156.693 22.6562 157.051 22.6562C157.41 22.6562 157.765 22.7253 158.096 22.8594C158.427 22.9935 158.728 23.19 158.98 23.4375C159.45 24.046 159.704 24.7862 159.704 25.5469C159.704 26.3075 159.45 27.0477 158.98 27.6562C158.74 27.9188 158.441 28.1253 158.108 28.2606C157.774 28.3958 157.413 28.4563 157.051 28.4375C156.692 28.4406 156.336 28.3729 156.005 28.2387C155.673 28.1044 155.373 27.9063 155.123 27.6562ZM158.016 26.7969C158.227 26.3843 158.338 25.9297 158.338 25.4687C158.338 25.0078 158.227 24.5531 158.016 24.1406C157.881 23.9561 157.698 23.8087 157.487 23.7128C157.276 23.617 157.043 23.576 156.81 23.5937C156.494 23.653 156.209 23.819 156.007 24.0625C155.722 24.4777 155.581 24.9704 155.605 25.4687C155.592 25.9659 155.732 26.4555 156.007 26.875C156.09 27.0121 156.207 27.1269 156.347 27.2088C156.488 27.2906 156.647 27.3371 156.81 27.3438C157.044 27.3787 157.284 27.3454 157.498 27.248C157.713 27.1507 157.893 26.9937 158.016 26.7969Z" fill="#6DAFA7"/>
<path d="M355.97 42.7344C339.735 52.7344 322.455 51.9531 318.196 41.9531C314.418 33.2031 322.455 20.3906 335.556 12.6563C348.415 5.00001 363.525 3.82814 370.196 10.5469C377.67 18.125 371.803 32.8906 355.97 42.7344Z" fill="#22272E"/>
<path d="M353.961 39.5312C337.726 49.5312 320.446 48.75 316.186 38.75C312.409 30 320.446 17.1875 333.547 9.45312C346.406 1.79687 361.516 0.624997 368.187 7.34375C375.661 14.9219 369.794 29.6875 353.961 39.5312Z" fill="#FFDCCD"/>
<path d="M349.38 32.8906C339.655 38.8281 329.046 38.6719 326.072 32.8125C323.259 27.4219 328.161 19.2188 336.681 14.1406C345.2 9.0625 354.845 8.51563 358.783 13.0469C362.962 17.9688 359.024 26.9531 349.38 32.8906Z" fill="#6DAFA7"/>
<path d="M345.281 26.7969C341.423 29.1406 337.163 29.1406 335.797 26.9531C334.431 24.7656 336.36 21.3281 340.057 19.1406C343.754 16.9531 347.772 16.7969 349.299 18.8281C350.826 20.8594 349.058 24.4531 345.281 26.7969Z" fill="#F4C2C9"/>
<path d="M341.423 19.375C340.705 19.785 339.851 19.9082 339.042 19.7188C338.232 19.5294 337.53 19.042 337.083 18.3594L329.367 3.4375C329.183 3.05906 329.147 2.62863 329.266 2.22625C329.384 1.82388 329.648 1.47695 330.01 1.25C330.389 1.03211 330.838 0.959399 331.269 1.04609C331.7 1.13278 332.082 1.37263 332.341 1.71875L342.387 15.2344C342.612 15.5655 342.765 15.9372 342.838 16.3272C342.911 16.7173 342.902 17.1176 342.812 17.5042C342.722 17.8908 342.552 18.2558 342.313 18.5773C342.075 18.8987 341.772 19.1701 341.423 19.375Z" fill="#22272E"/>
<path d="M331.296 6.32812L327.84 6.09374C327.629 6.07996 327.418 6.12533 327.232 6.22448C327.046 6.32362 326.894 6.47239 326.792 6.65319C326.691 6.83399 326.645 7.03926 326.659 7.24471C326.674 7.45015 326.749 7.64719 326.876 7.8125C328.531 9.97464 330.791 11.6288 333.386 12.5781L334.993 13.2031C335.154 13.2812 335.395 13.0469 335.234 12.8906L332.1 6.87499C332.019 6.56249 331.698 6.40624 331.296 6.32812Z" fill="#6DAFA7"/>
<path d="M334.19 4.60938L335.636 1.5625C335.721 1.37139 335.861 1.20852 336.039 1.09407C336.218 0.979614 336.427 0.91861 336.641 0.91861C336.855 0.91861 337.064 0.979614 337.243 1.09407C337.421 1.20852 337.561 1.37139 337.646 1.5625C338.867 3.98339 339.315 6.70444 338.932 9.37501L338.69 11.0938C338.69 11.25 338.369 11.3281 338.289 11.1719L334.27 5.70312C334.177 5.53705 334.121 5.35346 334.107 5.16475C334.094 4.97604 334.122 4.78664 334.19 4.60938Z" fill="#6DAFA7"/>
<path d="M341.021 18.75L343.593 22.9687" stroke="#22272E" stroke-width="1.8" stroke-linecap="round" stroke-linejoin="round"/>
<path d="M269.893 362.422C268.124 359.375 251.005 362.422 251.005 362.422C251.005 362.422 251.327 368.906 251.488 373.828C257.269 376.192 263.711 376.55 269.732 374.844C269.651 369.766 269.893 362.422 269.893 362.422Z" fill="#B28D93"/>
<path d="M251.407 373.828C251.488 376.094 251.488 377.969 251.488 378.75C251.488 379.688 250.362 381.406 249.96 384.063C249.639 386.016 249.96 388.672 249.559 391.016C249.157 393.828 248.675 396.641 248.433 399.297C247.71 407.031 251.809 407.891 256.39 408.438C260.971 408.984 276.161 409.375 276.644 405.078C277.126 400.781 272.786 392.813 271.821 389.141C270.857 385.469 270.294 381.328 269.812 378.906C269.732 378.203 269.651 376.719 269.651 374.844C263.626 376.514 257.197 376.156 251.407 373.828Z" fill="#FFDCCD"/>
<path d="M276.724 405C276.242 409.297 261.052 408.828 256.471 408.359C251.89 407.891 247.791 406.953 248.514 399.219C248.755 396.641 249.157 393.75 249.639 390.937C250.041 388.594 249.639 385.937 250.041 383.984C250.361 382.404 250.845 380.86 251.488 379.375C251.809 381.406 253.417 382.031 253.577 386.484C253.818 391.094 253.336 393.437 258.882 391.953C266.196 390 269.009 392.422 270.536 391.25C271.822 390.156 271.339 386.406 271.259 385.703C271.5 386.797 271.741 387.969 271.982 389.062C272.786 392.734 277.206 400.781 276.724 405Z" fill="#22272E"/>
<path d="M267.803 369.453C268.484 369.28 269.155 369.072 269.812 368.828C269.893 365.391 269.973 362.344 269.973 362.344C268.205 359.297 251.086 362.344 251.086 362.344C251.086 362.344 251.166 364.688 251.327 367.656C256.31 369.531 262.016 370.703 267.803 369.453Z" fill="#896068"/>
<path d="M263.704 395.234C266.19 395.234 268.205 393.975 268.205 392.422C268.205 390.869 266.19 389.609 263.704 389.609C261.218 389.609 259.203 390.869 259.203 392.422C259.203 393.975 261.218 395.234 263.704 395.234Z" fill="white"/>
<path d="M297.701 375.781C298.103 378.828 298.344 381.484 298.183 382.187C297.781 383.828 296.495 390.703 295.45 393.672C294.406 396.641 288.458 405.078 292.396 407.656C296.335 410.234 316.427 408.672 318.597 406.875C320.767 405.078 320.044 400.078 319.24 393.672C318.437 387.266 316.026 380.703 316.026 379.766C316.026 379.453 315.945 377.031 315.865 374.062C310.4 376.719 304.05 377.734 297.701 375.781Z" fill="#FFDCCD"/>
<path d="M296.254 365.938C296.254 365.938 297.138 371.25 297.701 375.781C304.05 377.734 310.4 376.719 315.865 374.063C315.624 368.438 315.302 360.625 314.981 360.156C314.579 359.453 298.023 359.141 296.254 365.938Z" fill="#B28D93"/>
<path d="M318.678 406.875C316.508 408.672 296.415 410.313 292.477 407.656C288.539 405 294.486 396.563 295.531 393.672C296.254 391.563 297.138 387.344 297.701 384.531C297.54 385.469 296.254 392.813 297.701 393.281C299.148 393.75 303.086 390.703 308.149 391.797C313.213 392.891 315.785 393.594 315.785 390.547C315.785 387.5 314.82 382.5 315.302 381.641C315.785 380.781 316.106 379.844 316.106 379.844C316.106 380.781 318.517 387.344 319.321 393.75C320.125 400.156 320.848 405 318.678 406.875Z" fill="#22272E"/>
<path d="M315.624 368.672C315.463 364.453 315.222 360.469 314.981 360.156C314.579 359.453 297.942 359.141 296.174 365.938C296.174 365.938 296.495 368.125 296.978 370.859C303.648 372.266 309.917 371.094 315.624 368.672Z" fill="#896068"/>
<path d="M304.532 396.094C307.018 396.094 309.033 394.835 309.033 393.281C309.033 391.728 307.018 390.469 304.532 390.469C302.047 390.469 300.032 391.728 300.032 393.281C300.032 394.835 302.047 396.094 304.532 396.094Z" fill="white"/>
<path d="M312.65 166.406C312.65 166.406 320.446 180.234 316.026 214.609C311.605 248.984 309.355 257.656 310.158 259.844C310.962 262.031 314.9 278.516 315.141 303.984C315.383 329.453 315.945 341.641 318.276 348.75C320.607 355.859 321.651 361.172 315.543 365.391C309.435 369.609 298.826 369.062 293.843 366.797C288.86 364.531 288.619 360.703 289.021 352.188C289.423 343.672 285.083 317.266 281.466 301.25C279.296 291.563 277.447 280.391 276.242 272.344C275.659 268.876 275.256 265.382 275.036 261.875C275.036 258.828 270.214 213.984 270.214 211.719C270.214 209.453 264.99 207.891 263.704 198.281C262.418 188.672 264.749 166.484 264.749 166.484C264.749 166.484 308.23 160.391 312.65 166.406Z" fill="#22272E"/>
<path d="M239.512 163.75C239.512 163.75 230.752 184.219 235.735 221.406C240.718 258.594 241.361 262.187 241.602 263.828C241.843 265.469 242.004 293.281 244.335 317.422C246.665 341.563 242.004 353.984 244.335 359.844C246.665 365.703 254.14 367.187 259.364 366.953C264.588 366.719 274.393 364.922 274.393 355.547C274.393 346.172 273.107 331.406 274.393 311.719C275.679 292.031 277.608 271.953 278.171 262.578C278.733 253.203 284.6 198.828 285.645 191.094C286.69 183.359 282.993 170.781 268.446 165.859C253.899 161.094 239.512 163.75 239.512 163.75Z" fill="#22272E"/>
<path d="M234.208 196.719C234.208 196.719 238.95 195.625 240.637 189.844C241.599 186.674 242.298 183.434 242.727 180.156" stroke="#63737A" stroke-width="1.8" stroke-linecap="round" stroke-linejoin="round"/>
<path d="M317.231 198.75C317.231 198.75 311.043 195.938 309.114 189.531C307.185 183.125 307.426 179.531 307.426 179.531" stroke="#63737A" stroke-width="1.8" stroke-linecap="round" stroke-linejoin="round"/>
<path d="M259.284 205.625C263.865 205.781 270.053 210.781 270.053 210.781C272.211 209.077 274.556 207.61 277.046 206.406" stroke="#63737A" stroke-width="1.8" stroke-linecap="round" stroke-linejoin="round"/>
<path d="M257.194 275.938C263.675 275.938 268.928 270.691 268.928 264.219C268.928 257.747 263.675 252.5 257.194 252.5C250.713 252.5 245.46 257.747 245.46 264.219C245.46 270.691 250.713 275.938 257.194 275.938Z" stroke="#63737A" stroke-width="1.8" stroke-linecap="round" stroke-linejoin="round"/>
<path d="M290.709 275.938C297.189 275.938 302.443 270.691 302.443 264.219C302.443 257.747 297.189 252.5 290.709 252.5C284.228 252.5 278.975 257.747 278.975 264.219C278.975 270.691 284.228 275.938 290.709 275.938Z" stroke="#63737A" stroke-width="1.8" stroke-linecap="round" stroke-linejoin="round"/>
<path d="M276.242 272.266C275.659 268.798 275.257 265.304 275.036 261.797C275.036 258.75 270.214 213.906 270.214 211.641C270.214 209.375 264.99 207.813 263.704 198.203" stroke="#63737A" stroke-width="1.8" stroke-linecap="round" stroke-linejoin="round"/>
<path d="M188.396 57.1094C188.396 57.1094 187.673 54.7656 187.351 48.2031C187.271 46.6406 189.843 43.2031 190.164 42.1875C190.486 41.1719 192.897 41.5625 192.254 45C191.611 48.4375 194.103 54.7656 193.379 57.1875C192.656 59.6094 188.396 58.2031 188.396 57.1094Z" fill="#B28D93"/>
<path d="M181.806 36.25L203.506 79.8438C203.812 80.4982 204.312 81.0488 204.942 81.4247C205.572 81.8007 206.304 81.9847 207.042 81.9531L239.593 81.4063C239.924 81.4045 240.249 81.3215 240.539 81.165C240.828 81.0084 241.072 80.7835 241.249 80.5108C241.425 80.2382 241.528 79.9268 241.547 79.6053C241.567 79.2839 241.503 78.9628 241.361 78.6719L222.232 34.9219C221.932 34.2359 221.427 33.6533 220.782 33.2494C220.137 32.8455 219.383 32.6389 218.616 32.6563L183.574 33.4375C183.237 33.4474 182.909 33.5387 182.618 33.703C182.327 33.8673 182.083 34.0996 181.907 34.3788C181.732 34.6579 181.63 34.9752 181.613 35.3019C181.595 35.6286 181.661 35.9545 181.806 36.25Z" fill="#22272E"/>
<path d="M194.183 30.2344L206.239 29.7656C206.757 29.7592 207.264 29.9154 207.683 30.2109C208.103 30.5064 208.414 30.9256 208.569 31.4063L209.052 32.9688C209.089 33.0824 209.098 33.2029 209.08 33.3208C209.062 33.4386 209.016 33.5509 208.946 33.6489C208.876 33.747 208.784 33.8282 208.677 33.8863C208.57 33.9445 208.451 33.978 208.328 33.9844L193.781 34.375C193.596 34.3678 193.418 34.3032 193.274 34.1908C193.129 34.0784 193.025 33.9239 192.977 33.75L192.736 32.0313C192.695 31.819 192.7 31.6005 192.753 31.3905C192.805 31.1805 192.903 30.9838 193.04 30.8137C193.177 30.6435 193.35 30.5038 193.547 30.4039C193.744 30.3039 193.961 30.2462 194.183 30.2344Z" fill="#6DAFA7"/>
<path d="M225.849 107.813L223.117 110C223.117 110 219.5 98.9063 216.205 91.3281C212.909 83.75 210.82 74.1406 210.9 73.0469C210.981 71.9531 211.945 68.8281 209.775 65.5469C208.628 63.7077 207.025 62.1769 205.113 61.0938C205.113 61.0938 206.962 60.2344 210.418 58.8281C213.874 57.4219 212.266 55.8594 210.177 56.0938C208.087 56.3281 202.863 57.0313 202.863 57.0313L206.962 53.9063C208.489 52.7344 211.704 51.4844 210.9 50.2344C210.177 49.1406 206.801 50.3125 205.274 50.7813C203.747 51.25 198.362 53.8281 198.362 53.8281C198.362 53.8281 201.577 50.1563 203.024 48.3594C204.47 46.5625 208.328 44.8438 207.846 43.0469C207.364 41.25 202.622 43.8281 200.372 45.1563C198.121 46.4844 193.861 50.7031 193.861 50.7031C193.861 50.7031 194.022 46.6406 194.183 44.8438C194.344 43.0469 195.469 38.5156 194.103 37.4219C192.334 36.0156 191.37 40.3906 190.486 44.0625C189.602 47.7344 187.512 55.1563 187.994 57.3438C188.477 59.5313 191.209 62.1875 193.54 65.1563C195.871 68.125 198.362 71.6406 198.764 72.6563C199.166 73.6719 202.14 120.469 204.792 126.875C207.444 133.281 213.552 144.297 238.95 124.766C238.95 124.766 241.28 111.094 236.619 107.422C231.877 103.906 225.849 107.813 225.849 107.813Z" fill="#B28D93"/>
<path d="M256.953 82.7344C256.953 82.7344 250.764 83.8281 242.968 91.9531C235.172 100.078 225.849 107.813 225.849 107.813C225.849 107.813 233.083 123.438 237.423 128.125C237.423 128.125 252.613 118.281 258.56 112.5C264.508 106.719 265.552 84.7656 256.953 82.7344Z" fill="#6DAFA7"/>
<path d="M229.064 105.078C229.064 105.078 234.127 116.953 240.879 125.781" stroke="#22272E" stroke-width="1.8" stroke-linecap="round" stroke-linejoin="round"/>
<path d="M223.117 110C224.025 112.24 224.777 114.537 225.367 116.875" stroke="#896068" stroke-width="1.8" stroke-linecap="round" stroke-linejoin="round"/>
<path d="M202.863 57.0312C202.265 57.1554 201.675 57.3119 201.095 57.5C200.444 57.688 199.842 58.0075 199.327 58.4375" stroke="#896068" stroke-width="1.8" stroke-linecap="round" stroke-linejoin="round"/>
<path d="M205.033 61.0938C204.523 61.3335 204.039 61.6214 203.586 61.9531" stroke="#896068" stroke-width="1.8" stroke-linecap="round" stroke-linejoin="round"/>
<path d="M198.362 53.8281C197.653 54.2671 197.028 54.8222 196.514 55.4688" stroke="#896068" stroke-width="1.8" stroke-linecap="round" stroke-linejoin="round"/>
<path d="M193.861 50.7812C193.185 51.2302 192.564 51.7546 192.013 52.3438" stroke="#896068" stroke-width="1.8" stroke-linecap="round" stroke-linejoin="round"/>
<path d="M198.925 73.6719C198.925 73.6719 202.059 77.5 211.141 74.6094C211.141 74.6094 212.106 78.125 212.186 79.0625C212.186 79.0625 204.631 82.0313 199.407 78.4375C199.126 76.8626 198.965 75.2698 198.925 73.6719Z" fill="#22272E"/>
<path d="M202.904 80.6158C204.208 80.3562 204.927 78.5352 204.508 76.5484C204.09 74.5617 202.693 73.1616 201.389 73.4213C200.084 73.6809 199.366 75.5019 199.784 77.4886C200.202 79.4753 201.599 80.8754 202.904 80.6158Z" fill="white"/>
<path d="M253.738 84.7656C255.988 83.0469 258.239 80.9375 278.171 80.3125C301.077 79.6094 312.007 82.2656 315.141 95C318.276 107.734 305.095 137.422 305.095 140.859C305.095 144.297 313.373 161.016 314.338 168.594C314.338 168.594 303.166 180.547 274.956 180.156C246.746 179.766 237.342 168.594 237.342 165.703C237.342 162.812 247.148 146.328 248.192 139.062C249.237 131.797 239.432 122.578 239.834 113.281C240.236 103.984 248.594 96.0156 249.076 93.9844C250.202 90.2344 251.327 86.5625 253.738 84.7656Z" fill="#FFDCCD"/>
<path d="M264.427 87.9688C264.427 87.9688 264.347 103.594 271.259 114.687C271.259 114.687 283.395 102.656 287.574 90.4687C287.574 90.4687 278.09 93.4375 272.464 91.4844C269.679 90.5562 266.989 89.3793 264.427 87.9688Z" fill="#6DAFA7"/>
<path d="M270.455 78.2031C268.928 78.7682 267.539 79.6367 266.376 80.7533C265.214 81.8698 264.304 83.2097 263.704 84.6875C261.373 90 262.257 97.7344 264.347 97.6563C266.437 97.5781 274.474 92.0312 274.474 92.0312C274.474 92.0312 274.072 78.8281 270.455 78.2031Z" fill="white"/>
<path d="M274.393 92.1094L278.814 97.7344C281.145 100.703 283.395 103.984 289.182 94.9219C294.968 85.8594 291.271 79.6875 287.896 78.2031C284.52 76.7188 273.911 89.2188 274.393 92.1094Z" fill="white"/>
<path d="M270.455 72.1875C270.271 75.8236 269.896 79.4482 269.33 83.0469C268.526 87.4219 269.812 91.4063 274.393 92.1094C278.974 92.8125 288.378 87.9688 288.94 81.3281C288.94 81.3281 288.137 65.625 289.503 60.7031C290.869 55.7813 270.696 68.75 270.455 72.1875Z" fill="#B28D93"/>
<path d="M284.681 71.9531C281.707 76.5625 275.599 76.9531 270.134 77.0313C269.973 78.75 269.732 80.625 269.491 82.2656C276.403 81.9531 283.234 78.5156 284.681 71.9531Z" fill="#896068"/>
<path d="M313.052 163.203C291.512 176.875 258.4 178.594 238.869 161.562" stroke="#F8AB5D" stroke-width="1.8" stroke-linecap="round" stroke-linejoin="round"/>
<path d="M271.259 114.688C271.259 114.688 264.99 122.734 263.383 128.125" stroke="#F8AB5D" stroke-width="1.8" stroke-linecap="round" stroke-linejoin="round"/>
<path d="M272.143 120.156C272.397 120.156 272.646 120.23 272.857 120.367C273.069 120.504 273.234 120.699 273.331 120.928C273.428 121.156 273.454 121.408 273.404 121.65C273.354 121.893 273.232 122.115 273.052 122.29C272.872 122.465 272.643 122.584 272.394 122.632C272.144 122.68 271.886 122.656 271.651 122.561C271.416 122.466 271.215 122.306 271.074 122.101C270.932 121.895 270.857 121.653 270.857 121.406C270.857 121.075 270.992 120.757 271.234 120.522C271.475 120.288 271.802 120.156 272.143 120.156Z" fill="#F8AB5D"/>
<path d="M269.25 128.75C269.96 128.75 270.535 128.19 270.535 127.5C270.535 126.81 269.96 126.25 269.25 126.25C268.539 126.25 267.964 126.81 267.964 127.5C267.964 128.19 268.539 128.75 269.25 128.75Z" fill="#F8AB5D"/>
<path d="M326.072 107.422C326.072 107.422 332.1 120.781 335.074 131.016C338.047 141.25 334.993 147.578 328.483 150.625C321.973 153.672 316.829 145.859 307.104 122.187C307.104 122.266 321.652 103.359 326.072 107.422Z" fill="#B28D93"/>
<path d="M318.678 146.016C318.678 146.016 322.696 153.984 331.778 153.125C340.86 152.266 362.801 146.25 366.981 142.812C371.16 139.375 369.151 130.234 365.213 129.844C361.274 129.453 349.701 130.625 343.111 130.703C340.337 130.643 337.563 130.853 334.832 131.328C333.76 131.547 332.711 131.86 331.698 132.266C330.507 132.771 329.375 133.4 328.322 134.141C324.304 137.109 318.678 146.016 318.678 146.016Z" fill="#B28D93"/>
<path d="M334.993 131.406C333.921 131.625 332.872 131.939 331.859 132.344C330.667 132.849 329.536 133.478 328.483 134.219" stroke="#896068" stroke-width="1.8" stroke-linecap="round" stroke-linejoin="round"/>
<path d="M297.701 89.4531C299.389 85.2344 304.291 82.5 308.23 83.9844C312.526 85.6333 316.219 88.4892 318.839 92.1875C325.027 101.016 331.055 116.953 331.055 116.953C331.055 116.953 324.625 121.328 308.149 126.875C305.159 121.985 302.475 116.923 300.112 111.719C298.183 107.266 294.888 96.6406 297.701 89.4531Z" fill="#6DAFA7"/>
<path d="M306.381 122.734C306.381 122.734 318.758 119.688 329.206 112.578" stroke="#22272E" stroke-width="1.8" stroke-linecap="round" stroke-linejoin="round"/>
<path d="M339.815 134.063L394.307 128.672C394.63 128.628 394.959 128.649 395.274 128.732C395.588 128.816 395.882 128.961 396.138 129.158C396.393 129.355 396.605 129.601 396.76 129.88C396.915 130.159 397.01 130.465 397.04 130.781L402.585 172.969C402.68 173.568 402.531 174.18 402.172 174.675C401.812 175.17 401.269 175.511 400.656 175.625L347.451 186.797C347.116 186.877 346.768 186.886 346.43 186.824C346.091 186.763 345.77 186.631 345.489 186.439C345.207 186.246 344.971 185.997 344.796 185.709C344.622 185.42 344.513 185.099 344.477 184.766L337.645 136.875C337.582 136.55 337.59 136.216 337.667 135.894C337.744 135.572 337.889 135.269 338.093 135.004C338.297 134.74 338.556 134.519 338.852 134.357C339.149 134.195 339.477 134.095 339.815 134.063Z" fill="#6DAFA7"/>
<path d="M352.514 150.391L388.922 145.312C389.327 145.252 389.74 145.349 390.071 145.583C390.403 145.817 390.625 146.169 390.69 146.562L394.227 166.875C394.296 167.258 394.208 167.651 393.983 167.972C393.758 168.293 393.413 168.516 393.021 168.594L356.292 175.859C356.085 175.905 355.871 175.907 355.663 175.868C355.455 175.828 355.258 175.747 355.084 175.63C354.911 175.512 354.764 175.361 354.653 175.185C354.543 175.009 354.471 174.813 354.443 174.609L351.148 152.187C351.1 151.776 351.214 151.361 351.468 151.028C351.721 150.695 352.095 150.467 352.514 150.391Z" stroke="#22272E" stroke-width="1.8" stroke-linecap="round" stroke-linejoin="round"/>
<path d="M382.573 146.172L386.832 169.844" stroke="#22272E" stroke-width="1.8" stroke-linecap="round" stroke-linejoin="round"/>
<path d="M358.14 156.016L376.867 153.203" stroke="#22272E" stroke-width="1.8" stroke-linecap="round" stroke-linejoin="round"/>
<path d="M359.748 162.422L378.474 158.906" stroke="#22272E" stroke-width="1.8" stroke-linecap="round" stroke-linejoin="round"/>
<path d="M361.033 168.516L379.76 165" stroke="#22272E" stroke-width="1.8" stroke-linecap="round" stroke-linejoin="round"/>
<path d="M386.27 151.094L387.476 151.953L388.842 149.453" stroke="#22272E" stroke-width="1.8" stroke-linecap="round" stroke-linejoin="round"/>
<path d="M387.315 156.406L388.52 157.266L389.967 154.844" stroke="#22272E" stroke-width="1.8" stroke-linecap="round" stroke-linejoin="round"/>
<path d="M388.36 162.109L389.565 162.969L390.931 160.547" stroke="#22272E" stroke-width="1.8" stroke-linecap="round" stroke-linejoin="round"/>
<path d="M350.023 142.734L349.701 140.781C349.683 140.642 349.694 140.502 349.733 140.367C349.772 140.232 349.839 140.107 349.929 139.997C350.019 139.888 350.13 139.798 350.257 139.731C350.383 139.664 350.522 139.623 350.666 139.609L359.105 138.672C359.381 138.636 359.661 138.705 359.886 138.865C360.111 139.025 360.263 139.264 360.31 139.531L360.551 141.25C360.589 141.519 360.517 141.791 360.353 142.009C360.188 142.228 359.942 142.376 359.667 142.422L351.309 143.516C351.171 143.555 351.027 143.566 350.885 143.547C350.743 143.528 350.606 143.48 350.485 143.406C350.363 143.333 350.259 143.234 350.179 143.119C350.1 143.003 350.046 142.872 350.023 142.734Z" fill="#FFDCCD"/>
<path d="M381.93 128.437C380.724 127.187 380.081 126.719 375.42 126.406C373.812 126.328 370.919 126.484 368.588 126.562C367.463 126.562 366.74 126.328 365.936 126.406C363.525 126.797 360.712 129.531 359.346 130.469C357.979 131.406 355.488 132.578 355.488 132.578L363.445 131.797C363.688 131.759 363.938 131.8 364.155 131.913C364.373 132.026 364.546 132.204 364.65 132.422C365.342 133.732 365.933 135.09 366.418 136.484C367.383 139.453 368.428 143.203 369.794 142.266C370.598 141.719 370.598 139.219 370.356 137.5C370.356 137.734 370.437 137.891 370.437 138.125C370.678 141.094 370.196 145.547 371.964 145.625C373.571 145.703 373.812 143.828 373.812 143.828C373.856 143.978 373.933 144.116 374.036 144.235C374.14 144.353 374.268 144.449 374.412 144.515C374.557 144.582 374.714 144.618 374.874 144.62C375.034 144.623 375.193 144.593 375.339 144.531C376.625 144.062 378.474 140.234 379.037 137.969C379.117 138.984 378.876 139.375 379.599 139.609C381.126 140.078 382.332 135.312 382.734 131.875C382.975 129.687 382.573 129.062 381.93 128.437Z" fill="#B28D93"/>
<path d="M373.732 143.75C373.732 143.75 374.536 139.687 374.857 138.047C375.14 135.711 375.14 133.351 374.857 131.016C374.661 130.339 374.391 129.684 374.053 129.062" stroke="#896068" stroke-width="1.8" stroke-linecap="round" stroke-linejoin="round"/>
<path d="M379.037 137.891C379.534 135.781 379.883 133.64 380.081 131.484C380.041 130.665 379.907 129.853 379.68 129.062" stroke="#896068" stroke-width="1.8" stroke-linecap="round" stroke-linejoin="round"/>
<path d="M370.437 139.141C370.521 137.736 370.521 136.327 370.437 134.922C370.095 133.186 369.584 131.485 368.91 129.844" stroke="#896068" stroke-width="1.8" stroke-linecap="round" stroke-linejoin="round"/>
<path d="M303.086 41.4844C303.08 39.2501 302.323 37.0789 300.93 35.3017C299.537 33.5245 297.585 32.2388 295.37 31.6406C295.129 29.1127 293.923 26.7641 291.989 25.0578C290.055 23.3514 287.534 22.411 284.922 22.4219C283.654 22.4134 282.396 22.6525 281.225 23.125C280.242 22.0315 279.032 21.1529 277.674 20.547C276.317 19.941 274.842 19.6215 273.349 19.6094C271.606 19.5944 269.889 20.0094 268.357 20.8156C266.825 21.6218 265.528 22.7927 264.588 24.2188C264.267 24.2188 263.945 24.1406 263.624 24.1406C261.71 24.1433 259.834 24.6568 258.2 25.6252C256.566 26.5935 255.236 27.9796 254.357 29.632C253.478 31.2845 253.083 33.1399 253.215 34.9958C253.347 36.8517 254 38.6368 255.104 40.1562C254.429 41.5219 254.072 43.0159 254.06 44.5313C254.06 45.865 254.33 47.1857 254.855 48.4179C255.38 49.6501 256.15 50.7697 257.12 51.7128C258.09 52.6559 259.242 53.404 260.509 53.9144C261.777 54.4248 263.136 54.6875 264.508 54.6875C265.88 54.6875 267.238 54.4248 268.506 53.9144C269.774 53.404 270.926 52.6559 271.896 51.7128C272.866 50.7697 273.636 49.6501 274.161 48.4179C274.686 47.1857 274.956 45.865 274.956 44.5313C274.965 42.9544 274.579 41.3992 273.831 40C274.924 39.9126 276.002 39.7029 277.046 39.375C278.418 40.8728 280.203 41.9573 282.189 42.5C282.36 43.919 282.796 45.2958 283.475 46.5625C282.523 47.8662 281.901 49.3701 281.66 50.9517C281.418 52.5334 281.564 54.148 282.086 55.6644C282.608 57.1807 283.491 58.5558 284.663 59.6778C285.835 60.7999 287.263 61.6371 288.83 62.1213C290.398 62.6056 292.061 62.7233 293.684 62.4647C295.308 62.2061 296.845 61.5787 298.172 60.6334C299.498 59.6881 300.577 58.4517 301.319 57.0248C302.061 55.5979 302.446 54.0208 302.443 52.4219C302.448 50.6673 301.977 48.9425 301.077 47.4219C302.404 45.7134 303.111 43.6252 303.086 41.4844Z" fill="#22272E"/>
<path d="M273.911 37.1094C270.518 37.0734 267.238 38.2989 264.743 40.5352C262.249 42.7716 260.727 45.8499 260.489 49.1406C260.248 52.1875 259.927 56.4063 259.364 59.9219C258.4 66.0156 259.364 75.0781 269.25 77.2656C279.135 79.4531 288.78 70.2344 290.95 62.2656C293.12 54.2969 294.968 42.6563 283.315 38.8281C280.282 37.8159 277.115 37.237 273.911 37.1094Z" fill="#B28D93"/>
<path d="M287.815 58.4375C287.815 58.4375 286.288 57.1875 285.806 52.1094C285.767 51.7954 285.631 51.5004 285.415 51.2632C285.2 51.0261 284.916 50.858 284.6 50.7813C282.832 50.3906 279.617 48.5938 278.492 41.4844C275.4 43.5154 271.976 45.0212 268.365 45.9375C262.9 47.1875 259.444 42.3438 257.676 39.8438C254.542 35.3906 254.943 34.2969 256.39 32.5781C263.543 23.9844 276.242 27.5781 278.572 28.3594C280.903 29.1406 289.181 28.5156 294.888 34.4531C300.594 40.3906 299.308 48.9063 297.781 54.1406C296.254 59.375 288.619 68.6719 288.619 69.375C288.619 70.0781 287.815 58.4375 287.815 58.4375Z" fill="#22272E"/>
<path d="M286.69 58.8281C286.69 58.8281 288.217 54.9219 291.673 55.4688C294.406 55.8594 294.968 65 288.298 66.3281" fill="#B28D93"/>
<path d="M265.874 54.6094C265.9 55.4843 265.678 56.3494 265.231 57.1094C264.99 57.492 264.722 57.8575 264.427 58.2031C264.267 58.3594 264.186 58.5156 264.106 58.5938C264.026 58.6719 263.945 58.8281 263.865 58.9844C263.755 59.2505 263.712 59.5382 263.74 59.8237C263.768 60.1091 263.866 60.3838 264.026 60.625C264.424 61.3063 264.973 61.8933 265.633 62.3437C264.703 62.3103 263.818 61.9493 263.141 61.3281C262.762 60.9708 262.509 60.5059 262.418 60C262.271 59.4518 262.328 58.8706 262.579 58.3594C262.682 58.1093 262.817 57.873 262.981 57.6562L263.463 57.1875C263.784 56.9531 264.026 56.6406 264.347 56.4063C264.829 55.8594 265.312 55.3125 265.874 54.6094Z" fill="#22272E"/>
<path d="M271.098 67.8906C272.073 67.7932 273.004 67.4451 273.795 66.8822C274.586 66.3192 275.209 65.5617 275.599 64.6875" stroke="#22272E" stroke-width="1.8" stroke-linecap="round" stroke-linejoin="round"/>
<path d="M274.313 50.1563C273.831 49.6094 273.831 48.2031 274.795 47.8906C275.76 47.5781 278.331 47.8906 280.019 50C281.707 52.1094 278.331 50.4688 277.367 50.3125C276.402 50.1563 274.715 50.5469 274.313 50.1563Z" fill="#22272E"/>
<path d="M264.749 49.4531C264.86 49.492 264.977 49.5086 265.095 49.5019C265.212 49.4953 265.327 49.4654 265.432 49.4143C265.537 49.3631 265.631 49.2917 265.707 49.2044C265.783 49.117 265.84 49.0156 265.874 48.9062C265.977 48.6654 266.016 48.4034 265.988 48.1442C265.96 47.8849 265.865 47.6366 265.713 47.4219C265.311 46.875 262.016 47.2656 261.454 48.75C261.052 49.7656 263.141 48.9062 263.865 49.1406C264.178 49.1873 264.478 49.2935 264.749 49.4531Z" fill="#22272E"/>
<path d="M263.945 54.4531C263.969 54.2886 263.958 54.1212 263.914 53.9607C263.87 53.8003 263.793 53.65 263.688 53.5189C263.583 53.3878 263.452 53.2785 263.303 53.1974C263.154 53.1163 262.99 53.0651 262.82 53.0469C262.651 53.0239 262.478 53.0342 262.313 53.0771C262.148 53.12 261.994 53.1947 261.859 53.2966C261.724 53.3986 261.612 53.5258 261.528 53.6708C261.445 53.8158 261.392 53.9755 261.373 54.1406V54.4531L263.945 54.7656V54.4531Z" fill="#22272E"/>
<path d="M276.403 55.9375C276.445 55.606 276.351 55.2716 276.14 55.0079C275.929 54.7441 275.619 54.5727 275.277 54.5312C274.936 54.4898 274.592 54.5818 274.321 54.7869C274.05 54.992 273.873 55.2935 273.831 55.625V55.8594L276.403 56.1719V55.9375Z" fill="#22272E"/>
<path d="M292.075 58.9844C291.858 58.8481 291.609 58.7674 291.352 58.75C291.191 58.75 291.111 58.9062 290.95 58.9844L290.869 59.0625V59.9219C290.92 60.5217 290.893 61.1254 290.789 61.7187C290.682 62.0895 290.457 62.4177 290.146 62.6562C289.995 62.7562 289.823 62.822 289.642 62.8491C289.461 62.8761 289.276 62.8636 289.101 62.8125C289.342 62.5781 289.584 62.4219 289.584 62.1875C289.664 61.9865 289.664 61.7634 289.584 61.5625C289.503 61.1719 289.423 60.625 289.342 60C289.332 59.6596 289.359 59.3192 289.423 58.9844C289.514 58.7684 289.621 58.5595 289.744 58.3594C289.836 58.2629 289.945 58.1834 290.066 58.125L290.307 57.9687C290.492 57.8723 290.699 57.8219 290.91 57.8219C291.12 57.8219 291.327 57.8723 291.512 57.9687C291.686 58.0792 291.828 58.2299 291.926 58.4073C292.024 58.5846 292.076 58.783 292.075 58.9844Z" fill="#22272E"/>
<path d="M264.438 55.5243C264.808 52.1346 262.924 49.1619 260.232 48.8845C257.539 48.6071 255.057 51.1301 254.687 54.5197C254.318 57.9094 256.201 60.8821 258.893 61.1595C261.586 61.4369 264.068 58.9139 264.438 55.5243Z" stroke="#22272E" stroke-width="1.8" stroke-linecap="round" stroke-linejoin="round"/>
<path d="M282.122 56.8714C282.491 53.4818 280.286 50.4759 277.196 50.1576C274.107 49.8392 271.302 52.329 270.933 55.7187C270.563 59.1083 272.768 62.1142 275.858 62.4326C278.948 62.7509 281.752 60.2611 282.122 56.8714Z" stroke="#22272E" stroke-width="1.8" stroke-linecap="round" stroke-linejoin="round"/>
<path d="M264.508 54.6875C264.508 54.6875 266.115 53.4375 271.018 55.3906" stroke="#22272E" stroke-width="1.8" stroke-linecap="round" stroke-linejoin="round"/>
<path d="M282.109 56.3281L287.815 57.1094" stroke="#22272E" stroke-width="1.8" stroke-linecap="round" stroke-linejoin="round"/>
<path d="M196.273 180.625C195.308 180.625 199.488 171.094 203.747 172.422C208.007 173.75 201.658 180.625 196.273 180.625Z" fill="#6DAFA7"/>
<path d="M196.755 181.875C196.755 181.875 192.093 176.25 187.512 177.5C182.931 178.75 188.638 185.234 196.755 181.875Z" fill="#6DAFA7"/>
<path d="M195.389 176.25C195.389 176.25 202.301 164.688 199.327 161.953C194.183 157.031 187.673 171.563 195.389 176.25Z" fill="#6DAFA7"/>
<path d="M206.962 202.5L196.835 204.687C195.463 204.979 194.029 204.796 192.781 204.168C191.533 203.54 190.551 202.508 190.004 201.25L185.423 190.469C185.215 189.979 185.121 189.451 185.146 188.922C185.171 188.393 185.315 187.875 185.567 187.406C185.82 186.937 186.176 186.527 186.609 186.206C187.042 185.885 187.543 185.66 188.075 185.547L206.399 181.562C206.932 181.451 207.482 181.453 208.014 181.567C208.545 181.681 209.046 181.905 209.48 182.224C209.915 182.543 210.274 182.949 210.533 183.414C210.791 183.88 210.944 184.394 210.981 184.922L211.543 196.562C211.626 197.919 211.211 199.26 210.372 200.347C209.533 201.435 208.325 202.197 206.962 202.5Z" fill="#22272E"/>
<path d="M197.398 184.297C197.398 184.297 194.183 174.844 195.389 170.391" stroke="black" stroke-width="1.8" stroke-linecap="round" stroke-linejoin="round"/>
</svg>
