<svg id="epONLP8VIy21" xmlns="http://www.w3.org/2000/svg" xmlns:xlink="http://www.w3.org/1999/xlink" viewBox="0 0 543 470" shape-rendering="geometricPrecision" text-rendering="geometricPrecision">
<style><![CDATA[
#epONLP8VIy22_ts {animation: epONLP8VIy22_ts__ts 1600ms linear infinite normal forwards}@keyframes epONLP8VIy22_ts__ts { 0% {transform: translate(271.507874px,270.86px) scale(1,1)} 50% {transform: translate(271.507874px,270.86px) scale(0.95,0.95)} 100% {transform: translate(271.507874px,270.86px) scale(1,1)}} #epONLP8VIy241_to {animation: epONLP8VIy241_to__to 1600ms linear infinite normal forwards}@keyframes epONLP8VIy241_to__to { 0% {transform: translate(381.607712px,122.64px)} 50% {transform: translate(381.607712px,132.64px)} 100% {transform: translate(381.607712px,122.64px)}} #epONLP8VIy252_to {animation: epONLP8VIy252_to__to 1600ms linear infinite normal forwards}@keyframes epONLP8VIy252_to__to { 0% {transform: translate(153.354499px,72.97px)} 50% {transform: translate(153.354499px,62.97px)} 100% {transform: translate(153.354499px,72.97px)}} #epONLP8VIy255 {animation: epONLP8VIy255__tt 1600ms linear infinite normal forwards}@keyframes epONLP8VIy255__tt { 0% {transform: translate(304.332749px,25.386899px) rotate(5deg) scale(1,1.1) translate(-304.332748px,-18.39px)} 50% {transform: translate(304.332749px,25.386899px) rotate(5deg) scale(1,1.1) translate(-304.332748px,-16.39px)} 100% {transform: translate(304.332749px,25.386899px) rotate(5deg) scale(1,1.1) translate(-304.332748px,-18.39px)}} #epONLP8VIy259_to {animation: epONLP8VIy259_to__to 1600ms linear infinite normal forwards}@keyframes epONLP8VIy259_to__to { 0% {transform: translate(290.52px,12.79px)} 50% {transform: translate(299.52px,13.79px)} 100% {transform: translate(290.52px,12.79px)}} #epONLP8VIy2133_to {animation: epONLP8VIy2133_to__to 1600ms linear infinite normal forwards}@keyframes epONLP8VIy2133_to__to { 0% {transform: translate(273.357918px,115.86px)} 50% {transform: translate(273.357918px,113.86px)} 100% {transform: translate(273.357918px,115.86px)}}
]]></style>
<g id="epONLP8VIy22_ts" transform="translate(271.507874,270.86) scale(1,1)"><path d="M475.884,414.297L57.9541,402.656c-9.3969-.253-18.3762-3.829-25.2559-10.056s-11.1875-14.679-12.1167-23.772L0.408344,175.078c-.53708-5.186.03982-10.424,1.694136-15.382c1.65432-4.959,4.35-9.529,7.91622-13.421c3.5663-3.893,7.9254-7.023,12.8012-9.192c4.8758-2.17,10.1619-3.331,15.5236-3.411l465.1875-6.25c5.532-.073,11.016,1.007,16.083,3.166c5.067,2.16,9.599,5.349,13.292,9.353s6.461,8.731,8.118,13.862s2.164,10.547,1.487,15.885l-27.085,211.64c-1.207,9.285-5.923,17.803-13.231,23.896s-16.687,9.327-26.311,9.073Z" transform="translate(-271.507874,-270.864723)" fill="#eaf9f3"/></g><g mask="url(#epONLP8VIy237)"><g><path d="M134.789,449.453h-333.942c-3.197,0-6.264-1.235-8.525-3.432-2.261-2.198-3.531-5.179-3.531-8.287v-184.14c0-3.108,1.27-6.089,3.531-8.287c2.261-2.197,5.328-3.432,8.525-3.432h333.942c3.197,0,6.264,1.235,8.524,3.432c2.261,2.198,3.531,5.179,3.531,8.287v184.062c.011,1.546-.293,3.078-.894,4.509s-1.487,2.732-2.608,3.828c-1.121,1.097-2.453,1.967-3.921,2.561-1.468.593-3.042.899-4.632.899Z" fill="none" stroke="#b8d8c7" stroke-width="1.8" stroke-linecap="round" stroke-linejoin="round"/><path d="M576.106,437.109h-336.835c-3.197,0-6.264-1.234-8.524-3.432-2.261-2.198-3.531-5.178-3.531-8.286v-268.985c0-3.108,1.27-6.088,3.531-8.286c2.26-2.198,5.327-3.432,8.524-3.432h336.835c3.198-.001,6.264,1.234,8.525,3.432s3.531,5.178,3.531,8.286v268.985c0,3.108-1.27,6.088-3.531,8.286s-5.327,3.432-8.525,3.432Z" fill="none" stroke="#b8d8c7" stroke-width="1.8" stroke-linecap="round" stroke-linejoin="round"/><path d="M42.5229,241.875h-16.3154c-.85.002-1.6713-.299-2.3083-.846s-1.0453-1.302-1.1476-2.123l-1.286-11.25c-.053-.472-.0032-.95.1463-1.402s.3952-.868.7212-1.222.7249-.637,1.1709-.831.929-.294,1.4176-.295h18.8872c.4882.002.9706.103,1.416.298.4454.194.8438.477,1.1696.83.3257.354.5715.77.7214,1.222.15.451.2007.928.149,1.4l-1.286,11.25c-.1023.821-.5106,1.576-1.1476,2.123s-1.4583.848-2.3083.846Z" fill="none" stroke="#b8d8c7" stroke-width="1.8" stroke-linecap="round" stroke-linejoin="round"/><path d="M32.396,223.984c0,0-6.4296-.625-7.7156-9.062c0,0,5.7867,1.641,7.6353,5.625c0,0,.8037-8.906,5.1437-9.766c0,0,1.9289,6.641-1.1252,9.922c0,0,2.3308-3.75,8.2783-3.672-.562,1.646-1.5296,3.132-2.8184,4.331-1.2889,1.198-2.8598,2.072-4.5758,2.544" fill="#b8d8c7"/><path d="M132.217,280.781h-72.4947c-.8933-.006-1.7483-.354-2.38-.968s-.9893-1.445-.9956-2.313v-21.406c.0063-.869.364-1.7.9956-2.314s1.4867-.961,2.38-.968h72.4947c.893.007,1.748.354,2.38.968s.989,1.445.996,2.314v21.406c.011.434-.069.865-.235,1.268s-.414.769-.73,1.076c-.315.307-.692.548-1.106.709-.415.161-.859.239-1.305.228Z" fill="none" stroke="#b8d8c7" stroke-width="1.8" stroke-linecap="round" stroke-linejoin="round"/><path d="M104.328,260.312h-16.7169c-.3172-.007-.6191-.133-.8435-.352-.2243-.218-.3539-.511-.3621-.819.0082-.309.1378-.602.3621-.82.2244-.218.5263-.344.8435-.352h16.7169c.317.008.619.134.844.352.224.218.354.511.362.82-.008.308-.138.601-.362.819-.225.219-.527.345-.844.352Z" fill="#b8d8c7"/><path d="M104.328,296.094h-16.7169c-.3172-.008-.6191-.134-.8435-.352-.2243-.218-.3539-.512-.3621-.82.0082-.308.1378-.602.3621-.82.2244-.218.5263-.344.8435-.352h16.7169c.317.008.619.134.844.352.224.218.354.512.362.82.003.155-.026.308-.085.452-.06.144-.148.274-.261.384-.113.109-.247.195-.395.253-.147.058-.306.086-.465.083Z" fill="#b8d8c7"/><path d="M504.496,341.797h-72.495c-.893-.006-1.748-.354-2.38-.968s-.989-1.445-.996-2.313v-21.407c.007-.868.364-1.699.996-2.313s1.487-.962,2.38-.968h72.495c.893.006,1.748.354,2.38.968.631.614.989,1.445.995,2.313v21.407c.011.433-.068.865-.234,1.268s-.414.769-.73,1.076c-.315.307-.692.548-1.106.709-.415.161-.859.239-1.305.228Z" fill="none" stroke="#b8d8c7" stroke-width="1.8" stroke-linecap="round" stroke-linejoin="round"/><path d="M476.607,321.406h-16.717c-.317-.008-.619-.134-.844-.352-.224-.218-.354-.511-.362-.82.008-.308.138-.601.362-.82.225-.218.527-.344.844-.351h16.717c.317.007.619.133.844.351.224.219.354.512.362.82-.008.309-.138.602-.362.82-.225.218-.527.344-.844.352Z" fill="#b8d8c7"/><path d="M411.426,341.797h-72.495c-.893-.006-1.748-.354-2.38-.968-.631-.614-.989-1.445-.995-2.313v-21.407c.006-.868.364-1.699.995-2.313.632-.614,1.487-.962,2.38-.968h72.495c.893.006,1.748.354,2.38.968s.989,1.445.996,2.313v21.407c-.007.868-.364,1.699-.996,2.313s-1.487.962-2.38.968Z" fill="none" stroke="#b8d8c7" stroke-width="1.8" stroke-linecap="round" stroke-linejoin="round"/><path d="M383.537,321.406h-16.717c-.317-.008-.619-.134-.843-.352-.225-.218-.354-.511-.362-.82.008-.308.137-.601.362-.82.224-.218.526-.344.843-.351h16.717c.317.007.619.133.844.351.224.219.354.512.362.82-.008.309-.138.602-.362.82-.225.218-.527.344-.844.352Z" fill="#b8d8c7"/><path d="M39.7902,280.781h-72.4947c-.8933-.006-1.7482-.354-2.3799-.968s-.9894-1.445-.9957-2.313v-21.406c.0063-.869.364-1.7.9957-2.314s1.4866-.961,2.3799-.968h72.4947c.8933.007,1.7483.354,2.38.968.6316.614.9893,1.445.9956,2.314v21.406c.011.434-.0687.865-.2345,1.268s-.4139.769-.7296,1.076-.6922.548-1.1068.709-.8584.239-1.3047.228Z" fill="none" stroke="#b8d8c7" stroke-width="1.8" stroke-linecap="round" stroke-linejoin="round"/><path d="M11.9015,260.312h-16.71717c-.31718-.007-.61911-.133-.84346-.352-.22435-.218-.35397-.511-.36211-.819.00814-.309.13776-.602.36211-.82s.52628-.344.84346-.352h16.71717c.3172.008.6191.134.8435.352s.3539.511.3621.82c.0033.154-.0257.308-.0851.452-.0594.143-.1481.274-.2607.383-.1126.11-.2468.196-.3946.254s-.306.086-.4652.082Z" fill="#b8d8c7"/><path d="M39.7902,316.563h-72.4947c-.8933-.007-1.7482-.354-2.3799-.968s-.9894-1.445-.9957-2.314v-21.406c.0063-.868.364-1.699.9957-2.313s1.4866-.962,2.3799-.968h72.4947c.8933.006,1.7483.354,2.38.968.6316.614.9893,1.445.9956,2.313v21.406c.011.434-.0687.866-.2345,1.269-.1657.402-.4139.768-.7296,1.075s-.6922.548-1.1068.71c-.4145.161-.8584.238-1.3047.228Z" fill="none" stroke="#b8d8c7" stroke-width="1.8" stroke-linecap="round" stroke-linejoin="round"/><path d="M11.9015,296.094h-16.71717c-.31718-.008-.61911-.134-.84346-.352s-.35397-.512-.36211-.82c.00814-.308.13776-.602.36211-.82s.52628-.344.84346-.352h16.71717c.3172.008.6191.134.8435.352s.3539.512.3621.82c.0093.156-.0155.313-.0727.459s-.1458.279-.2597.39c-.1138.11-.2505.196-.401.252s-.3114.08-.4722.071Z" fill="#b8d8c7"/><path d="M610.023,226.562h-365.688c-.978-.01-1.912-.392-2.603-1.063-.691-.672-1.084-1.58-1.094-2.53v-62.266c.01-.95.403-1.858,1.094-2.53s1.625-1.053,2.603-1.064h365.688c.978.011,1.912.392,2.603,1.064s1.084,1.58,1.094,2.53v62.266c.001.472-.094.94-.279,1.376-.185.437-.458.833-.801,1.167-.344.334-.752.599-1.201.779s-.93.273-1.416.271Z" fill="none" stroke="#b8d8c7" stroke-width="1.8" stroke-linecap="round" stroke-linejoin="round"/><path d="M610.023,303.828h-365.688c-.978-.01-1.912-.392-2.603-1.064-.691-.671-1.084-1.58-1.094-2.53v-62.265c.01-.95.403-1.858,1.094-2.53s1.625-1.054,2.603-1.064h365.688c.978.01,1.912.392,2.603,1.064s1.084,1.58,1.094,2.53v62.265c.008.474-.083.945-.266,1.384-.183.44-.455.839-.8,1.174-.344.335-.755.6-1.207.778s-.936.266-1.424.258Z" fill="none" stroke="#b8d8c7" stroke-width="1.8" stroke-linecap="round" stroke-linejoin="round"/><path d="M273.268,187.266h-7.956v39.296h7.956v-39.296Z" fill="none" stroke="#b8d8c7" stroke-width="1.8" stroke-linecap="round" stroke-linejoin="round"/><path d="M281.466,197.969h-8.278v28.593h8.278v-28.593Z" fill="none" stroke="#b8d8c7" stroke-width="1.8" stroke-linecap="round" stroke-linejoin="round"/><path d="M513.015,264.453h-7.957v39.297h7.957v-39.297Z" fill="none" stroke="#b8d8c7" stroke-width="1.8" stroke-linecap="round" stroke-linejoin="round"/><path d="M521.293,275.156h-8.278v28.594h8.278v-28.594Z" fill="none" stroke="#b8d8c7" stroke-width="1.8" stroke-linecap="round" stroke-linejoin="round"/><path d="M496.861,264.453h-7.957v39.297h7.957v-39.297Z" fill="none" stroke="#b8d8c7" stroke-width="1.8" stroke-linecap="round" stroke-linejoin="round"/><path d="M481.401,263.559l-12.17,37.474l7.588,2.329l12.17-37.474-7.588-2.329Z" fill="none" stroke="#b8d8c7" stroke-width="1.8" stroke-linecap="round" stroke-linejoin="round"/><path d="M505.139,275.156h-8.278v28.594h8.278v-28.594Z" fill="none" stroke="#b8d8c7" stroke-width="1.8" stroke-linecap="round" stroke-linejoin="round"/><path d="M405.72,187.266h-7.957v39.296h7.957v-39.296Z" fill="none" stroke="#b8d8c7" stroke-width="1.8" stroke-linecap="round" stroke-linejoin="round"/><path d="M413.998,197.969h-8.278v28.593h8.278v-28.593Z" fill="none" stroke="#b8d8c7" stroke-width="1.8" stroke-linecap="round" stroke-linejoin="round"/><path d="M327.117,187.266h-7.957v39.296h7.957v-39.296Z" fill="none" stroke="#b8d8c7" stroke-width="1.8" stroke-linecap="round" stroke-linejoin="round"/><path d="M311.659,186.367l-12.17,37.474l7.587,2.328l12.17-37.474-7.587-2.328Z" fill="none" stroke="#b8d8c7" stroke-width="1.8" stroke-linecap="round" stroke-linejoin="round"/><path d="M335.395,197.969h-8.278v28.593h8.278v-28.593Z" fill="none" stroke="#b8d8c7" stroke-width="1.8" stroke-linecap="round" stroke-linejoin="round"/><path d="M512.935,192.422l.884-11.641c.017-.182-.006-.366-.067-.539-.062-.173-.16-.331-.29-.464-.129-.133-.286-.238-.46-.307-.174-.07-.361-.102-.549-.096h-6.912c-.186.001-.37.038-.541.11s-.325.177-.452.309c-.128.131-.227.286-.291.456s-.092.351-.083.531l.884,11.641c0,0-7.233,4.531-7.153,8.281.081,2.891,1.849,16.719,2.653,22.813.102.82.51,1.575,1.147,2.122.637.548,1.459.849,2.309.846h9.966c.85.003,1.671-.298,2.308-.846.637-.547,1.045-1.302,1.148-2.122.803-6.094,2.571-19.922,2.652-22.813.08-3.828-7.153-8.281-7.153-8.281Z" fill="#b8d8c7"/><path d="M480.867,192.422l.884-11.641c.017-.182-.006-.366-.067-.539-.062-.173-.16-.331-.29-.464-.129-.133-.286-.238-.46-.307-.174-.07-.361-.102-.549-.096h-6.912c-.186.001-.37.038-.541.11s-.325.177-.452.309c-.128.131-.227.286-.291.456s-.093.351-.083.531l.884,11.641c0,0-7.233,4.531-7.153,8.281.081,2.891,1.849,16.719,2.653,22.813.102.82.51,1.575,1.147,2.122.637.548,1.459.849,2.309.846h9.966c.85.003,1.671-.298,2.308-.846.637-.547,1.045-1.302,1.148-2.122.803-6.094,2.571-19.922,2.652-22.813.08-3.828-7.153-8.281-7.153-8.281Z" fill="#b8d8c7"/><path d="M-0.797119,377.578h768.187119" fill="none" stroke="#b8d8c7" stroke-width="1.8" stroke-linecap="round" stroke-linejoin="round"/></g><mask id="epONLP8VIy237" mask-type="luminance" x="-150%" y="-150%" height="400%" width="400%"><path d="M475.884,414.297L57.9541,402.656c-9.3969-.253-18.3762-3.829-25.2559-10.056s-11.1875-14.679-12.1167-23.772L0.408344,175.078c-.53708-5.186.03982-10.424,1.694136-15.382c1.65432-4.959,4.35-9.529,7.91622-13.421c3.5663-3.893,7.9254-7.023,12.8012-9.192c4.8758-2.17,10.1619-3.331,15.5236-3.411l465.1875-6.25c5.532-.073,11.016,1.007,16.083,3.166c5.067,2.16,9.599,5.349,13.292,9.353s6.461,8.731,8.118,13.862s2.164,10.547,1.487,15.885l-27.085,211.64c-1.207,9.285-5.923,17.803-13.231,23.896s-16.687,9.327-26.311,9.073Z" transform="translate(0 0.000001)" fill="#fff"/></mask></g><path d="M494.369,131.016c.08-.703-.241-1.25-.804-1.25-.29.083-.544.26-.719.501s-.261.532-.245.827c-.08.703.241,1.25.723,1.25.483,0,.965-.547,1.045-1.328Z" fill="#63737a"/><path d="M499.272,130.625c.08-.703-.322-1.25-.804-1.25-.303.099-.567.288-.754.54-.188.253-.289.555-.291.866-.08.703.322,1.25.804,1.25s.964-.703,1.045-1.406Z" fill="#63737a"/><g id="epONLP8VIy241_to" transform="translate(381.607712,122.64)"><g transform="rotate(5) translate(-381.607711,-132.640484)"><path d="M393.584,161.406l-26.282,1.563c-.322.019-.644-.028-.946-.139-.301-.111-.575-.283-.803-.505-.228-.221-.405-.487-.519-.781-.114-.293-.163-.606-.143-.919l3.456-50.391c.049-.65.321-1.265.773-1.747s1.057-.802,1.719-.909l26.843-4.687c.335-.06.678-.045,1.006.043.327.088.63.247.885.465s.456.49.588.794.191.633.174.963l-3.938,53.438c-.02.726-.32,1.42-.841,1.941s-1.226.832-1.972.871Z" fill="#22272e"/><path d="M391.574,160.859l-26.281,1.563c-.322.019-.644-.028-.946-.139-.301-.111-.575-.283-.803-.504-.228-.222-.405-.488-.519-.781-.115-.294-.163-.607-.143-.92l3.456-50.391c.048-.65.32-1.265.772-1.747s1.058-.802,1.719-.909l26.844-4.687c.334-.06.678-.045,1.005.043.328.088.63.247.886.465.255.218.456.49.588.794s.191.634.173.963l-3.938,53.438c-.019.727-.319,1.42-.84,1.941-.522.521-1.226.832-1.973.871Z" fill="#6dafa7"/><path d="M382.01,109.219l-3.214.547c-.322.078-.563-.157-.563-.547.021-.167.094-.324.209-.449.115-.126.266-.214.434-.254l3.215-.547c.321-.078.562.156.562.547.005.174-.059.344-.178.475-.119.13-.286.212-.465.228Z" fill="#020202"/><path d="M384.582,108.828l-.321.078c-.322.078-.563-.156-.563-.547.014-.169.084-.329.2-.456s.272-.213.443-.247l.321-.078c.322-.078.563.156.563.547-.014.169-.084.329-.2.456s-.272.214-.443.247Z" fill="#020202"/><path d="M380.081,115.312l-8.117,1.25c-.152.018-.307.002-.451-.047-.145-.049-.277-.129-.385-.234s-.191-.233-.241-.374c-.05-.14-.066-.29-.048-.438.028-.339.168-.659.4-.913.232-.253.543-.427.886-.494l8.117-1.25c.154-.029.314-.022.465.022.15.045.287.125.399.233.111.108.193.241.239.388.045.146.053.301.022.451-.028.339-.169.659-.401.913-.232.253-.542.427-.885.493Z" fill="#22272e"/><path d="M390.369,129.531l-19.53,2.422c-.146.019-.294.006-.433-.037-.14-.044-.268-.116-.376-.213-.107-.097-.191-.216-.246-.349-.055-.132-.079-.274-.07-.417l.723-10.156c.012-.211.099-.411.245-.568.146-.156.344-.259.559-.291l19.61-2.891c.146-.018.293-.006.433.038.14.043.268.116.375.213.108.097.192.216.247.348s.079.275.07.417l-.803,10.625c-.01.212-.095.414-.242.571s-.346.259-.562.288Z" fill="#ffdccd"/><path d="M378.313,139.141l-8.117.859c-.152.018-.307.001-.451-.047-.145-.049-.277-.129-.385-.234-.108-.106-.191-.234-.241-.374-.05-.141-.067-.291-.048-.439.02-.333.16-.648.395-.891.235-.242.55-.397.89-.437l8.118-.859c.153-.025.31-.013.458.033.148.047.283.127.393.234.11.106.192.237.24.381.047.144.059.296.034.445-.018.334-.158.65-.393.893s-.552.397-.893.436Z" fill="#22272e"/><path d="M377.108,156.562l-8.037.547c-.643.078-1.126-.468-1.126-1.172.033-.328.178-.636.41-.877.233-.24.541-.399.876-.451l8.037-.625c.159-.013.318.008.467.063.148.055.282.143.391.256.108.113.189.249.235.396.047.148.058.305.033.457-.003.346-.135.679-.372.938-.236.259-.561.425-.914.468Z" fill="#f4c2c9"/><path d="M376.465,150.859l-6.993.547c-.141.018-.285.004-.42-.04-.136-.045-.258-.119-.359-.218-.101-.098-.178-.217-.224-.348-.046-.132-.06-.272-.042-.409l.402-6.25c.002-.228.096-.445.262-.606.165-.161.389-.252.622-.254l7.073-.703c.142-.018.286-.004.421.041s.258.119.359.217.177.217.223.349c.046.131.06.271.042.409L377.349,150c-.029.218-.131.421-.291.577-.16.155-.369.255-.593.282Z" fill="#ffdccd"/><path d="M388.842,149.844l-7.475.625c-.14.01-.28-.009-.412-.056s-.251-.122-.351-.218c-.099-.097-.175-.213-.224-.341s-.068-.265-.058-.401l.483-6.484c.002-.228.096-.445.261-.606.165-.16.389-.252.623-.254l7.474-.703c.142-.018.286-.004.421.041s.258.119.359.217.177.218.223.349.061.271.042.409l-.482,6.562c-.015.223-.113.434-.276.592-.162.158-.379.253-.608.268Z" fill="#fff"/></g></g><g id="epONLP8VIy252_to" transform="translate(153.354499,72.97)"><g transform="translate(-153.354499,-62.968749)"><path d="M153.354,77.3437c8.168,0,14.789-6.4359,14.789-14.375s-6.621-14.3749-14.789-14.3749c-8.167,0-14.788,6.4359-14.788,14.3749s6.621,14.375,14.788,14.375Z" fill="none" stroke="#6dafa7" stroke-width="1.8" stroke-linecap="round" stroke-linejoin="round"/><path d="M147.809,62.5781c-.47-.6085-.724-1.3487-.724-2.1094c0-.7606.254-1.5008.724-2.1093.252-.2476.553-.4441.884-.5782.331-.134.686-.2031,1.045-.2031.358,0,.713.0691,1.044.2031.332.1341.632.3306.885.5782.499.5931.756,1.3438.723,2.1093.046.7674-.213,1.5227-.723,2.1094-.253.2476-.553.4441-.885.5781-.331.1341-.686.2032-1.044.2032-.359,0-.714-.0691-1.045-.2032-.331-.134-.632-.3305-.884-.5781Zm2.973-.7812c.257-.4244.369-.9163.322-1.4063.037-.4892-.075-.9781-.322-1.4062-.112-.1456-.257-.2637-.425-.3451-.167-.0813-.352-.1237-.539-.1237s-.372.0424-.539.1237c-.167.0814-.313.1995-.425.3451-.285.4152-.426.9078-.402,1.4062-.002.4958.137.9824.402,1.4063.109.1488.254.2694.422.3511s.354.1221.542.1176c.187-.0034.37-.0473.537-.1284s.313-.1974.427-.3403Zm5.787-4.2188h.724c.241,0,.401.3125.241.4688L150.461,68.125c-.08.0781-.161.1562-.241.1562h-.723c-.242,0-.402-.3125-.242-.4687l7.073-10.0781c0-.0782.08-.1563.241-.1563Zm-1.446,10.0781c-.47-.6085-.724-1.3487-.724-2.1093s.254-1.5009.724-2.1094c.252-.2475.553-.444.884-.5781s.686-.2032,1.044-.2032c.359,0,.714.0691,1.045.2032s.632.3306.884.5781c.47.6085.724,1.3487.724,2.1094s-.254,1.5008-.724,2.1093c-.24.2626-.539.4691-.872.6044-.334.1352-.695.1957-1.057.1769-.359.0031-.715-.0646-1.046-.1988-.332-.1343-.632-.3324-.882-.5825Zm2.893-.8593c.211-.4126.322-.8672.322-1.3282c0-.4609-.111-.9156-.322-1.3281-.135-.1845-.318-.3319-.529-.4278s-.444-.1368-.677-.1191c-.316.0593-.601.2253-.803.4688-.285.4152-.426.9079-.402,1.4062-.013.4972.127.9868.402,1.4063.083.1371.2.2519.34.3338.141.0818.3.1283.463.135.234.0349.474.0016.688-.0958.215-.0973.395-.2543.518-.4511Z" fill="#6dafa7"/></g></g><g id="epONLP8VIy255" transform="translate(304.332749,25.386899) rotate(5) scale(1,1.1) translate(-304.332748,-18.39)"><path d="M315.97,42.7344c-16.235,10-33.515,9.2187-37.774-.7813-3.778-8.75,4.259-21.5625,17.36-29.2968c12.859-7.65629,27.969-8.82816,34.64-2.1094c7.474,7.5781,1.607,22.3437-14.226,32.1875Z" fill="#22272e"/><path d="M313.961,39.5313c-16.235,10-33.515,9.2187-37.775-.7813-3.777-8.75,4.26-21.5625,17.361-29.29686c12.859-7.65625,27.969-8.828128,34.64-2.10938c7.474,7.57814,1.607,22.34374-14.226,32.18754Z" fill="#ffdccd"/><path d="M309.38,32.8906c-9.725,5.9375-20.334,5.7813-23.308-.0781-2.813-5.3906,2.089-13.5937,10.609-18.6719c8.519-5.0781,18.164-5.62497,22.102-1.0937c4.179,4.9219.241,13.9062-9.403,19.8437Z" fill="#6dafa7"/><g id="epONLP8VIy259_to" transform="translate(290.52,12.79)"><g transform="translate(-299.522003,-14.792572)"><path d="M305.281,26.7969c-3.858,2.3437-8.118,2.3437-9.484.1562s.563-5.625,4.26-7.8125s7.715-2.3437,9.242-.3125c1.527,2.0313-.241,5.625-4.018,7.9688Z" fill="#f4c2c9"/><path d="M301.423,19.375c-.718.41-1.572.5332-2.381.3438-.81-.1894-1.512-.6768-1.959-1.3594L289.367,3.4375c-.184-.37844-.22-.80887-.101-1.21125.118-.40237.382-.7493.744-.97625.379-.21789.828-.290601,1.259-.20391s.813.32654,1.072.67266L302.387,15.2344c.225.3311.378.7028.451,1.0928s.064.7904-.026,1.177-.26.7516-.499,1.0731c-.238.3214-.541.5928-.89.7977Z" fill="#22272e"/><path d="M291.296,6.32812l-3.456-.23438c-.211-.01378-.422.03159-.608.13074s-.338.24791-.44.42871c-.101.1808-.147.38607-.133.59152.015.20544.09.40248.217.56779c1.655,2.16214,3.915,3.8163,6.51,4.7656l1.607.625c.161.0781.402-.1562.241-.3125L292.1,6.87499c-.081-.3125-.402-.46875-.804-.54687Z" fill="#6dafa7"/><path d="M294.19,4.60938l1.446-3.04688c.085-.19111.225-.35398.403-.46843.179-.114456.388-.17546.602-.17546s.423.061004.602.17546c.178.11445.318.27732.403.46843c1.221,2.42089,1.669,5.14194,1.286,7.81251l-.242,1.71879c0,.1562-.321.2343-.401.0781L294.27,5.70312c-.093-.16607-.149-.34966-.163-.53837-.013-.18871.015-.37811.083-.55537Z" fill="#6dafa7"/></g></g><path d="M301.021,38.75l2.572,4.2187" fill="none" stroke="#22272e" stroke-width="1.8" stroke-linecap="round" stroke-linejoin="round"/></g><path d="M269.893,422.422c-1.769-3.047-18.888,0-18.888,0s.322,6.484.483,11.406c5.781,2.364,12.223,2.722,18.244,1.016-.081-5.078.161-12.422.161-12.422Z" fill="#b28d93"/><path d="M251.407,433.828c.081,2.266.081,4.141.081,4.922c0,.938-1.126,2.656-1.528,5.313-.321,1.953,0,4.609-.401,6.953-.402,2.812-.884,5.625-1.126,8.281-.723,7.734,3.376,8.594,7.957,9.141c4.581.546,19.771.937,20.254-3.36.482-4.297-3.858-12.265-4.823-15.937-.964-3.672-1.527-7.813-2.009-10.235-.08-.703-.161-2.187-.161-4.062-6.025,1.67-12.454,1.312-18.244-1.016Z" fill="#ffdccd"/><path d="M276.724,465c-.482,4.297-15.672,3.828-20.253,3.359-4.581-.468-8.68-1.406-7.957-9.14.241-2.578.643-5.469,1.125-8.282.402-2.343,0-5,.402-6.953.32-1.58.804-3.124,1.447-4.609.321,2.031,1.929,2.656,2.089,7.109.241,4.61-.241,6.953,5.305,5.469c7.314-1.953,10.127.469,11.654-.703c1.286-1.094.803-4.844.723-5.547.241,1.094.482,2.266.723,3.359.804,3.672,5.224,11.719,4.742,15.938Z" fill="#22272e"/><path d="M267.803,429.453c.681-.173,1.352-.381,2.009-.625.081-3.437.161-6.484.161-6.484-1.768-3.047-18.887,0-18.887,0s.08,2.344.241,5.312c4.983,1.875,10.689,3.047,16.476,1.797Z" fill="#896068"/><path d="M263.704,455.234c2.486,0,4.501-1.259,4.501-2.812s-2.015-2.813-4.501-2.813-4.501,1.26-4.501,2.813s2.015,2.812,4.501,2.812Z" fill="#fff"/><path d="M297.701,435.781c.402,3.047.643,5.703.482,6.406-.402,1.641-1.688,8.516-2.733,11.485-1.044,2.969-6.992,11.406-3.054,13.984c3.939,2.578,24.031,1.016,26.201-.781s1.447-6.797.643-13.203c-.803-6.406-3.214-12.969-3.214-13.906c0-.313-.081-2.735-.161-5.704-5.465,2.657-11.815,3.672-18.164,1.719Z" fill="#ffdccd"/><path d="M296.254,425.938c0,0,.884,5.312,1.447,9.843c6.349,1.953,12.699.938,18.164-1.718-.241-5.625-.563-13.438-.884-13.907-.402-.703-16.958-1.015-18.727,5.782Z" fill="#b28d93"/><path d="M318.678,466.875c-2.17,1.797-22.263,3.438-26.201.781-3.938-2.656,2.009-11.093,3.054-13.984.723-2.109,1.607-6.328,2.17-9.141-.161.938-1.447,8.282,0,8.75c1.447.469,5.385-2.578,10.448-1.484c5.064,1.094,7.636,1.797,7.636-1.25s-.965-8.047-.483-8.906c.483-.86.804-1.797.804-1.797c0,.937,2.411,7.5,3.215,13.906s1.527,11.25-.643,13.125Z" fill="#22272e"/><path d="M315.624,428.672c-.161-4.219-.402-8.203-.643-8.516-.402-.703-17.039-1.015-18.807,5.782c0,0,.321,2.187.804,4.921c6.67,1.407,12.939.235,18.646-2.187Z" fill="#896068"/><path d="M304.532,456.094c2.486,0,4.501-1.259,4.501-2.813c0-1.553-2.015-2.812-4.501-2.812-2.485,0-4.5,1.259-4.5,2.812c0,1.554,2.015,2.813,4.5,2.813Z" fill="#fff"/><path d="M312.65,226.406c0,0,7.796,13.828,3.376,48.203-4.421,34.375-6.671,43.047-5.868,45.235.804,2.187,4.742,18.672,4.983,44.14.242,25.469.804,37.657,3.135,44.766s3.375,12.422-2.733,16.641c-6.108,4.218-16.717,3.671-21.7,1.406-4.983-2.266-5.224-6.094-4.822-14.609.402-8.516-3.938-34.922-7.555-50.938-2.17-9.687-4.019-20.859-5.224-28.906-.583-3.468-.986-6.962-1.206-10.469c0-3.047-4.822-47.891-4.822-50.156c0-2.266-5.224-3.828-6.51-13.438-1.286-9.609,1.045-31.797,1.045-31.797s43.48-6.093,47.901-.078Z" fill="#22272e"/><path d="M239.512,223.75c0,0-8.76,20.469-3.777,57.656c4.983,37.188,5.626,40.781,5.867,42.422s.402,29.453,2.733,53.594c2.33,24.14-2.331,36.562,0,42.422c2.33,5.859,9.805,7.343,15.029,7.109s15.029-2.031,15.029-11.406-1.286-24.141,0-43.828c1.286-19.688,3.215-39.766,3.778-49.141.562-9.375,6.429-63.75,7.474-71.484c1.045-7.735-2.652-20.313-17.199-25.235-14.547-4.765-28.934-2.109-28.934-2.109Z" transform="translate(0 0.000022)" fill="#22272e"/><path d="M234.208,256.719c0,0,4.742-1.094,6.429-6.875.962-3.17,1.661-6.41,2.09-9.688" fill="none" stroke="#63737a" stroke-width="1.8" stroke-linecap="round" stroke-linejoin="round"/><path d="M317.231,258.75c0,0-6.188-2.812-8.117-9.219-1.929-6.406-1.688-10-1.688-10" fill="none" stroke="#63737a" stroke-width="1.8" stroke-linecap="round" stroke-linejoin="round"/><path d="M259.284,265.625c4.581.156,10.769,5.156,10.769,5.156c2.158-1.704,4.503-3.171,6.993-4.375" fill="none" stroke="#63737a" stroke-width="1.8" stroke-linecap="round" stroke-linejoin="round"/><path d="M257.194,335.938c6.481,0,11.734-5.247,11.734-11.719s-5.253-11.719-11.734-11.719-11.734,5.247-11.734,11.719s5.253,11.719,11.734,11.719Z" fill="none" stroke="#63737a" stroke-width="1.8" stroke-linecap="round" stroke-linejoin="round"/><path d="M290.709,335.938c6.48,0,11.734-5.247,11.734-11.719s-5.254-11.719-11.734-11.719c-6.481,0-11.734,5.247-11.734,11.719s5.253,11.719,11.734,11.719Z" fill="none" stroke="#63737a" stroke-width="1.8" stroke-linecap="round" stroke-linejoin="round"/><path d="M276.242,332.266c-.583-3.468-.985-6.962-1.206-10.469c0-3.047-4.822-47.891-4.822-50.156c0-2.266-5.224-3.828-6.51-13.438" fill="none" stroke="#63737a" stroke-width="1.8" stroke-linecap="round" stroke-linejoin="round"/><path d="M188.396,117.109c0,0-.723-2.343-1.045-8.906-.08-1.562,2.492-5,2.813-6.015.322-1.016,2.733-.625,2.09,2.812-.643,3.438,1.849,9.766,1.125,12.188-.723,2.421-4.983,1.015-4.983-.079Z" fill="#b28d93"/><path d="M181.806,96.25l21.7,43.594c.306.654.806,1.205,1.436,1.581s1.362.56,2.1.528l32.551-.547c.331-.002.656-.085.946-.241.289-.157.533-.382.71-.654.176-.273.279-.584.298-.906.02-.321-.044-.642-.186-.933L222.232,94.9219c-.3-.686-.805-1.2686-1.45-1.6725s-1.399-.6105-2.166-.5931l-35.042.7812c-.337.0099-.665.1012-.956.2655s-.535.3966-.711.6758c-.175.2791-.277.5964-.294.9231-.018.3267.048.6526.193.9481Z" fill="#22272e"/><path d="M194.183,90.2344l12.056-.4688c.518-.0064,1.025.1498,1.444.4453.42.2955.731.7147.886,1.1954l.483,1.5625c.037.1136.046.2341.028.352-.018.1178-.064.2301-.134.3281-.07.0981-.162.1793-.269.2374s-.226.0917-.349.0981l-14.547.3906c-.185-.0072-.363-.0718-.507-.1842-.145-.1124-.249-.2669-.297-.4408l-.241-1.7187c-.041-.2123-.036-.4308.017-.6408.052-.21.15-.4067.287-.5768s.31-.3099.507-.4098.414-.1577.636-.1695Z" fill="#6dafa7"/><path d="M225.849,167.813L223.117,170c0,0-3.617-11.094-6.912-18.672-3.296-7.578-5.385-17.187-5.305-18.281.081-1.094,1.045-4.219-1.125-7.5-1.147-1.839-2.75-3.37-4.662-4.453c0,0,1.849-.86,5.305-2.266s1.848-2.969-.241-2.734c-2.09.234-7.314.937-7.314.937l4.099-3.125c1.527-1.172,4.742-2.422,3.938-3.672-.723-1.093-4.099.079-5.626.547-1.527.469-6.912,3.047-6.912,3.047s3.215-3.672,4.662-5.469c1.446-1.796,5.304-3.515,4.822-5.312s-5.224.781-7.474,2.109c-2.251,1.328-6.511,5.547-6.511,5.547s.161-4.062.322-5.859s1.286-6.3284-.08-7.4221c-1.769-1.4063-2.733,2.9691-3.617,6.6411-.884,3.671-2.974,11.093-2.492,13.281.483,2.187,3.215,4.844,5.546,7.812c2.331,2.969,4.822,6.485,5.224,7.5.402,1.016,3.376,47.813,6.028,54.219s8.76,17.422,34.158-2.109c0,0,2.33-13.672-2.331-17.344-4.742-3.516-10.77.391-10.77.391Z" fill="#b28d93"/><path d="M256.953,142.734c0,0-6.189,1.094-13.985,9.219s-17.119,15.86-17.119,15.86s7.234,15.625,11.574,20.312c0,0,15.19-9.844,21.137-15.625c5.948-5.781,6.992-27.734-1.607-29.766Z" fill="#6dafa7"/><path d="M229.064,165.078c0,0,5.063,11.875,11.815,20.703" fill="none" stroke="#22272e" stroke-width="1.8" stroke-linecap="round" stroke-linejoin="round"/><path d="M223.117,170c.908,2.24,1.66,4.537,2.25,6.875" fill="none" stroke="#896068" stroke-width="1.8" stroke-linecap="round" stroke-linejoin="round"/><path d="M202.863,117.031c-.598.124-1.188.281-1.768.469-.651.188-1.253.507-1.768.937" fill="none" stroke="#896068" stroke-width="1.8" stroke-linecap="round" stroke-linejoin="round"/><path d="M205.033,121.094c-.51.24-.994.527-1.447.859" fill="none" stroke="#896068" stroke-width="1.8" stroke-linecap="round" stroke-linejoin="round"/><path d="M198.362,113.828c-.709.439-1.334.994-1.848,1.641" fill="none" stroke="#896068" stroke-width="1.8" stroke-linecap="round" stroke-linejoin="round"/><path d="M193.861,110.781c-.676.449-1.297.974-1.848,1.563" fill="none" stroke="#896068" stroke-width="1.8" stroke-linecap="round" stroke-linejoin="round"/><path d="M198.925,133.672c0,0,3.134,3.828,12.216.937c0,0,.965,3.516,1.045,4.454c0,0-7.555,2.968-12.779-.625-.281-1.575-.442-3.168-.482-4.766Z" fill="#22272e"/><path d="M202.904,140.616c1.304-.26,2.023-2.081,1.604-4.068-.418-1.986-1.815-3.386-3.119-3.127-1.305.26-2.023,2.081-1.605,4.068.418,1.986,1.815,3.386,3.12,3.127Z" fill="#fff"/><path d="M253.738,144.766c2.25-1.719,4.501-3.829,24.433-4.454c22.906-.703,33.836,1.954,36.97,14.688c3.135,12.734-10.046,42.422-10.046,45.859c0,3.438,8.278,20.157,9.243,27.735c0,0-11.172,11.953-39.382,11.562-28.21-.39-37.614-11.562-37.614-14.453s9.806-19.375,10.85-26.641c1.045-7.265-8.76-16.484-8.358-25.781s8.76-17.265,9.242-19.297c1.126-3.75,2.251-7.422,4.662-9.218Z" fill="#ffdccd"/><path d="M264.427,147.969c0,0-.08,15.625,6.832,26.718c0,0,12.136-12.031,16.315-24.218c0,0-9.484,2.969-15.11,1.015-2.785-.928-5.475-2.105-8.037-3.515Z" fill="#6dafa7"/><path d="M270.455,138.203c-1.527.565-2.916,1.434-4.079,2.55-1.162,1.117-2.072,2.457-2.672,3.935-2.331,5.312-1.447,13.046.643,12.968s10.127-5.625,10.127-5.625-.402-13.203-4.019-13.828Z" fill="#fff"/><path d="M274.393,152.109l4.421,5.625c2.331,2.969,4.581,6.25,10.368-2.812c5.786-9.063,2.089-15.234-1.286-16.719-3.376-1.484-13.985,11.016-13.503,13.906Z" fill="#fff"/><path d="M270.455,132.188c-.184,3.636-.559,7.26-1.125,10.859-.804,4.375.482,8.359,5.063,9.062c4.581.704,13.985-4.14,14.547-10.781c0,0-.803-15.703.563-20.625s-18.807,8.047-19.048,11.485Z" fill="#b28d93"/><path d="M284.681,131.953c-2.974,4.61-9.082,5-14.547,5.078-.161,1.719-.402,3.594-.643,5.235c6.912-.313,13.743-3.75,15.19-10.313Z" fill="#896068"/><path d="M313.052,223.203c-21.54,13.672-54.652,15.391-74.183-1.641" fill="none" stroke="#f8ab5d" stroke-width="1.8" stroke-linecap="round" stroke-linejoin="round"/><path d="M271.259,174.688c0,0-6.269,8.046-7.876,13.437" fill="none" stroke="#f8ab5d" stroke-width="1.8" stroke-linecap="round" stroke-linejoin="round"/><path d="M272.143,180.156c.254,0,.503.074.714.211.212.137.377.332.474.561.097.228.123.48.073.722-.05.243-.172.465-.352.64s-.409.294-.658.342c-.25.048-.508.024-.743-.071s-.436-.255-.577-.46c-.142-.206-.217-.448-.217-.695c0-.331.135-.649.377-.884.241-.234.568-.366.909-.366Z" fill="#f8ab5d"/><path d="M269.25,188.75c.71,0,1.285-.56,1.285-1.25s-.575-1.25-1.285-1.25c-.711,0-1.286.56-1.286,1.25s.575,1.25,1.286,1.25Z" fill="#f8ab5d"/><path d="M326.072,167.422c0,0,6.028,13.359,9.002,23.594c2.973,10.234-.081,16.562-6.591,19.609s-11.654-4.766-21.379-28.438c0,.079,14.548-18.828,18.968-14.765Z" fill="#b28d93"/><path d="M318.678,206.016c0,0,4.018,7.968,13.1,7.109s31.023-6.875,35.203-10.313c4.179-3.437,2.17-12.578-1.768-12.968-3.939-.391-15.512.781-22.102.859-2.774-.06-5.548.15-8.279.625-1.072.219-2.121.532-3.134.938-1.191.505-2.323,1.134-3.376,1.875-4.018,2.968-9.644,11.875-9.644,11.875Z" fill="#b28d93"/><path d="M334.993,191.406c-1.072.219-2.121.533-3.134.938-1.192.505-2.323,1.134-3.376,1.875" fill="none" stroke="#896068" stroke-width="1.8" stroke-linecap="round" stroke-linejoin="round"/><path d="M297.701,149.453c1.688-4.219,6.59-6.953,10.529-5.469c4.296,1.649,7.989,4.505,10.609,8.204c6.188,8.828,12.216,24.765,12.216,24.765s-6.43,4.375-22.906,9.922c-2.99-4.89-5.674-9.952-8.037-15.156-1.929-4.453-5.224-15.078-2.411-22.266Z" fill="#6dafa7"/><path d="M306.381,182.734c0,0,12.377-3.046,22.825-10.156" fill="none" stroke="#22272e" stroke-width="1.8" stroke-linecap="round" stroke-linejoin="round"/><path d="M339.815,194.063l54.492-5.391c.323-.044.652-.023.967.06.314.084.608.229.864.426.255.197.467.443.622.722s.25.585.28.901l5.545,42.188c.095.599-.054,1.211-.413,1.706-.36.495-.903.836-1.516.95l-53.205,11.172c-.335.08-.683.089-1.021.027-.339-.061-.66-.193-.941-.385-.282-.193-.518-.442-.693-.73-.174-.289-.283-.61-.319-.943l-6.832-47.891c-.063-.325-.055-.659.022-.981s.222-.625.426-.89c.204-.264.463-.485.759-.647.297-.162.625-.262.963-.294Z" fill="#6dafa7"/><path d="M352.514,210.391l36.408-5.079c.405-.06.818.037,1.149.271.332.234.554.586.619.979l3.537,20.313c.069.383-.019.776-.244,1.097s-.57.544-.962.622l-36.729,7.265c-.207.046-.421.048-.629.009-.208-.04-.405-.121-.579-.238-.173-.118-.32-.269-.431-.445-.11-.176-.182-.372-.21-.576l-3.295-22.422c-.048-.411.066-.826.32-1.159.253-.333.627-.561,1.046-.637Z" fill="none" stroke="#22272e" stroke-width="1.8" stroke-linecap="round" stroke-linejoin="round"/><path d="M382.573,206.172l4.259,23.672" fill="none" stroke="#22272e" stroke-width="1.8" stroke-linecap="round" stroke-linejoin="round"/><path d="M358.14,216.016l18.727-2.813" fill="none" stroke="#22272e" stroke-width="1.8" stroke-linecap="round" stroke-linejoin="round"/><path d="M359.748,222.422l18.726-3.516" fill="none" stroke="#22272e" stroke-width="1.8" stroke-linecap="round" stroke-linejoin="round"/><path d="M361.033,228.516L379.76,225" fill="none" stroke="#22272e" stroke-width="1.8" stroke-linecap="round" stroke-linejoin="round"/><path d="M386.27,211.094l1.206.859l1.366-2.5" fill="none" stroke="#22272e" stroke-width="1.8" stroke-linecap="round" stroke-linejoin="round"/><path d="M387.315,216.406l1.205.86l1.447-2.422" fill="none" stroke="#22272e" stroke-width="1.8" stroke-linecap="round" stroke-linejoin="round"/><path d="M388.36,222.109l1.205.86l1.366-2.422" fill="none" stroke="#22272e" stroke-width="1.8" stroke-linecap="round" stroke-linejoin="round"/><path d="M350.023,202.734l-.322-1.953c-.018-.139-.007-.279.032-.414s.106-.26.196-.37c.09-.109.201-.199.328-.266.126-.067.265-.108.409-.122l8.439-.937c.276-.036.556.033.781.193s.377.399.424.666l.241,1.719c.038.269-.034.541-.198.759-.165.219-.411.367-.686.413l-8.358,1.094c-.138.039-.282.05-.424.031s-.279-.067-.4-.141c-.122-.073-.226-.172-.306-.287-.079-.116-.133-.247-.156-.385Z" fill="#ffdccd"/><path d="M381.93,188.437c-1.206-1.25-1.849-1.718-6.51-2.031-1.608-.078-4.501.078-6.832.156-1.125,0-1.848-.234-2.652-.156-2.411.391-5.224,3.125-6.59,4.063-1.367.937-3.858,2.109-3.858,2.109l7.957-.781c.243-.038.493.003.71.116.218.113.391.291.495.509.692,1.31,1.283,2.668,1.768,4.062.965,2.969,2.01,6.719,3.376,5.782.804-.547.804-3.047.562-4.766c0,.234.081.391.081.625.241,2.969-.241,7.422,1.527,7.5c1.607.078,1.848-1.797,1.848-1.797.044.15.121.288.224.407.104.118.232.214.376.28.145.067.302.103.462.105.16.003.319-.027.465-.089c1.286-.469,3.135-4.297,3.698-6.562.08,1.015-.161,1.406.562,1.64c1.527.469,2.733-4.297,3.135-7.734.241-2.188-.161-2.813-.804-3.438Z" fill="#b28d93"/><path d="M373.732,203.75c0,0,.804-4.063,1.125-5.703.283-2.336.283-4.696,0-7.031-.196-.677-.466-1.332-.804-1.954" fill="none" stroke="#896068" stroke-width="1.8" stroke-linecap="round" stroke-linejoin="round"/><path d="M379.037,197.891c.497-2.11.846-4.251,1.044-6.407-.04-.819-.174-1.631-.401-2.422" fill="none" stroke="#896068" stroke-width="1.8" stroke-linecap="round" stroke-linejoin="round"/><path d="M370.437,199.141c.084-1.405.084-2.814,0-4.219-.342-1.736-.853-3.437-1.527-5.078" fill="none" stroke="#896068" stroke-width="1.8" stroke-linecap="round" stroke-linejoin="round"/><path d="M303.086,101.484c-.006-2.2339-.763-4.4051-2.156-6.1823s-3.345-3.0629-5.56-3.6611c-.241-2.5279-1.447-4.8765-3.381-6.5828-1.934-1.7064-4.455-2.6468-7.067-2.6359-1.268-.0085-2.526.2306-3.697.7031-.983-1.0935-2.193-1.9721-3.551-2.578-1.357-.606-2.832-.9255-4.325-.9376-1.743-.015-3.46.4-4.992,1.2062s-2.829,1.9771-3.769,3.4032c-.321,0-.643-.0782-.964-.0782-1.914.0027-3.79.5162-5.424,1.4846-1.634.9683-2.963,2.3544-3.843,4.0068-.879,1.6525-1.274,3.5079-1.142,5.3638s.785,3.641,1.889,5.1602c-.675,1.366-1.032,2.86-1.044,4.375c0,1.334.27,2.655.795,3.887s1.295,2.352,2.265,3.295s2.122,1.691,3.389,2.201c1.268.511,2.627.774,3.999.774s2.73-.263,3.998-.774c1.268-.51,2.42-1.258,3.39-2.201s1.74-2.063,2.265-3.295.795-2.553.795-3.887c.009-1.577-.377-3.132-1.125-4.531c1.093-.0874,2.171-.2971,3.215-.625c1.372,1.498,3.157,2.582,5.143,3.125.171,1.419.607,2.796,1.286,4.062-.952,1.304-1.574,2.808-1.815,4.39-.242,1.581-.096,3.196.426,4.712.522,1.517,1.405,2.892,2.577,4.014s2.6,1.959,4.167,2.443c1.568.485,3.231.602,4.854.344c1.624-.259,3.161-.886,4.488-1.832c1.326-.945,2.405-2.181,3.147-3.608s1.127-3.004,1.124-4.603c.005-1.755-.466-3.48-1.366-5c1.327-1.709,2.034-3.797,2.009-5.938Z" fill="#22272e"/><path d="M273.911,97.1094c-3.393-.036-6.673,1.1895-9.168,3.4256-2.494,2.237-4.016,5.315-4.254,8.606-.241,3.047-.562,7.265-1.125,10.781-.964,6.094,0,15.156,9.886,17.344c9.885,2.187,19.53-7.032,21.7-15c2.17-7.969,4.018-19.61-7.635-23.4379-3.033-1.0122-6.2-1.5911-9.404-1.7187Z" fill="#b28d93"/><path d="M287.815,118.438c0,0-1.527-1.25-2.009-6.329-.039-.314-.175-.609-.391-.846-.215-.237-.499-.405-.815-.482-1.768-.39-4.983-2.187-6.108-9.297-3.092,2.031-6.516,3.537-10.127,4.454-5.465,1.25-8.921-3.594-10.689-6.0942-3.134-4.4532-2.733-5.5469-1.286-7.2657c7.153-8.5937,19.852-5,22.182-4.2187c2.331.7812,10.609.1562,16.316,6.0937c5.706,5.9379,4.42,14.4529,2.893,19.6879-1.527,5.234-9.162,14.531-9.162,15.234s-.804-10.937-.804-10.937Z" fill="#22272e"/><path d="M286.69,118.828c0,0,1.527-3.906,4.983-3.359c2.733.39,3.295,9.531-3.375,10.859" fill="#b28d93"/><path d="M265.874,114.609c.026.875-.196,1.74-.643,2.5-.241.383-.509.748-.804,1.094-.16.156-.241.313-.321.391s-.161.234-.241.39c-.11.266-.153.554-.125.84.028.285.126.56.286.801.398.681.947,1.268,1.607,1.719-.93-.034-1.815-.395-2.492-1.016-.379-.357-.632-.822-.723-1.328-.147-.548-.09-1.129.161-1.641.103-.25.238-.486.402-.703l.482-.468c.321-.235.563-.547.884-.782.482-.547.965-1.094,1.527-1.797Z" fill="#22272e"/><path d="M271.098,127.891c.975-.098,1.906-.446,2.697-1.009s1.414-1.32,1.804-2.194" fill="none" stroke="#22272e" stroke-width="1.8" stroke-linecap="round" stroke-linejoin="round"/><path d="M274.313,110.156c-.482-.547-.482-1.953.482-2.265.965-.313,3.536,0,5.224,2.109s-1.688.469-2.652.313c-.965-.157-2.652.234-3.054-.157Z" fill="#22272e"/><path d="M264.749,109.453c.111.039.228.056.346.049.117-.007.232-.037.337-.088s.199-.122.275-.21c.076-.087.133-.188.167-.298.103-.241.142-.503.114-.762s-.123-.507-.275-.722c-.402-.547-3.697-.156-4.259,1.328-.402,1.016,1.687.156,2.411.391.313.046.613.153.884.312Z" fill="#22272e"/><g id="epONLP8VIy2133_to" transform="translate(273.357918,115.86)"><g transform="translate(-273.357917,-115.863094)"><path d="M263.945,114.453c.024-.164.013-.332-.031-.492-.044-.161-.121-.311-.226-.442s-.236-.241-.385-.322-.313-.132-.483-.15c-.169-.023-.342-.013-.507.03s-.319.118-.454.22-.247.229-.331.374c-.083.145-.136.305-.155.47v.312l2.572.313v-.313Z" fill="#22272e"/><path d="M276.403,115.937c.042-.331-.052-.665-.263-.929s-.521-.435-.863-.477c-.341-.041-.685.051-.956.256s-.448.506-.49.838v.234l2.572.313v-.235Z" fill="#22272e"/><path d="M292.075,118.984c-.217-.136-.466-.217-.723-.234-.161,0-.241.156-.402.234l-.081.078v.86c.051.6.024,1.203-.08,1.797-.107.37-.332.699-.643.937-.151.1-.323.166-.504.193s-.366.015-.541-.037c.241-.234.483-.39.483-.625.08-.2.08-.424,0-.625-.081-.39-.161-.937-.242-1.562-.01-.34.017-.681.081-1.016.091-.216.198-.425.321-.625.092-.096.201-.176.322-.234l.241-.156c.185-.097.392-.147.603-.147.21,0,.417.05.602.147.174.11.316.261.414.438.098.178.15.376.149.577Z" fill="#22272e"/><path d="M264.438,115.524c.37-3.389-1.514-6.362-4.206-6.64-2.693-.277-5.175,2.246-5.545,5.636-.369,3.389,1.514,6.362,4.206,6.639c2.693.278,5.175-2.245,5.545-5.635Z" fill="none" stroke="#22272e" stroke-width="1.8" stroke-linecap="round" stroke-linejoin="round"/><path d="M282.122,116.871c.369-3.389-1.836-6.395-4.926-6.713-3.089-.319-5.894,2.171-6.263,5.561-.37,3.389,1.835,6.395,4.925,6.714c3.09.318,5.894-2.172,6.264-5.562Z" fill="none" stroke="#22272e" stroke-width="1.8" stroke-linecap="round" stroke-linejoin="round"/><path d="M264.508,114.687c0,0,1.607-1.25,6.51.704" fill="none" stroke="#22272e" stroke-width="1.8" stroke-linecap="round" stroke-linejoin="round"/></g></g><path d="M282.109,116.328l5.706.781" fill="none" stroke="#22272e" stroke-width="1.8" stroke-linecap="round" stroke-linejoin="round"/><path d="M196.273,240.625c-.965,0,3.215-9.531,7.474-8.203c4.26,1.328-2.089,8.203-7.474,8.203Z" fill="#6dafa7"/><path d="M196.755,241.875c0,0-4.662-5.625-9.243-4.375s1.126,7.734,9.243,4.375Z" fill="#6dafa7"/><path d="M195.389,236.25c0,0,6.912-11.562,3.938-14.297-5.144-4.922-11.654,9.61-3.938,14.297Z" fill="#6dafa7"/><path d="M206.962,262.5l-10.127,2.187c-1.372.292-2.806.109-4.054-.519s-2.23-1.66-2.777-2.918l-4.581-10.781c-.208-.49-.302-1.018-.277-1.547s.169-1.047.421-1.516c.253-.469.609-.879,1.042-1.2s.934-.546,1.466-.659l18.324-3.985c.533-.111,1.083-.109,1.615.005.531.114,1.032.338,1.466.657.435.319.794.725,1.053,1.19.258.466.411.98.448,1.508l.562,11.64c.083,1.357-.332,2.698-1.171,3.785-.839,1.088-2.047,1.85-3.41,2.153Z" fill="#22272e"/><path d="M197.398,244.297c0,0-3.215-9.453-2.009-13.906" fill="none" stroke="#000" stroke-width="1.8" stroke-linecap="round" stroke-linejoin="round"/></svg>
